A.ufo
<glyph name="exclam" format="1">
  <advance width="515"/>
  <unicode hex="0021"/>
  <outline>
    <contour>
      <point x="434" y="1456" type="line"/>
      <point x="111" y="1456" type="line"/>
      <point x="111" y="516" type="line"/>
      <point x="434" y="516" type="line"/>
    </contour>
    <contour>
      <point x="434" y="283" type="line"/>
      <point x="111" y="283" type="line"/>
      <point x="111" y="0" type="line"/>
      <point x="434" y="0" type="line"/>
    </contour>
  </outline>
</glyph>
<glyph name="dollar" format="1">
  <advance width="1106"/>
  <unicode hex="0024"/>
  <outline>
    <contour>
      <point x="668" y="1685" type="line"/>
      <point x="509" y="1685" type="line"/>
      <point x="509" y="1394" type="line"/>
      <point x="668" y="1394" type="line"/>
    </contour>
    <contour>
      <point x="648" y="52" type="line"/>
      <point x="489" y="52" type="line"/>
      <point x="489" y="-218" type="line"/>
      <point x="648" y="-218" type="line"/>
    </contour>
    <contour>
      <point x="728" y="386" type="curve" smooth="yes"/>
      <point x="728" y="302"/>
      <point x="677" y="234"/>
      <point x="568" y="234" type="curve" smooth="yes"/>
      <point x="464" y="234"/>
      <point x="366" y="289"/>
      <point x="366" y="467" type="curve"/>
      <point x="44" y="467" type="line"/>
      <point x="44" y="101"/>
      <point x="315" y="-21"/>
      <point x="568" y="-21" type="curve" smooth="yes"/>
      <point x="854" y="-21"/>
      <point x="1050" y="128"/>
      <point x="1050" y="388" type="curve" smooth="yes"/>
      <point x="1050" y="657"/>
      <point x="864" y="757"/>
      <point x="605" y="867" type="curve" smooth="yes"/>
      <point x="463" y="927"/>
      <point x="420" y="976"/>
      <point x="420" y="1066" type="curve" smooth="yes"/>
      <point x="420" y="1151"/>
      <point x="464" y="1222"/>
      <point x="570" y="1222" type="curve" smooth="yes"/>
      <point x="665" y="1222"/>
      <point x="733" y="1159"/>
      <point x="733" y="1006" type="curve"/>
      <point x="1055" y="1006" type="line"/>
      <point x="1055" y="1302"/>
      <point x="861" y="1477"/>
      <point x="575" y="1477" type="curve" smooth="yes"/>
      <point x="293" y="1477"/>
      <point x="98" y="1316"/>
      <point x="98" y="1068" type="curve" smooth="yes"/>
      <point x="98" y="796"/>
      <point x="280" y="701"/>
      <point x="544" y="594" type="curve" smooth="yes"/>
      <point x="678" y="540"/>
      <point x="728" y="495"/>
    </contour>
  </outline>
</glyph>
<glyph name="percent" format="1">
  <advance width="1418"/>
  <unicode hex="0025"/>
  <outline>
    <contour>
      <point x="40" y="1099" type="line" smooth="yes"/>
      <point x="40" y="936"/>
      <point x="150" y="800"/>
      <point x="363" y="800" type="curve" smooth="yes"/>
      <point x="577" y="800"/>
      <point x="683" y="936"/>
      <point x="683" y="1099" type="curve" smooth="yes"/>
      <point x="683" y="1176" type="line" smooth="yes"/>
      <point x="683" y="1341"/>
      <point x="577" y="1477"/>
      <point x="361" y="1477" type="curve" smooth="yes"/>
      <point x="150" y="1477"/>
      <point x="40" y="1341"/>
      <point x="40" y="1176" type="curve" smooth="yes"/>
    </contour>
    <contour>
      <point x="249" y="1176" type="line" smooth="yes"/>
      <point x="249" y="1239"/>
      <point x="286" y="1295"/>
      <point x="361" y="1295" type="curve" smooth="yes"/>
      <point x="438" y="1295"/>
      <point x="474" y="1239"/>
      <point x="474" y="1176" type="curve" smooth="yes"/>
      <point x="474" y="1099" type="line" smooth="yes"/>
      <point x="474" y="1038"/>
      <point x="439" y="982"/>
      <point x="363" y="982" type="curve" smooth="yes"/>
      <point x="286" y="982"/>
      <point x="249" y="1038"/>
      <point x="249" y="1099" type="curve" smooth="yes"/>
    </contour>
    <contour>
      <point x="733" y="280" type="line" smooth="yes"/>
      <point x="733" y="116"/>
      <point x="844" y="-20"/>
      <point x="1057" y="-20" type="curve" smooth="yes"/>
      <point x="1271" y="-20"/>
      <point x="1377" y="116"/>
      <point x="1377" y="280" type="curve" smooth="yes"/>
      <point x="1377" y="357" type="line" smooth="yes"/>
      <point x="1377" y="521"/>
      <point x="1271" y="657"/>
      <point x="1055" y="657" type="curve" smooth="yes"/>
      <point x="844" y="657"/>
      <point x="733" y="521"/>
      <point x="733" y="357" type="curve" smooth="yes"/>
    </contour>
    <contour>
      <point x="942" y="357" type="line" smooth="yes"/>
      <point x="942" y="419"/>
      <point x="979" y="475"/>
      <point x="1055" y="475" type="curve" smooth="yes"/>
      <point x="1131" y="475"/>
      <point x="1168" y="419"/>
      <point x="1168" y="357" type="curve" smooth="yes"/>
      <point x="1168" y="280" type="line" smooth="yes"/>
      <point x="1168" y="218"/>
      <point x="1150" y="162"/>
      <point x="1057" y="162" type="curve" smooth="yes"/>
      <point x="991" y="162"/>
      <point x="942" y="218"/>
      <point x="942" y="280" type="curve" smooth="yes"/>
    </contour>
    <contour>
      <point x="1164" y="1247" type="line"/>
      <point x="1012" y="1326" type="line"/>
      <point x="301" y="188" type="line"/>
      <point x="453" y="109" type="line"/>
    </contour>
  </outline>
</glyph>
<glyph name="ampersand" format="1">
  <advance width="1274"/>
  <unicode hex="0026"/>
  <outline>
    <contour>
      <point x="295" y="765" type="line" smooth="yes"/>
      <point x="143" y="657"/>
      <point x="36" y="560"/>
      <point x="36" y="391" type="curve" smooth="yes"/>
      <point x="36" y="150"/>
      <point x="218" y="-21"/>
      <point x="512" y="-21" type="curve" smooth="yes"/>
      <point x="688" y="-21"/>
      <point x="816" y="36"/>
      <point x="952" y="136" type="curve"/>
      <point x="960" y="140"/>
      <point x="981" y="145"/>
      <point x="989" y="149" type="curve"/>
      <point x="1163" y="285"/>
      <point x="1226" y="492"/>
      <point x="1226" y="728" type="curve"/>
      <point x="995" y="728" type="line"/>
      <point x="995" y="439"/>
      <point x="767" y="239"/>
      <point x="532" y="239" type="curve" smooth="yes"/>
      <point x="435" y="239"/>
      <point x="359" y="310"/>
      <point x="359" y="414" type="curve" smooth="yes"/>
      <point x="359" y="473"/>
      <point x="374" y="521"/>
      <point x="426" y="572" type="curve"/>
      <point x="755" y="805" type="line" smooth="yes"/>
      <point x="859" y="878"/>
      <point x="929" y="994"/>
      <point x="929" y="1127" type="curve" smooth="yes"/>
      <point x="929" y="1316"/>
      <point x="789" y="1477"/>
      <point x="571" y="1477" type="curve" smooth="yes"/>
      <point x="324" y="1477"/>
      <point x="164" y="1314"/>
      <point x="164" y="1084" type="curve" smooth="yes"/>
      <point x="164" y="936"/>
      <point x="255" y="809"/>
      <point x="394" y="634" type="curve"/>
      <point x="952" y="0" type="line"/>
      <point x="1313" y="0" type="line"/>
      <point x="628" y="788" type="line" smooth="yes"/>
      <point x="526" y="910"/>
      <point x="445" y="998"/>
      <point x="445" y="1088" type="curve" smooth="yes"/>
      <point x="445" y="1159"/>
      <point x="487" y="1217"/>
      <point x="570" y="1217" type="curve" smooth="yes"/>
      <point x="645" y="1217"/>
      <point x="688" y="1158"/>
      <point x="688" y="1103" type="curve" smooth="yes"/>
      <point x="688" y="1058"/>
      <point x="676" y="1011"/>
      <point x="593" y="958" type="curve" smooth="yes"/>
    </contour>
  </outline>
</glyph>
<glyph name="quotesingle" format="1">
  <advance width="445"/>
  <unicode hex="0027"/>
  <outline>
    <contour>
      <point x="342" y="1560" type="line"/>
      <point x="131" y="1560" type="line"/>
      <point x="131" y="1255" type="line"/>
      <point x="131" y="985" type="line"/>
      <point x="270" y="985" type="line"/>
      <point x="342" y="1268" type="line"/>
    </contour>
  </outline>
</glyph>
<glyph name="asterisk" format="1">
  <advance width="900"/>
  <unicode hex="002A"/>
  <outline>
    <contour>
      <point x="116" y="687" type="line"/>
      <point x="275" y="575" type="line"/>
      <point x="447" y="858" type="line"/>
      <point x="620" y="565" type="line"/>
      <point x="778" y="682" type="line"/>
      <point x="575" y="946" type="line"/>
      <point x="883" y="1036" type="line"/>
      <point x="824" y="1226" type="line"/>
      <point x="533" y="1099" type="line"/>
      <point x="556" y="1456" type="line"/>
      <point x="360" y="1456" type="line"/>
      <point x="381" y="1106" type="line"/>
      <point x="83" y="1236" type="line"/>
      <point x="24" y="1048" type="line"/>
      <point x="328" y="958" type="line"/>
    </contour>
  </outline>
</glyph>
<glyph name="hyphen" format="1">
  <advance width="821"/>
  <unicode hex="002D"/>
  <outline>
    <contour>
      <point x="713" y="758" type="line"/>
      <point x="124" y="758" type="line"/>
      <point x="124" y="497" type="line"/>
      <point x="713" y="497" type="line"/>
    </contour>
  </outline>
</glyph>
<glyph name="two" format="1">
  <advance width="1133"/>
  <unicode hex="0032"/>
  <outline>
    <contour>
      <point x="1076" y="260" type="line"/>
      <point x="486" y="260" type="line"/>
      <point x="709" y="477" type="line"/>
      <point x="909" y="702"/>
      <point x="1036" y="833"/>
      <point x="1036" y="1036" type="curve" smooth="yes"/>
      <point x="1036" y="1308"/>
      <point x="853" y="1477"/>
      <point x="536" y="1477" type="curve" smooth="yes"/>
      <point x="226" y="1477"/>
      <point x="36" y="1256"/>
      <point x="36" y="988" type="curve"/>
      <point x="359" y="988" type="line"/>
      <point x="359" y="1118"/>
      <point x="421" y="1217"/>
      <point x="536" y="1217" type="curve" smooth="yes"/>
      <point x="657" y="1217"/>
      <point x="713" y="1140"/>
      <point x="713" y="1033" type="curve" smooth="yes"/>
      <point x="713" y="958"/>
      <point x="664" y="854"/>
      <point x="535" y="712" type="curve" smooth="yes"/>
      <point x="66" y="220" type="line"/>
      <point x="66" y="0" type="line"/>
      <point x="1076" y="0" type="line"/>
    </contour>
    <contour>
      <point x="1076" y="0" type="line"/>
      <point x="1076" y="393" type="line"/>
      <point x="836" y="393" type="line"/>
      <point x="806" y="0" type="line"/>
    </contour>
  </outline>
</glyph>
<glyph name="three" format="1">
  <advance width="1114"/>
  <unicode hex="0033"/>
  <outline>
    <contour>
      <point x="387" y="869" type="line"/>
      <point x="387" y="697" type="line"/>
      <point x="601" y="697" type="line" smooth="yes"/>
      <point x="873" y="697"/>
      <point x="1064" y="861"/>
      <point x="1064" y="1061" type="curve" smooth="yes"/>
      <point x="1064" y="1333"/>
      <point x="856" y="1477"/>
      <point x="552" y="1477" type="curve" smooth="yes"/>
      <point x="290" y="1477"/>
      <point x="65" y="1328"/>
      <point x="65" y="1081" type="curve"/>
      <point x="387" y="1081" type="line"/>
      <point x="387" y="1166"/>
      <point x="473" y="1217"/>
      <point x="562" y="1217" type="curve" smooth="yes"/>
      <point x="685" y="1217"/>
      <point x="742" y="1141"/>
      <point x="742" y="1054" type="curve" smooth="yes"/>
      <point x="742" y="940"/>
      <point x="679" y="869"/>
      <point x="548" y="869" type="curve" smooth="yes"/>
    </contour>
    <contour>
      <point x="387" y="618" type="line"/>
      <point x="548" y="618" type="line" smooth="yes"/>
      <point x="683" y="618"/>
      <point x="765" y="562"/>
      <point x="765" y="415" type="curve" smooth="yes"/>
      <point x="765" y="317"/>
      <point x="690" y="239"/>
      <point x="562" y="239" type="curve" smooth="yes"/>
      <point x="454" y="239"/>
      <point x="367" y="311"/>
      <point x="367" y="404" type="curve"/>
      <point x="44" y="404" type="line"/>
      <point x="44" y="106"/>
      <point x="308" y="-21"/>
      <point x="552" y="-21" type="curve" smooth="yes"/>
      <point x="856" y="-21"/>
      <point x="1087" y="135"/>
      <point x="1087" y="408" type="curve" smooth="yes"/>
      <point x="1087" y="651"/>
      <point x="901" y="786"/>
      <point x="601" y="786" type="curve" smooth="yes"/>
      <point x="387" y="786" type="line"/>
    </contour>
  </outline>
</glyph>
<glyph name="eight" format="1">
  <advance width="1110"/>
  <unicode hex="0038"/>
  <outline>
    <contour>
      <point x="1066" y="401" type="curve" smooth="yes"/>
      <point x="1066" y="642"/>
      <point x="851" y="799"/>
      <point x="562" y="799" type="curve" smooth="yes"/>
      <point x="276" y="799"/>
      <point x="59" y="642"/>
      <point x="59" y="401" type="curve" smooth="yes"/>
      <point x="59" y="122"/>
      <point x="276" y="-21"/>
      <point x="564" y="-21" type="curve" smooth="yes"/>
      <point x="853" y="-21"/>
      <point x="1066" y="122"/>
    </contour>
    <contour>
      <point x="744" y="428" type="curve" smooth="yes"/>
      <point x="744" y="311"/>
      <point x="672" y="239"/>
      <point x="564" y="239" type="curve" smooth="yes"/>
      <point x="455" y="239"/>
      <point x="382" y="311"/>
      <point x="382" y="428" type="curve" smooth="yes"/>
      <point x="382" y="547"/>
      <point x="455" y="615"/>
      <point x="562" y="615" type="curve" smooth="yes"/>
      <point x="670" y="615"/>
      <point x="744" y="547"/>
    </contour>
    <contour>
      <point x="1035" y="1067" type="curve" smooth="yes"/>
      <point x="1035" y="1334"/>
      <point x="839" y="1477"/>
      <point x="562" y="1477" type="curve" smooth="yes"/>
      <point x="288" y="1477"/>
      <point x="90" y="1334"/>
      <point x="90" y="1067" type="curve" smooth="yes"/>
      <point x="90" y="839"/>
      <point x="288" y="687"/>
      <point x="564" y="687" type="curve" smooth="yes"/>
      <point x="840" y="687"/>
      <point x="1035" y="839"/>
    </contour>
    <contour>
      <point x="713" y="1049" type="curve" smooth="yes"/>
      <point x="713" y="945"/>
      <point x="662" y="875"/>
      <point x="564" y="875" type="curve" smooth="yes"/>
      <point x="466" y="875"/>
      <point x="413" y="945"/>
      <point x="413" y="1049" type="curve" smooth="yes"/>
      <point x="413" y="1154"/>
      <point x="466" y="1217"/>
      <point x="562" y="1217" type="curve" smooth="yes"/>
      <point x="660" y="1217"/>
      <point x="713" y="1152"/>
    </contour>
  </outline>
</glyph>
<glyph name="semicolon" format="1">
  <advance width="462"/>
  <unicode hex="003B"/>
  <outline>
    <contour>
      <point x="392" y="1082" type="line"/>
      <point x="70" y="1082" type="line"/>
      <point x="70" y="798" type="line"/>
      <point x="392" y="798" type="line"/>
    </contour>
    <contour>
      <point x="377" y="254" type="line"/>
      <point x="95" y="254" type="line"/>
      <point x="95" y="1" type="line" smooth="yes"/>
      <point x="95" y="-138"/>
      <point x="63" y="-231"/>
      <point x="19" y="-312" type="curve"/>
      <point x="173" y="-392" type="line"/>
      <point x="278" y="-300"/>
      <point x="376" y="-128"/>
      <point x="376" y="20" type="curve" smooth="yes"/>
    </contour>
  </outline>
</glyph>
<glyph name="greater" format="1">
  <advance width="1021"/>
  <unicode hex="003E"/>
  <outline>
    <contour>
      <point x="715" y="522" type="line"/>
      <point x="974" y="505" type="line"/>
      <point x="974" y="674" type="line"/>
      <point x="97" y="1034" type="line"/>
      <point x="97" y="728" type="line"/>
    </contour>
    <contour>
      <point x="97" y="354" type="line"/>
      <point x="97" y="48" type="line"/>
      <point x="974" y="408" type="line"/>
      <point x="974" y="576" type="line"/>
      <point x="715" y="565" type="line"/>
    </contour>
  </outline>
</glyph>
<glyph name="K" format="1">
  <advance width="1468"/>
  <unicode hex="004B"/>
  <outline>
    <contour>
      <point x="527" y="1456" type="line"/>
      <point x="204" y="1456" type="line"/>
      <point x="204" y="0" type="line"/>
      <point x="527" y="0" type="line"/>
    </contour>
    <contour>
      <point x="1417" y="1456" type="line"/>
      <point x="1018" y="1456" type="line"/>
      <point x="646" y="886" type="line"/>
      <point x="421" y="886" type="line"/>
      <point x="461" y="584" type="line"/>
      <point x="785" y="584" type="line"/>
    </contour>
    <contour>
      <point x="1053" y="0" type="line"/>
      <point x="1446" y="0" type="line"/>
      <point x="902" y="818" type="line"/>
      <point x="654" y="641" type="line"/>
    </contour>
    <contour>
      <point x="1053" y="0" type="line"/>
      <point x="1053" y="230" type="line"/>
      <point x="840" y="200" type="line"/>
      <point x="840" y="0" type="line"/>
    </contour>
    <contour>
      <point x="1446" y="0" type="line"/>
      <point x="1449" y="0" type="line"/>
      <point x="1449" y="200" type="line"/>
      <point x="1266" y="230" type="line"/>
    </contour>
    <contour>
      <point x="1018" y="1456" type="line"/>
      <point x="806" y="1456" type="line"/>
      <point x="806" y="1256" type="line"/>
      <point x="1018" y="1226" type="line"/>
    </contour>
    <contour>
      <point x="1417" y="1456" type="line"/>
      <point x="1237" y="1226" type="line"/>
      <point x="1421" y="1256" type="line"/>
      <point x="1421" y="1456" type="line"/>
    </contour>
    <contour>
      <point x="204" y="0" type="line"/>
      <point x="204" y="230" type="line"/>
      <point x="51" y="200" type="line"/>
      <point x="51" y="0" type="line"/>
    </contour>
    <contour>
      <point x="527" y="0" type="line"/>
      <point x="670" y="0" type="line"/>
      <point x="670" y="200" type="line"/>
      <point x="527" y="230" type="line"/>
    </contour>
    <contour>
      <point x="527" y="1456" type="line"/>
      <point x="527" y="1226" type="line"/>
      <point x="670" y="1256" type="line"/>
      <point x="670" y="1456" type="line"/>
    </contour>
    <contour>
      <point x="204" y="1456" type="line"/>
      <point x="51" y="1456" type="line"/>
      <point x="51" y="1256" type="line"/>
      <point x="204" y="1226" type="line"/>
    </contour>
  </outline>
</glyph>
<glyph name="N" format="1">
  <advance width="1589"/>
  <unicode hex="004E"/>
  <outline>
    <contour>
      <point x="1302" y="151" type="line"/>
      <point x="527" y="1456" type="line"/>
      <point x="310" y="1305" type="line"/>
      <point x="1084" y="0" type="line"/>
    </contour>
    <contour>
      <point x="527" y="1456" type="line"/>
      <point x="204" y="1456" type="line"/>
      <point x="204" y="0" type="line"/>
      <point x="527" y="0" type="line"/>
    </contour>
    <contour>
      <point x="1406" y="1456" type="line"/>
      <point x="1084" y="1456" type="line"/>
      <point x="1084" y="0" type="line"/>
      <point x="1406" y="0" type="line"/>
    </contour>
    <contour>
      <point x="1406" y="1456" type="line"/>
      <point x="1406" y="1226" type="line"/>
      <point x="1559" y="1256" type="line"/>
      <point x="1559" y="1456" type="line"/>
    </contour>
    <contour>
      <point x="1084" y="1456" type="line"/>
      <point x="931" y="1456" type="line"/>
      <point x="931" y="1256" type="line"/>
      <point x="1084" y="1226" type="line"/>
    </contour>
    <contour>
      <point x="527" y="0" type="line"/>
      <point x="680" y="0" type="line"/>
      <point x="680" y="200" type="line"/>
      <point x="527" y="230" type="line"/>
    </contour>
    <contour>
      <point x="204" y="0" type="line"/>
      <point x="204" y="230" type="line"/>
      <point x="51" y="200" type="line"/>
      <point x="51" y="0" type="line"/>
    </contour>
    <contour>
      <point x="204" y="1456" type="line"/>
      <point x="51" y="1456" type="line"/>
      <point x="51" y="1256" type="line"/>
      <point x="204" y="1226" type="line"/>
    </contour>
  </outline>
</glyph>
<glyph name="a" format="1">
  <advance width="1125"/>
  <unicode hex="0061"/>
  <outline>
    <contour>
      <point x="681" y="272" type="line" smooth="yes"/>
      <point x="681" y="175"/>
      <point x="705" y="73"/>
      <point x="739" y="1" type="curve"/>
      <point x="1059" y="0" type="line"/>
      <point x="1024" y="94"/>
      <point x="1004" y="189"/>
      <point x="1004" y="308" type="curve" smooth="yes"/>
      <point x="1004" y="716" type="line" smooth="yes"/>
      <point x="1004" y="973"/>
      <point x="805" y="1102"/>
      <point x="539" y="1102" type="curve" smooth="yes"/>
      <point x="360" y="1102"/>
      <point x="220" y="1030"/>
      <point x="130" y="976" type="curve"/>
      <point x="129" y="719" type="line"/>
      <point x="371" y="719" type="line"/>
      <point x="389" y="838" type="line"/>
      <point x="411" y="845"/>
      <point x="455" y="861"/>
      <point x="518" y="861" type="curve" smooth="yes"/>
      <point x="630" y="861"/>
      <point x="681" y="809"/>
      <point x="681" y="718" type="curve" smooth="yes"/>
    </contour>
    <contour>
      <point x="721" y="621" type="line"/>
      <point x="549" y="621" type="line" smooth="yes"/>
      <point x="221" y="621"/>
      <point x="64" y="502"/>
      <point x="64" y="305" type="curve" smooth="yes"/>
      <point x="64" y="107"/>
      <point x="206" y="-21"/>
      <point x="411" y="-21" type="curve" smooth="yes"/>
      <point x="618" y="-21"/>
      <point x="720" y="97"/>
      <point x="769" y="194" type="curve"/>
      <point x="704" y="352" type="line"/>
      <point x="704" y="297"/>
      <point x="623" y="220"/>
      <point x="506" y="220" type="curve" smooth="yes"/>
      <point x="435" y="220"/>
      <point x="386" y="262"/>
      <point x="386" y="323" type="curve" smooth="yes"/>
      <point x="386" y="385"/>
      <point x="431" y="451"/>
      <point x="551" y="451" type="curve" smooth="yes"/>
      <point x="723" y="451" type="line"/>
    </contour>
    <contour>
      <point x="1059" y="0" type="line"/>
      <point x="1102" y="0" type="line"/>
      <point x="1102" y="200" type="line"/>
      <point x="879" y="230" type="line"/>
    </contour>
  </outline>
</glyph>
<glyph name="p" format="1">
  <advance width="1240"/>
  <unicode hex="0070"/>
  <outline>
    <contour>
      <point x="509" y="874" type="line"/>
      <point x="487" y="1082" type="line"/>
      <point x="187" y="1082" type="line"/>
      <point x="187" y="-416" type="line"/>
      <point x="509" y="-416" type="line"/>
    </contour>
    <contour>
      <point x="1180" y="539" type="line" smooth="yes"/>
      <point x="1180" y="868"/>
      <point x="1033" y="1102"/>
      <point x="758" y="1102" type="curve" smooth="yes"/>
      <point x="510" y="1102"/>
      <point x="409" y="848"/>
      <point x="369" y="535" type="curve"/>
      <point x="369" y="508" type="line"/>
      <point x="409" y="216"/>
      <point x="510" y="-21"/>
      <point x="760" y="-21" type="curve" smooth="yes"/>
      <point x="1033" y="-21"/>
      <point x="1180" y="203"/>
      <point x="1180" y="518" type="curve" smooth="yes"/>
    </contour>
    <contour>
      <point x="858" y="518" type="line" smooth="yes"/>
      <point x="858" y="356"/>
      <point x="814" y="239"/>
      <point x="679" y="239" type="curve" smooth="yes"/>
      <point x="530" y="239"/>
      <point x="469" y="328"/>
      <point x="469" y="480" type="curve" smooth="yes"/>
      <point x="469" y="562" type="line" smooth="yes"/>
      <point x="469" y="738"/>
      <point x="530" y="842"/>
      <point x="677" y="842" type="curve" smooth="yes"/>
      <point x="810" y="842"/>
      <point x="858" y="707"/>
      <point x="858" y="539" type="curve" smooth="yes"/>
    </contour>
    <contour>
      <point x="509" y="-416" type="line"/>
      <point x="642" y="-416" type="line"/>
      <point x="642" y="-216" type="line"/>
      <point x="509" y="-186" type="line"/>
    </contour>
    <contour>
      <point x="187" y="1082" type="line"/>
      <point x="34" y="1082" type="line"/>
      <point x="34" y="882" type="line"/>
      <point x="187" y="852" type="line"/>
    </contour>
    <contour>
      <point x="187" y="-416" type="line"/>
      <point x="187" y="-186" type="line"/>
      <point x="54" y="-216" type="line"/>
      <point x="54" y="-416" type="line"/>
    </contour>
  </outline>
</glyph>
<glyph name="y" format="1">
  <advance width="1229"/>
  <unicode hex="0079"/>
  <outline>
    <contour>
      <point x="516" y="127" type="line"/>
      <point x="435" y="-82" type="line" smooth="yes"/>
      <point x="414" y="-140"/>
      <point x="375" y="-176"/>
      <point x="263" y="-176" type="curve" smooth="yes"/>
      <point x="248" y="-176"/>
      <point x="235" y="-174"/>
      <point x="219" y="-170" type="curve"/>
      <point x="180" y="-411" type="line"/>
      <point x="235" y="-426"/>
      <point x="274" y="-437"/>
      <point x="335" y="-437" type="curve" smooth="yes"/>
      <point x="590" y="-437"/>
      <point x="666" y="-269"/>
      <point x="709" y="-161" type="curve" smooth="yes"/>
      <point x="1183" y="1082" type="line"/>
      <point x="838" y="1082" type="line"/>
    </contour>
    <contour>
      <point x="391" y="1082" type="line"/>
      <point x="46" y="1082" type="line"/>
      <point x="472" y="-32" type="line"/>
      <point x="688" y="-31" type="line"/>
      <point x="599" y="477" type="line"/>
    </contour>
    <contour>
      <point x="1183" y="1082" type="line"/>
      <point x="1003" y="852" type="line"/>
      <point x="1206" y="882" type="line"/>
      <point x="1206" y="1082" type="line"/>
    </contour>
    <contour>
      <point x="838" y="1082" type="line"/>
      <point x="645" y="1082" type="line"/>
      <point x="645" y="882" type="line"/>
      <point x="838" y="852" type="line"/>
    </contour>
    <contour>
      <point x="46" y="1082" type="line"/>
      <point x="23" y="1082" type="line"/>
      <point x="23" y="882" type="line"/>
      <point x="226" y="852" type="line"/>
    </contour>
    <contour>
      <point x="391" y="1082" type="line"/>
      <point x="391" y="852" type="line"/>
      <point x="584" y="882" type="line"/>
      <point x="584" y="1082" type="line"/>
    </contour>
  </outline>
</glyph>
<glyph name="braceleft" format="1">
  <advance width="638"/>
  <unicode hex="007B"/>
  <outline>
    <contour>
      <point x="559" y="1597" type="line"/>
      <point x="284" y="1520"/>
      <point x="199" y="1342"/>
      <point x="199" y="1132" type="curve" smooth="yes"/>
      <point x="199" y="929" type="line" smooth="yes"/>
      <point x="199" y="809"/>
      <point x="150" y="732"/>
      <point x="32" y="732" type="curve"/>
      <point x="32" y="566" type="line"/>
      <point x="350" y="566"/>
      <point x="481" y="726"/>
      <point x="481" y="929" type="curve" smooth="yes"/>
      <point x="481" y="1132" type="line" smooth="yes"/>
      <point x="481" y="1268"/>
      <point x="511" y="1380"/>
      <point x="620" y="1421" type="curve"/>
    </contour>
    <contour>
      <point x="620" y="-183" type="line"/>
      <point x="511" y="-142"/>
      <point x="481" y="-30"/>
      <point x="481" y="106" type="curve" smooth="yes"/>
      <point x="481" y="309" type="line" smooth="yes"/>
      <point x="481" y="512"/>
      <point x="350" y="672"/>
      <point x="32" y="672" type="curve"/>
      <point x="32" y="505" type="line"/>
      <point x="150" y="505"/>
      <point x="199" y="428"/>
      <point x="199" y="309" type="curve" smooth="yes"/>
      <point x="199" y="106" type="line" smooth="yes"/>
      <point x="199" y="-104"/>
      <point x="284" y="-283"/>
      <point x="559" y="-360" type="curve"/>
    </contour>
  </outline>
</glyph>
<glyph name="currency" format="1">
  <advance width="1423"/>
  <unicode hex="00A4"/>
  <outline>
    <contour>
      <point x="299" y="608" type="curve" smooth="yes"/>
      <point x="299" y="854"/>
      <point x="481" y="1042"/>
      <point x="709" y="1042" type="curve" smooth="yes"/>
      <point x="935" y="1042"/>
      <point x="1118" y="854"/>
      <point x="1118" y="608" type="curve" smooth="yes"/>
      <point x="1118" y="362"/>
      <point x="935" y="173"/>
      <point x="709" y="173" type="curve" smooth="yes"/>
      <point x="481" y="173"/>
      <point x="299" y="362"/>
    </contour>
    <contour>
      <point x="113" y="608" type="curve" smooth="yes"/>
      <point x="113" y="254"/>
      <point x="380" y="-20"/>
      <point x="709" y="-20" type="curve" smooth="yes"/>
      <point x="1037" y="-20"/>
      <point x="1303" y="254"/>
      <point x="1303" y="608" type="curve" smooth="yes"/>
      <point x="1303" y="963"/>
      <point x="1037" y="1234"/>
      <point x="709" y="1234" type="curve" smooth="yes"/>
      <point x="380" y="1234"/>
      <point x="113" y="963"/>
    </contour>
    <contour>
      <point x="1344" y="1120" type="line"/>
      <point x="1202" y="1265" type="line"/>
      <point x="1001" y="1059" type="line"/>
      <point x="1142" y="914" type="line"/>
    </contour>
    <contour>
      <point x="421" y="180" type="line"/>
      <point x="280" y="323" type="line"/>
      <point x="78" y="118" type="line"/>
      <point x="219" y="-26" type="line"/>
    </contour>
    <contour>
      <point x="1202" y="-27" type="line"/>
      <point x="1344" y="118" type="line"/>
      <point x="1142" y="323" type="line"/>
      <point x="1001" y="179" type="line"/>
    </contour>
    <contour>
      <point x="280" y="914" type="line"/>
      <point x="421" y="1058" type="line"/>
      <point x="219" y="1264" type="line"/>
      <point x="78" y="1120" type="line"/>
    </contour>
  </outline>
</glyph>
<glyph name="guillemotleft" format="1">
  <advance width="958"/>
  <unicode hex="00AB"/>
  <outline>
    <contour>
      <point x="461" y="914" type="line"/>
      <point x="261" y="914" type="line"/>
      <point x="-14" y="524" type="line"/>
      <point x="-14" y="511" type="line"/>
      <point x="224" y="510" type="line"/>
    </contour>
    <contour>
      <point x="224" y="519" type="line"/>
      <point x="-14" y="518" type="line"/>
      <point x="-14" y="505" type="line"/>
      <point x="261" y="115" type="line"/>
      <point x="461" y="115" type="line"/>
    </contour>
    <contour>
      <point x="876" y="914" type="line"/>
      <point x="676" y="914" type="line"/>
      <point x="401" y="524" type="line"/>
      <point x="401" y="511" type="line"/>
      <point x="639" y="510" type="line"/>
    </contour>
    <contour>
      <point x="639" y="519" type="line"/>
      <point x="401" y="518" type="line"/>
      <point x="401" y="505" type="line"/>
      <point x="676" y="115" type="line"/>
      <point x="876" y="115" type="line"/>
    </contour>
  </outline>
</glyph>
<glyph name="degree" format="1">
  <advance width="741"/>
  <unicode hex="00B0"/>
  <outline>
    <contour>
      <point x="100" y="1197" type="curve" smooth="yes"/>
      <point x="100" y="1043"/>
      <point x="226" y="920"/>
      <point x="378" y="920" type="curve" smooth="yes"/>
      <point x="528" y="920"/>
      <point x="651" y="1043"/>
      <point x="651" y="1197" type="curve" smooth="yes"/>
      <point x="651" y="1351"/>
      <point x="528" y="1478"/>
      <point x="378" y="1478" type="curve" smooth="yes"/>
      <point x="226" y="1478"/>
      <point x="100" y="1351"/>
    </contour>
    <contour>
      <point x="252" y="1197" type="curve" smooth="yes"/>
      <point x="252" y="1270"/>
      <point x="310" y="1325"/>
      <point x="378" y="1325" type="curve" smooth="yes"/>
      <point x="446" y="1325"/>
      <point x="499" y="1270"/>
      <point x="499" y="1197" type="curve" smooth="yes"/>
      <point x="499" y="1125"/>
      <point x="446" y="1073"/>
      <point x="378" y="1073" type="curve" smooth="yes"/>
      <point x="310" y="1073"/>
      <point x="252" y="1126"/>
    </contour>
  </outline>
</glyph>
<glyph name="twosuperior" format="1">
  <advance width="821"/>
  <unicode hex="00B2"/>
  <outline>
    <contour>
      <point x="346" y="799" type="line"/>
      <point x="485" y="913" type="line" smooth="yes"/>
      <point x="621" y="1021"/>
      <point x="725" y="1107"/>
      <point x="725" y="1230" type="curve" smooth="yes"/>
      <point x="725" y="1387"/>
      <point x="616" y="1479"/>
      <point x="419" y="1479" type="curve" smooth="yes"/>
      <point x="214" y="1479"/>
      <point x="88" y="1357"/>
      <point x="88" y="1209" type="curve"/>
      <point x="310" y="1209" type="line"/>
      <point x="310" y="1269"/>
      <point x="342" y="1313"/>
      <point x="412" y="1313" type="curve" smooth="yes"/>
      <point x="479" y="1313"/>
      <point x="503" y="1273"/>
      <point x="503" y="1231" type="curve" smooth="yes"/>
      <point x="503" y="1188"/>
      <point x="498" y="1150"/>
      <point x="413" y="1081" type="curve" smooth="yes"/>
      <point x="101" y="834" type="line"/>
    </contour>
    <contour>
      <point x="733" y="834" type="line"/>
      <point x="101" y="834" type="line"/>
      <point x="101" y="667" type="line"/>
      <point x="733" y="667" type="line"/>
    </contour>
  </outline>
</glyph>
<glyph name="mu" format="1">
  <advance width="1358"/>
  <unicode hex="00B5"/>
  <outline>
    <contour>
      <point x="884" y="1082" type="line"/>
      <point x="884" y="250" type="line"/>
      <point x="904" y="0" type="line"/>
      <point x="1206" y="0" type="line"/>
      <point x="1206" y="1082" type="line"/>
    </contour>
    <contour>
      <point x="921" y="503" type="line"/>
      <point x="921" y="354"/>
      <point x="865" y="243"/>
      <point x="696" y="243" type="curve" smooth="yes"/>
      <point x="591" y="243"/>
      <point x="527" y="283"/>
      <point x="527" y="462" type="curve"/>
      <point x="383" y="216" type="line"/>
      <point x="437" y="51"/>
      <point x="542" y="-21"/>
      <point x="684" y="-21" type="curve" smooth="yes"/>
      <point x="929" y="-21"/>
      <point x="1053" y="202"/>
      <point x="1053" y="505" type="curve"/>
    </contour>
    <contour>
      <point x="205" y="1082" type="line"/>
      <point x="205" y="-416" type="line"/>
      <point x="527" y="-416" type="line"/>
      <point x="527" y="1082" type="line"/>
    </contour>
    <contour>
      <point x="205" y="1082" type="line"/>
      <point x="52" y="1082" type="line"/>
      <point x="52" y="882" type="line"/>
      <point x="205" y="852" type="line"/>
    </contour>
    <contour>
      <point x="1206" y="0" type="line"/>
      <point x="1339" y="0" type="line"/>
      <point x="1339" y="200" type="line"/>
      <point x="1206" y="230" type="line"/>
    </contour>
    <contour>
      <point x="884" y="1082" type="line"/>
      <point x="731" y="1082" type="line"/>
      <point x="731" y="882" type="line"/>
      <point x="884" y="852" type="line"/>
    </contour>
  </outline>
</glyph>
<glyph name="periodcentered" format="1">
  <advance width="565"/>
  <unicode hex="00B7"/>
  <outline>
    <contour>
      <point x="463" y="823" type="line"/>
      <point x="141" y="823" type="line"/>
      <point x="141" y="539" type="line"/>
      <point x="463" y="539" type="line"/>
    </contour>
  </outline>
</glyph>
<glyph name="cedilla" format="1">
  <advance width="511"/>
  <unicode hex="00B8"/>
  <outline>
    <contour>
      <point x="108" y="10" type="line"/>
      <point x="77" y="-136" type="line"/>
      <point x="174" y="-142"/>
      <point x="214" y="-158"/>
      <point x="214" y="-209" type="curve" smooth="yes"/>
      <point x="214" y="-264"/>
      <point x="174" y="-286"/>
      <point x="118" y="-286" type="curve"/>
      <point x="125" y="-472" type="line"/>
      <point x="365" y="-472"/>
      <point x="491" y="-373"/>
      <point x="491" y="-224" type="curve" smooth="yes"/>
      <point x="491" y="-109"/>
      <point x="415" y="-64"/>
      <point x="341" y="-51" type="curve"/>
      <point x="352" y="10" type="line"/>
    </contour>
  </outline>
</glyph>
<glyph name="onehalf" format="1">
  <advance width="1449"/>
  <unicode hex="00BD"/>
  <outline>
    <contour>
      <point x="1069" y="1255" type="line"/>
      <point x="917" y="1334" type="line"/>
      <point x="206" y="196" type="line"/>
      <point x="358" y="117" type="line"/>
    </contour>
    <contour>
      <point x="423" y="1476" type="line"/>
      <point x="74" y="1453" type="line"/>
      <point x="74" y="1283" type="line"/>
      <point x="201" y="1283" type="line"/>
      <point x="201" y="664" type="line"/>
      <point x="423" y="664" type="line"/>
    </contour>
    <contour>
      <point x="1040" y="132" type="line"/>
      <point x="1179" y="246" type="line" smooth="yes"/>
      <point x="1315" y="354"/>
      <point x="1419" y="440"/>
      <point x="1419" y="563" type="curve" smooth="yes"/>
      <point x="1419" y="720"/>
      <point x="1310" y="812"/>
      <point x="1113" y="812" type="curve" smooth="yes"/>
      <point x="908" y="812"/>
      <point x="782" y="690"/>
      <point x="782" y="542" type="curve"/>
      <point x="1004" y="542" type="line"/>
      <point x="1004" y="602"/>
      <point x="1036" y="646"/>
      <point x="1106" y="646" type="curve" smooth="yes"/>
      <point x="1173" y="646"/>
      <point x="1197" y="606"/>
      <point x="1197" y="564" type="curve" smooth="yes"/>
      <point x="1197" y="521"/>
      <point x="1192" y="483"/>
      <point x="1107" y="414" type="curve" smooth="yes"/>
      <point x="795" y="167" type="line"/>
    </contour>
    <contour>
      <point x="1427" y="167" type="line"/>
      <point x="795" y="167" type="line"/>
      <point x="795" y="0" type="line"/>
      <point x="1427" y="0" type="line"/>
    </contour>
  </outline>
</glyph>
<glyph name="questiondown" format="1">
  <advance width="963"/>
  <unicode hex="00BF"/>
  <outline>
    <contour>
      <point x="410" y="666" type="line"/>
      <point x="410" y="559"/>
      <point x="391" y="501"/>
      <point x="304" y="444" type="curve"/>
      <point x="162" y="368"/>
      <point x="41" y="222"/>
      <point x="41" y="49" type="curve" smooth="yes"/>
      <point x="41" y="-222"/>
      <point x="228" y="-395"/>
      <point x="542" y="-395" type="curve" smooth="yes"/>
      <point x="814" y="-395"/>
      <point x="1026" y="-270"/>
      <point x="1030" y="28" type="curve"/>
      <point x="707" y="28" type="line"/>
      <point x="704" y="-87"/>
      <point x="626" y="-135"/>
      <point x="542" y="-135" type="curve" smooth="yes"/>
      <point x="425" y="-135"/>
      <point x="364" y="-60"/>
      <point x="364" y="49" type="curve" smooth="yes"/>
      <point x="364" y="161"/>
      <point x="428" y="242"/>
      <point x="512" y="296" type="curve" smooth="yes"/>
      <point x="661" y="402"/>
      <point x="730" y="464"/>
      <point x="732" y="666" type="curve"/>
    </contour>
    <contour>
      <point x="410" y="812" type="line"/>
      <point x="732" y="812" type="line"/>
      <point x="732" y="1082" type="line"/>
      <point x="410" y="1082" type="line"/>
    </contour>
  </outline>
</glyph>
<glyph name="AE" format="1">
  <advance width="2030"/>
  <unicode hex="00C6"/>
  <outline>
    <contour>
      <point x="1086" y="1298" type="line"/>
      <point x="1049" y="1456" type="line"/>
      <point x="846" y="1456" type="line"/>
      <point x="95" y="0" type="line"/>
      <point x="469" y="0" type="line"/>
    </contour>
    <contour>
      <point x="1174" y="609" type="line"/>
      <point x="462" y="609" type="line"/>
      <point x="462" y="359" type="line"/>
      <point x="1174" y="359" type="line"/>
    </contour>
    <contour>
      <point x="1939" y="264" type="line"/>
      <point x="1207" y="264" type="line"/>
      <point x="1207" y="0" type="line"/>
      <point x="1939" y="0" type="line"/>
    </contour>
    <contour>
      <point x="1303" y="1456" type="line"/>
      <point x="981" y="1456" type="line"/>
      <point x="1042" y="0" type="line"/>
      <point x="1364" y="0" type="line"/>
    </contour>
    <contour>
      <point x="1797" y="876" type="line"/>
      <point x="1166" y="876" type="line"/>
      <point x="1166" y="612" type="line"/>
      <point x="1797" y="612" type="line"/>
    </contour>
    <contour>
      <point x="1878" y="1456" type="line"/>
      <point x="1146" y="1456" type="line"/>
      <point x="1146" y="1192" type="line"/>
      <point x="1878" y="1192" type="line"/>
    </contour>
    <contour>
      <point x="1042" y="0" type="line"/>
      <point x="1042" y="230" type="line"/>
      <point x="889" y="200" type="line"/>
      <point x="889" y="0" type="line"/>
    </contour>
    <contour>
      <point x="469" y="0" type="line"/>
      <point x="652" y="0" type="line"/>
      <point x="652" y="200" type="line"/>
      <point x="469" y="230" type="line"/>
    </contour>
    <contour>
      <point x="1878" y="1456" type="line"/>
      <point x="1608" y="1456" type="line"/>
      <point x="1637" y="1063" type="line"/>
      <point x="1878" y="1063" type="line"/>
    </contour>
    <contour>
      <point x="1939" y="0" type="line"/>
      <point x="1939" y="393" type="line"/>
      <point x="1699" y="393" type="line"/>
      <point x="1669" y="0" type="line"/>
    </contour>
    <contour>
      <point x="95" y="0" type="line"/>
      <point x="275" y="230" type="line"/>
      <point x="72" y="200" type="line"/>
      <point x="72" y="0" type="line"/>
    </contour>
  </outline>
</glyph>
<glyph name="Thorn" format="1">
  <advance width="1316"/>
  <unicode hex="00DE"/>
  <outline>
    <contour>
      <point x="220" y="1456" type="line"/>
      <point x="220" y="0" type="line"/>
      <point x="543" y="0" type="line"/>
      <point x="543" y="1456" type="line"/>
    </contour>
    <contour>
      <point x="322" y="1198" type="line"/>
      <point x="543" y="938" type="line"/>
      <point x="749" y="938" type="line" smooth="yes"/>
      <point x="914" y="938"/>
      <point x="979" y="842"/>
      <point x="979" y="736" type="curve" smooth="yes"/>
      <point x="979" y="632"/>
      <point x="914" y="538"/>
      <point x="749" y="538" type="curve" smooth="yes"/>
      <point x="502" y="538" type="line"/>
      <point x="502" y="278" type="line"/>
      <point x="749" y="278" type="line" smooth="yes"/>
      <point x="1107" y="278"/>
      <point x="1302" y="470"/>
      <point x="1302" y="738" type="curve" smooth="yes"/>
      <point x="1302" y="1007"/>
      <point x="1107" y="1198"/>
      <point x="749" y="1198" type="curve" smooth="yes"/>
    </contour>
    <contour>
      <point x="543" y="0" type="line"/>
      <point x="696" y="0" type="line"/>
      <point x="696" y="200" type="line"/>
      <point x="543" y="230" type="line"/>
    </contour>
    <contour>
      <point x="543" y="1456" type="line"/>
      <point x="543" y="1226" type="line"/>
      <point x="696" y="1256" type="line"/>
      <point x="696" y="1456" type="line"/>
    </contour>
    <contour>
      <point x="220" y="1456" type="line"/>
      <point x="67" y="1456" type="line"/>
      <point x="67" y="1256" type="line"/>
      <point x="220" y="1226" type="line"/>
    </contour>
    <contour>
      <point x="220" y="0" type="line"/>
      <point x="220" y="230" type="line"/>
      <point x="67" y="200" type="line"/>
      <point x="67" y="0" type="line"/>
    </contour>
  </outline>
</glyph>
<glyph name="longs" format="1">
  <advance width="759"/>
  <unicode hex="017F"/>
  <outline>
    <contour>
      <point x="495" y="0" type="line"/>
      <point x="495" y="1194" type="line" smooth="yes"/>
      <point x="495" y="1276"/>
      <point x="544" y="1321"/>
      <point x="632" y="1321" type="curve" smooth="yes"/>
      <point x="676" y="1321"/>
      <point x="701" y="1317"/>
      <point x="732" y="1311" type="curve"/>
      <point x="756" y="1560" type="line"/>
      <point x="700" y="1572"/>
      <point x="647" y="1581"/>
      <point x="591" y="1581" type="curve" smooth="yes"/>
      <point x="328" y="1581"/>
      <point x="173" y="1445"/>
      <point x="173" y="1194" type="curve" smooth="yes"/>
      <point x="173" y="0" type="line"/>
    </contour>
    <contour>
      <point x="173" y="0" type="line"/>
      <point x="173" y="230" type="line"/>
      <point x="40" y="200" type="line"/>
      <point x="40" y="0" type="line"/>
    </contour>
    <contour>
      <point x="495" y="0" type="line"/>
      <point x="648" y="0" type="line"/>
      <point x="648" y="200" type="line"/>
      <point x="495" y="230" type="line"/>
    </contour>
  </outline>
</glyph>
<glyph name="breve" format="1">
  <advance width="885"/>
  <unicode hex="02D8"/>
  <outline>
    <contour>
      <point x="595" y="1456" type="line"/>
      <point x="595" y="1390"/>
      <point x="558" y="1329"/>
      <point x="456" y="1329" type="curve" smooth="yes"/>
      <point x="353" y="1329"/>
      <point x="315" y="1390"/>
      <point x="315" y="1456" type="curve"/>
      <point x="93" y="1456" type="line"/>
      <point x="93" y="1275"/>
      <point x="233" y="1149"/>
      <point x="456" y="1149" type="curve" smooth="yes"/>
      <point x="678" y="1149"/>
      <point x="818" y="1275"/>
      <point x="818" y="1456" type="curve"/>
    </contour>
  </outline>
</glyph>
<glyph name="ring" format="1">
  <advance width="643"/>
  <unicode hex="02DA"/>
  <outline>
    <contour>
      <point x="106" y="1294" type="curve" smooth="yes"/>
      <point x="106" y="1185"/>
      <point x="200" y="1105"/>
      <point x="320" y="1105" type="curve" smooth="yes"/>
      <point x="439" y="1105"/>
      <point x="531" y="1184"/>
      <point x="531" y="1294" type="curve" smooth="yes"/>
      <point x="531" y="1403"/>
      <point x="439" y="1487"/>
      <point x="320" y="1487" type="curve" smooth="yes"/>
      <point x="200" y="1487"/>
      <point x="106" y="1403"/>
    </contour>
    <contour>
      <point x="225" y="1294" type="curve" smooth="yes"/>
      <point x="225" y="1352"/>
      <point x="266" y="1390"/>
      <point x="320" y="1390" type="curve" smooth="yes"/>
      <point x="375" y="1390"/>
      <point x="411" y="1352"/>
      <point x="411" y="1294" type="curve" smooth="yes"/>
      <point x="411" y="1238"/>
      <point x="375" y="1200"/>
      <point x="320" y="1200" type="curve" smooth="yes"/>
      <point x="266" y="1200"/>
      <point x="225" y="1238"/>
    </contour>
  </outline>
</glyph>
<glyph name="tilde" format="1">
  <advance width="951"/>
  <unicode hex="02DC"/>
  <outline>
    <contour>
      <point x="699" y="1531" type="line"/>
      <point x="699" y="1470"/>
      <point x="662" y="1421"/>
      <point x="618" y="1421" type="curve" smooth="yes"/>
      <point x="513" y="1421"/>
      <point x="423" y="1504"/>
      <point x="311" y="1504" type="curve" smooth="yes"/>
      <point x="188" y="1504"/>
      <point x="102" y="1393"/>
      <point x="102" y="1271" type="curve"/>
      <point x="273" y="1221" type="line"/>
      <point x="273" y="1282"/>
      <point x="308" y="1331"/>
      <point x="352" y="1331" type="curve" smooth="yes"/>
      <point x="462" y="1331"/>
      <point x="525" y="1247"/>
      <point x="659" y="1247" type="curve" smooth="yes"/>
      <point x="783" y="1247"/>
      <point x="869" y="1356"/>
      <point x="869" y="1480" type="curve"/>
    </contour>
  </outline>
</glyph>
<glyph name="hungarumlaut" format="1">
  <advance width="987"/>
  <unicode hex="02DD"/>
  <outline>
    <contour>
      <point x="453" y="1252" type="line"/>
      <point x="694" y="1252" type="line"/>
      <point x="980" y="1518" type="line"/>
      <point x="698" y="1518" type="line"/>
    </contour>
    <contour>
      <point x="86" y="1252" type="line"/>
      <point x="327" y="1252" type="line"/>
      <point x="572" y="1518" type="line"/>
      <point x="290" y="1518" type="line"/>
    </contour>
  </outline>
</glyph>
<glyph name="acutecomb" format="1">
  <advance width="526"/>
  <unicode hex="0301"/>
  <outline>
    <contour>
      <point x="85" y="1199" type="line"/>
      <point x="276" y="1199" type="line"/>
      <point x="469" y="1492" type="line"/>
      <point x="223" y="1492" type="line"/>
    </contour>
  </outline>
</glyph>
<glyph name="tildecomb" format="1">
  <advance width="951"/>
  <unicode hex="0303"/>
  <outline>
    <contour>
      <point x="-355" y="1531" type="line"/>
      <point x="-355" y="1470"/>
      <point x="-392" y="1421"/>
      <point x="-436" y="1421" type="curve" smooth="yes"/>
      <point x="-541" y="1421"/>
      <point x="-631" y="1504"/>
      <point x="-743" y="1504" type="curve" smooth="yes"/>
      <point x="-866" y="1504"/>
      <point x="-952" y="1393"/>
      <point x="-952" y="1271" type="curve"/>
      <point x="-781" y="1221" type="line"/>
      <point x="-781" y="1282"/>
      <point x="-746" y="1331"/>
      <point x="-702" y="1331" type="curve" smooth="yes"/>
      <point x="-592" y="1331"/>
      <point x="-529" y="1247"/>
      <point x="-395" y="1247" type="curve" smooth="yes"/>
      <point x="-271" y="1247"/>
      <point x="-185" y="1356"/>
      <point x="-185" y="1480" type="curve"/>
    </contour>
  </outline>
</glyph>
<glyph name="tonos" format="1">
  <advance width="521"/>
  <unicode hex="0384"/>
  <outline>
    <contour>
      <point x="127" y="1272" type="line"/>
      <point x="288" y="1272" type="line"/>
      <point x="509" y="1618" type="line"/>
      <point x="208" y="1618" type="line"/>
    </contour>
  </outline>
</glyph>
<glyph name="Delta" format="1">
  <advance width="1469"/>
  <unicode hex="0394"/>
  <outline>
    <contour>
      <point x="841" y="1337" type="line"/>
      <point x="753" y="1456" type="line"/>
      <point x="578" y="1456" type="line"/>
      <point x="6" y="0" type="line"/>
      <point x="345" y="0" type="line"/>
    </contour>
    <contour>
      <point x="1153" y="0" type="line"/>
      <point x="1492" y="0" type="line"/>
      <point x="920" y="1456" type="line"/>
      <point x="745" y="1456" type="line"/>
      <point x="653" y="1346" type="line"/>
    </contour>
    <contour>
      <point x="1183" y="260" type="line"/>
      <point x="268" y="260" type="line"/>
      <point x="268" y="0" type="line"/>
      <point x="1183" y="0" type="line"/>
    </contour>
  </outline>
</glyph>
<glyph name="Theta" format="1">
  <advance width="1398"/>
  <unicode hex="0398"/>
  <outline>
    <contour>
      <point x="871" y="848" type="line"/>
      <point x="534" y="848" type="line"/>
      <point x="534" y="589" type="line"/>
      <point x="871" y="589" type="line"/>
    </contour>
    <contour>
      <point x="1390" y="739" type="line" smooth="yes"/>
      <point x="1390" y="1159"/>
      <point x="1129" y="1477"/>
      <point x="724" y="1477" type="curve" smooth="yes"/>
      <point x="319" y="1477"/>
      <point x="60" y="1159"/>
      <point x="60" y="739" type="curve" smooth="yes"/>
      <point x="60" y="717" type="line" smooth="yes"/>
      <point x="60" y="297"/>
      <point x="321" y="-21"/>
      <point x="726" y="-21" type="curve" smooth="yes"/>
      <point x="1131" y="-21"/>
      <point x="1390" y="297"/>
      <point x="1390" y="717" type="curve" smooth="yes"/>
    </contour>
    <contour>
      <point x="1068" y="717" type="line" smooth="yes"/>
      <point x="1068" y="450"/>
      <point x="971" y="239"/>
      <point x="726" y="239" type="curve" smooth="yes"/>
      <point x="479" y="239"/>
      <point x="382" y="450"/>
      <point x="382" y="717" type="curve" smooth="yes"/>
      <point x="382" y="741" type="line" smooth="yes"/>
      <point x="382" y="1008"/>
      <point x="477" y="1217"/>
      <point x="724" y="1217" type="curve" smooth="yes"/>
      <point x="969" y="1217"/>
      <point x="1068" y="1008"/>
      <point x="1068" y="741" type="curve" smooth="yes"/>
    </contour>
  </outline>
</glyph>
<glyph name="epsilon" format="1">
  <advance width="1110"/>
  <unicode hex="03B5"/>
  <outline>
    <contour>
      <point x="513" y="588" type="line" smooth="yes"/>
      <point x="245" y="588"/>
      <point x="82" y="487"/>
      <point x="82" y="306" type="curve" smooth="yes"/>
      <point x="82" y="101"/>
      <point x="309" y="-20"/>
      <point x="602" y="-20" type="curve" smooth="yes"/>
      <point x="838" y="-20"/>
      <point x="1084" y="84"/>
      <point x="1084" y="320" type="curve"/>
      <point x="762" y="320" type="line"/>
      <point x="762" y="265"/>
      <point x="704" y="220"/>
      <point x="581" y="220" type="curve" smooth="yes"/>
      <point x="461" y="220"/>
      <point x="403" y="279"/>
      <point x="403" y="336" type="curve" smooth="yes"/>
      <point x="403" y="421"/>
      <point x="479" y="450"/>
      <point x="588" y="450" type="curve" smooth="yes"/>
      <point x="767" y="450" type="line"/>
      <point x="767" y="588" type="line"/>
    </contour>
    <contour>
      <point x="767" y="516" type="line"/>
      <point x="767" y="657" type="line"/>
      <point x="588" y="657" type="line" smooth="yes"/>
      <point x="484" y="657"/>
      <point x="423" y="694"/>
      <point x="423" y="755" type="curve" smooth="yes"/>
      <point x="423" y="806"/>
      <point x="468" y="861"/>
      <point x="582" y="861" type="curve" smooth="yes"/>
      <point x="676" y="861"/>
      <point x="745" y="832"/>
      <point x="745" y="768" type="curve"/>
      <point x="1067" y="768" type="line"/>
      <point x="1067" y="978"/>
      <point x="856" y="1101"/>
      <point x="602" y="1101" type="curve" smooth="yes"/>
      <point x="309" y="1101"/>
      <point x="101" y="991"/>
      <point x="101" y="786" type="curve" smooth="yes"/>
      <point x="101" y="638"/>
      <point x="271" y="516"/>
      <point x="513" y="516" type="curve" smooth="yes"/>
    </contour>
  </outline>
</glyph>
<glyph name="xi" format="1">
  <advance width="1116"/>
  <unicode hex="03BE"/>
  <outline>
    <contour>
      <point x="990" y="1424" type="line"/>
      <point x="888" y="1461"/>
      <point x="817" y="1478"/>
      <point x="671" y="1478" type="curve" smooth="yes"/>
      <point x="384" y="1478"/>
      <point x="198" y="1325"/>
      <point x="198" y="1078" type="curve" smooth="yes"/>
      <point x="198" y="868"/>
      <point x="404" y="777"/>
      <point x="712" y="777" type="curve" smooth="yes"/>
      <point x="869" y="777" type="line"/>
      <point x="869" y="960" type="line"/>
      <point x="716" y="960" type="line" smooth="yes"/>
      <point x="575" y="960"/>
      <point x="520" y="1014"/>
      <point x="520" y="1083" type="curve" smooth="yes"/>
      <point x="520" y="1162"/>
      <point x="580" y="1211"/>
      <point x="713" y="1211" type="curve" smooth="yes"/>
      <point x="790" y="1211"/>
      <point x="826" y="1203"/>
      <point x="939" y="1173" type="curve"/>
    </contour>
    <contour>
      <point x="722" y="866" type="line" smooth="yes"/>
      <point x="330" y="866"/>
      <point x="105" y="717"/>
      <point x="105" y="448" type="curve" smooth="yes"/>
      <point x="105" y="149"/>
      <point x="297" y="55"/>
      <point x="604" y="-6" type="curve"/>
      <point x="633" y="-14" type="line" smooth="yes"/>
      <point x="711" y="-33"/>
      <point x="734" y="-63"/>
      <point x="731" y="-109" type="curve"/>
      <point x="733" y="-143"/>
      <point x="704" y="-209"/>
      <point x="639" y="-272" type="curve"/>
      <point x="802" y="-393" type="line"/>
      <point x="923" y="-314"/>
      <point x="1053" y="-159"/>
      <point x="1053" y="-39" type="curve" smooth="yes"/>
      <point x="1055" y="125"/>
      <point x="937" y="192"/>
      <point x="753" y="234" type="curve" smooth="yes"/>
      <point x="661" y="255" type="line" smooth="yes"/>
      <point x="528" y="285"/>
      <point x="427" y="338"/>
      <point x="427" y="464" type="curve" smooth="yes"/>
      <point x="427" y="610"/>
      <point x="532" y="689"/>
      <point x="726" y="689" type="curve" smooth="yes"/>
      <point x="869" y="689" type="line"/>
      <point x="869" y="866" type="line"/>
    </contour>
  </outline>
</glyph>
<glyph name="rho" format="1">
  <advance width="1183"/>
  <unicode hex="03C1"/>
  <outline>
    <contour>
      <point x="434" y="543" type="line"/>
      <point x="112" y="579" type="line"/>
      <point x="112" y="-416" type="line"/>
      <point x="434" y="-416" type="line"/>
    </contour>
    <contour>
      <point x="1105" y="539" type="line" smooth="yes"/>
      <point x="1105" y="868"/>
      <point x="936" y="1102"/>
      <point x="622" y="1102" type="curve" smooth="yes"/>
      <point x="295" y="1102"/>
      <point x="112" y="872"/>
      <point x="112" y="579" type="curve"/>
      <point x="294" y="508" type="line"/>
      <point x="334" y="216"/>
      <point x="435" y="-21"/>
      <point x="685" y="-21" type="curve" smooth="yes"/>
      <point x="958" y="-21"/>
      <point x="1105" y="203"/>
      <point x="1105" y="518" type="curve" smooth="yes"/>
    </contour>
    <contour>
      <point x="783" y="518" type="line" smooth="yes"/>
      <point x="783" y="356"/>
      <point x="739" y="239"/>
      <point x="604" y="239" type="curve" smooth="yes"/>
      <point x="455" y="239"/>
      <point x="394" y="328"/>
      <point x="394" y="480" type="curve"/>
      <point x="434" y="544" type="line"/>
      <point x="434" y="721"/>
      <point x="483" y="842"/>
      <point x="602" y="842" type="curve" smooth="yes"/>
      <point x="735" y="842"/>
      <point x="783" y="707"/>
      <point x="783" y="539" type="curve" smooth="yes"/>
    </contour>
  </outline>
</glyph>
<glyph name="sigma1" format="1">
  <advance width="1064"/>
  <unicode hex="03C2"/>
  <outline>
    <contour>
      <point x="583" y="1102" type="curve" smooth="yes"/>
      <point x="248" y="1102"/>
      <point x="75" y="865"/>
      <point x="75" y="552" type="curve" smooth="yes"/>
      <point x="75" y="529" type="line" smooth="yes"/>
      <point x="75" y="228"/>
      <point x="222" y="89"/>
      <point x="520" y="6" type="curve" smooth="yes"/>
      <point x="576" y="-9"/>
      <point x="608" y="-39"/>
      <point x="608" y="-89" type="curve"/>
      <point x="610" y="-123"/>
      <point x="581" y="-189"/>
      <point x="516" y="-252" type="curve"/>
      <point x="684" y="-374" type="line"/>
      <point x="805" y="-295"/>
      <point x="930" y="-139"/>
      <point x="930" y="-19" type="curve"/>
      <point x="921" y="151"/>
      <point x="824" y="192"/>
      <point x="617" y="253" type="curve" smooth="yes"/>
      <point x="468" y="297"/>
      <point x="397" y="348"/>
      <point x="397" y="529" type="curve" smooth="yes"/>
      <point x="397" y="552" type="line" smooth="yes"/>
      <point x="397" y="708"/>
      <point x="435" y="842"/>
      <point x="583" y="842" type="curve" smooth="yes"/>
      <point x="685" y="842"/>
      <point x="732" y="765"/>
      <point x="732" y="668" type="curve"/>
      <point x="1034" y="668" type="line"/>
      <point x="1034" y="943"/>
      <point x="852" y="1102"/>
    </contour>
  </outline>
</glyph>
<glyph name="upsilon" format="1">
  <advance width="1201"/>
  <unicode hex="03C5"/>
  <outline>
    <contour>
      <point x="496" y="870" type="line" smooth="yes"/>
      <point x="496" y="1026"/>
      <point x="402" y="1101"/>
      <point x="245" y="1101" type="curve" smooth="yes"/>
      <point x="158" y="1101"/>
      <point x="64" y="1080"/>
      <point x="16" y="1060" type="curve"/>
      <point x="41" y="833" type="line"/>
      <point x="63" y="837"/>
      <point x="75" y="840"/>
      <point x="104" y="840" type="curve" smooth="yes"/>
      <point x="151" y="840"/>
      <point x="173" y="821"/>
      <point x="173" y="770" type="curve" smooth="yes"/>
      <point x="173" y="412" type="line" smooth="yes"/>
      <point x="173" y="112"/>
      <point x="346" y="-21"/>
      <point x="607" y="-21" type="curve" smooth="yes"/>
      <point x="967" y="-21"/>
      <point x="1116" y="231"/>
      <point x="1116" y="566" type="curve" smooth="yes"/>
      <point x="1116" y="786"/>
      <point x="1063" y="959"/>
      <point x="1002" y="1082" type="curve"/>
      <point x="701" y="1082" type="line"/>
      <point x="756" y="917"/>
      <point x="792" y="743"/>
      <point x="795" y="566" type="curve" smooth="yes"/>
      <point x="795" y="405"/>
      <point x="724" y="239"/>
      <point x="597" y="239" type="curve" smooth="yes"/>
      <point x="542" y="239"/>
      <point x="495" y="278"/>
      <point x="495" y="410" type="curve" smooth="yes"/>
    </contour>
  </outline>
</glyph>
<glyph name="uni03D1" format="1">
  <advance width="1395"/>
  <unicode hex="03D1"/>
  <outline>
    <contour>
      <point x="1029" y="751" type="line"/>
      <point x="908" y="751"/>
      <point x="837" y="828"/>
      <point x="837" y="930" type="curve" smooth="yes"/>
      <point x="837" y="1098" type="line" smooth="yes"/>
      <point x="837" y="1156"/>
      <point x="870" y="1186"/>
      <point x="916" y="1186" type="curve" smooth="yes"/>
      <point x="956" y="1186"/>
      <point x="976" y="1158"/>
      <point x="976" y="1098" type="curve" smooth="yes"/>
      <point x="976" y="535" type="line" smooth="yes"/>
      <point x="976" y="357"/>
      <point x="881" y="250"/>
      <point x="723" y="250" type="curve" smooth="yes"/>
      <point x="552" y="250"/>
      <point x="449" y="370"/>
      <point x="449" y="535" type="curve" smooth="yes"/>
      <point x="449" y="1254" type="line"/>
      <point x="106" y="1252" type="line"/>
      <point x="106" y="535" type="line" smooth="yes"/>
      <point x="106" y="219"/>
      <point x="353" y="-21"/>
      <point x="723" y="-21" type="curve" smooth="yes"/>
      <point x="1080" y="-21"/>
      <point x="1318" y="200"/>
      <point x="1318" y="535" type="curve" smooth="yes"/>
      <point x="1318" y="1057" type="line" smooth="yes"/>
      <point x="1318" y="1321"/>
      <point x="1171" y="1477"/>
      <point x="937" y="1477" type="curve" smooth="yes"/>
      <point x="702" y="1477"/>
      <point x="535" y="1316"/>
      <point x="535" y="1057" type="curve" smooth="yes"/>
      <point x="535" y="932" type="line" smooth="yes"/>
      <point x="535" y="694"/>
      <point x="762" y="522"/>
      <point x="1029" y="522" type="curve"/>
    </contour>
  </outline>
</glyph>
<glyph name="uni03D6" format="1">
  <advance width="1820"/>
  <unicode hex="03D6"/>
  <outline>
    <contour>
      <point x="1814" y="1082" type="line"/>
      <point x="82" y="1082" type="line"/>
      <point x="82" y="860" type="line"/>
      <point x="1814" y="860" type="line"/>
    </contour>
    <contour>
      <point x="1283" y="1082" type="line"/>
      <point x="1361" y="917"/>
      <point x="1411" y="743"/>
      <point x="1416" y="566" type="curve" smooth="yes"/>
      <point x="1416" y="405"/>
      <point x="1386" y="239"/>
      <point x="1278" y="239" type="curve" smooth="yes"/>
      <point x="1191" y="239"/>
      <point x="1117" y="307"/>
      <point x="1117" y="501" type="curve" smooth="yes"/>
      <point x="1117" y="684" type="line"/>
      <point x="877" y="684" type="line"/>
      <point x="877" y="535" type="line" smooth="yes"/>
      <point x="877" y="178"/>
      <point x="1041" y="-21"/>
      <point x="1289" y="-21" type="curve" smooth="yes"/>
      <point x="1629" y="-21"/>
      <point x="1737" y="231"/>
      <point x="1737" y="566" type="curve" smooth="yes"/>
      <point x="1737" y="786"/>
      <point x="1666" y="959"/>
      <point x="1583" y="1082" type="curve"/>
    </contour>
    <contour>
      <point x="308" y="1082" type="line"/>
      <point x="226" y="959"/>
      <point x="154" y="786"/>
      <point x="154" y="566" type="curve" smooth="yes"/>
      <point x="154" y="231"/>
      <point x="263" y="-21"/>
      <point x="603" y="-21" type="curve" smooth="yes"/>
      <point x="851" y="-21"/>
      <point x="1015" y="178"/>
      <point x="1015" y="535" type="curve" smooth="yes"/>
      <point x="1015" y="684" type="line"/>
      <point x="775" y="684" type="line"/>
      <point x="775" y="501" type="line" smooth="yes"/>
      <point x="775" y="307"/>
      <point x="701" y="239"/>
      <point x="613" y="239" type="curve" smooth="yes"/>
      <point x="506" y="239"/>
      <point x="476" y="405"/>
      <point x="476" y="566" type="curve" smooth="yes"/>
      <point x="481" y="743"/>
      <point x="531" y="917"/>
      <point x="609" y="1082" type="curve"/>
    </contour>
  </outline>
</glyph>
<glyph name="uni0409" format="1">
  <advance width="2158"/>
  <unicode hex="0409"/>
  <outline>
    <contour>
      <point x="1100" y="1456" type="line"/>
      <point x="367" y="1456" type="line"/>
      <point x="367" y="1196" type="line"/>
      <point x="1100" y="1196" type="line"/>
    </contour>
    <contour>
      <point x="333" y="1456" type="line"/>
      <point x="333" y="808" type="line" smooth="yes"/>
      <point x="333" y="392"/>
      <point x="287" y="260"/>
      <point x="81" y="260" type="curve" smooth="yes"/>
      <point x="42" y="260" type="line"/>
      <point x="42" y="0" type="line"/>
      <point x="81" y="0" type="line" smooth="yes"/>
      <point x="447" y="0"/>
      <point x="656" y="203"/>
      <point x="656" y="808" type="curve" smooth="yes"/>
      <point x="656" y="1456" type="line"/>
    </contour>
    <contour>
      <point x="1212" y="977" type="line"/>
      <point x="1212" y="717" type="line"/>
      <point x="1540" y="717" type="line" smooth="yes"/>
      <point x="1701" y="717"/>
      <point x="1783" y="609"/>
      <point x="1783" y="491" type="curve" smooth="yes"/>
      <point x="1783" y="369"/>
      <point x="1701" y="260"/>
      <point x="1540" y="260" type="curve" smooth="yes"/>
      <point x="1326" y="260" type="line"/>
      <point x="1326" y="1456" type="line"/>
      <point x="1004" y="1456" type="line"/>
      <point x="1004" y="0" type="line"/>
      <point x="1540" y="0" type="line" smooth="yes"/>
      <point x="1887" y="0"/>
      <point x="2105" y="206"/>
      <point x="2105" y="489" type="curve" smooth="yes"/>
      <point x="2105" y="771"/>
      <point x="1887" y="977"/>
      <point x="1540" y="977" type="curve" smooth="yes"/>
    </contour>
    <contour>
      <point x="1326" y="1456" type="line"/>
      <point x="1326" y="1226" type="line"/>
      <point x="1479" y="1256" type="line"/>
      <point x="1479" y="1456" type="line"/>
    </contour>
    <contour>
      <point x="333" y="1456" type="line"/>
      <point x="180" y="1456" type="line"/>
      <point x="180" y="1256" type="line"/>
      <point x="333" y="1226" type="line"/>
    </contour>
  </outline>
</glyph>
<glyph name="uni040B" format="1">
  <advance width="1741"/>
  <unicode hex="040B"/>
  <outline>
    <contour>
      <point x="1560" y="1" type="line"/>
      <point x="1560" y="446" type="line" smooth="yes"/>
      <point x="1560" y="784"/>
      <point x="1330" y="937"/>
      <point x="975" y="937" type="curve" smooth="yes"/>
      <point x="901" y="937"/>
      <point x="719" y="921"/>
      <point x="647" y="897" type="curve"/>
      <point x="647" y="637" type="line"/>
      <point x="717" y="662"/>
      <point x="897" y="677"/>
      <point x="975" y="677" type="curve" smooth="yes"/>
      <point x="1151" y="677"/>
      <point x="1238" y="626"/>
      <point x="1238" y="446" type="curve" smooth="yes"/>
      <point x="1238" y="1" type="line"/>
    </contour>
    <contour>
      <point x="785" y="1456" type="line"/>
      <point x="462" y="1456" type="line"/>
      <point x="462" y="0" type="line"/>
      <point x="785" y="0" type="line"/>
    </contour>
    <contour>
      <point x="1278" y="1456" type="line"/>
      <point x="51" y="1456" type="line"/>
      <point x="51" y="1196" type="line"/>
      <point x="1278" y="1196" type="line"/>
    </contour>
    <contour>
      <point x="1278" y="1456" type="line"/>
      <point x="1008" y="1456" type="line"/>
      <point x="1037" y="1063" type="line"/>
      <point x="1278" y="1063" type="line"/>
    </contour>
    <contour>
      <point x="51" y="1456" type="line"/>
      <point x="51" y="1063" type="line"/>
      <point x="292" y="1063" type="line"/>
      <point x="321" y="1456" type="line"/>
    </contour>
    <contour>
      <point x="785" y="0" type="line"/>
      <point x="938" y="0" type="line"/>
      <point x="938" y="200" type="line"/>
      <point x="785" y="230" type="line"/>
    </contour>
    <contour>
      <point x="462" y="0" type="line"/>
      <point x="462" y="230" type="line"/>
      <point x="309" y="200" type="line"/>
      <point x="309" y="0" type="line"/>
    </contour>
    <contour>
      <point x="1238" y="1" type="line"/>
      <point x="1238" y="231" type="line"/>
      <point x="1085" y="201" type="line"/>
      <point x="1085" y="1" type="line"/>
    </contour>
    <contour>
      <point x="1560" y="1" type="line"/>
      <point x="1713" y="1" type="line"/>
      <point x="1713" y="201" type="line"/>
      <point x="1560" y="231" type="line"/>
    </contour>
  </outline>
</glyph>
<glyph name="uni0414" format="1">
  <advance width="1577"/>
  <unicode hex="0414"/>
  <outline>
    <contour>
      <point x="1297" y="260" type="line"/>
      <point x="260" y="260" type="line"/>
      <point x="260" y="0" type="line"/>
      <point x="1297" y="0" type="line"/>
    </contour>
    <contour>
      <point x="360" y="260" type="line"/>
      <point x="38" y="260" type="line"/>
      <point x="58" y="-358" type="line"/>
      <point x="360" y="-358" type="line"/>
    </contour>
    <contour>
      <point x="1524" y="260" type="line"/>
      <point x="1201" y="260" type="line"/>
      <point x="1201" y="-358" type="line"/>
      <point x="1494" y="-358" type="line"/>
    </contour>
    <contour>
      <point x="1135" y="1456" type="line"/>
      <point x="424" y="1456" type="line"/>
      <point x="424" y="1196" type="line"/>
      <point x="1135" y="1196" type="line"/>
    </contour>
    <contour>
      <point x="1361" y="1456" type="line"/>
      <point x="1039" y="1456" type="line"/>
      <point x="1039" y="0" type="line"/>
      <point x="1361" y="0" type="line"/>
    </contour>
    <contour>
      <point x="391" y="1456" type="line"/>
      <point x="348" y="860" type="line" smooth="yes"/>
      <point x="332" y="445"/>
      <point x="225" y="320"/>
      <point x="145" y="260" type="curve"/>
      <point x="77" y="260" type="line"/>
      <point x="77" y="0" type="line"/>
      <point x="265" y="0" type="line"/>
      <point x="427" y="142"/>
      <point x="648" y="256"/>
      <point x="671" y="860" type="curve" smooth="yes"/>
      <point x="713" y="1456" type="line"/>
    </contour>
    <contour>
      <point x="1361" y="1456" type="line"/>
      <point x="1361" y="1226" type="line"/>
      <point x="1514" y="1256" type="line"/>
      <point x="1514" y="1456" type="line"/>
    </contour>
    <contour>
      <point x="391" y="1456" type="line"/>
      <point x="238" y="1456" type="line"/>
      <point x="238" y="1256" type="line"/>
      <point x="391" y="1226" type="line"/>
    </contour>
  </outline>
</glyph>
<glyph name="uni0416" format="1">
  <advance width="2187"/>
  <unicode hex="0416"/>
  <outline>
    <contour>
      <point x="785" y="635" type="line"/>
      <point x="518" y="812" type="line"/>
      <point x="55" y="0" type="line"/>
      <point x="457" y="0" type="line"/>
    </contour>
    <contour>
      <point x="1258" y="1456" type="line"/>
      <point x="936" y="1456" type="line"/>
      <point x="936" y="0" type="line"/>
      <point x="1258" y="0" type="line"/>
    </contour>
    <contour>
      <point x="1724" y="0" type="line"/>
      <point x="2126" y="0" type="line"/>
      <point x="1673" y="812" type="line"/>
      <point x="1406" y="635" type="line"/>
    </contour>
    <contour>
      <point x="1258" y="1456" type="line"/>
      <point x="1258" y="1226" type="line"/>
      <point x="1411" y="1256" type="line"/>
      <point x="1411" y="1456" type="line"/>
    </contour>
    <contour>
      <point x="936" y="1456" type="line"/>
      <point x="783" y="1456" type="line"/>
      <point x="783" y="1256" type="line"/>
      <point x="936" y="1226" type="line"/>
    </contour>
    <contour>
      <point x="936" y="0" type="line"/>
      <point x="936" y="230" type="line"/>
      <point x="783" y="200" type="line"/>
      <point x="783" y="0" type="line"/>
    </contour>
    <contour>
      <point x="1258" y="0" type="line"/>
      <point x="1411" y="0" type="line"/>
      <point x="1411" y="200" type="line"/>
      <point x="1258" y="230" type="line"/>
    </contour>
    <contour>
      <point x="457" y="0" type="line"/>
      <point x="610" y="0" type="line"/>
      <point x="610" y="200" type="line"/>
      <point x="457" y="230" type="line"/>
    </contour>
    <contour>
      <point x="55" y="0" type="line"/>
      <point x="235" y="230" type="line"/>
      <point x="32" y="200" type="line"/>
      <point x="32" y="0" type="line"/>
    </contour>
    <contour>
      <point x="2126" y="0" type="line"/>
      <point x="2159" y="0" type="line"/>
      <point x="2159" y="200" type="line"/>
      <point x="1946" y="230" type="line"/>
    </contour>
    <contour>
      <point x="1724" y="0" type="line"/>
      <point x="1724" y="230" type="line"/>
      <point x="1571" y="200" type="line"/>
      <point x="1571" y="0" type="line"/>
    </contour>
    <contour>
      <point x="2116" y="1418" type="line"/>
      <point x="2067" y="1449"/>
      <point x="2002" y="1472"/>
      <point x="1928" y="1472" type="curve" smooth="yes"/>
      <point x="1765" y="1472"/>
      <point x="1697" y="1400"/>
      <point x="1608" y="1245" type="curve" smooth="yes"/>
      <point x="1408" y="894" type="line"/>
      <point x="1182" y="894" type="line"/>
      <point x="1232" y="579" type="line"/>
      <point x="1550" y="579" type="line"/>
      <point x="1838" y="1040" type="line" smooth="yes"/>
      <point x="1909" y="1153"/>
      <point x="1949" y="1171"/>
      <point x="2000" y="1171" type="curve" smooth="yes"/>
      <point x="2031" y="1171"/>
      <point x="2051" y="1165"/>
      <point x="2071" y="1158" type="curve"/>
    </contour>
    <contour>
      <point x="115" y="1158" type="line"/>
      <point x="135" y="1165"/>
      <point x="155" y="1171"/>
      <point x="186" y="1171" type="curve" smooth="yes"/>
      <point x="237" y="1171"/>
      <point x="277" y="1153"/>
      <point x="350" y="1040" type="curve" smooth="yes"/>
      <point x="644" y="579" type="line"/>
      <point x="962" y="579" type="line"/>
      <point x="1008" y="894" type="line"/>
      <point x="782" y="894" type="line"/>
      <point x="577" y="1245" type="line" smooth="yes"/>
      <point x="486" y="1400"/>
      <point x="417" y="1472"/>
      <point x="254" y="1472" type="curve" smooth="yes"/>
      <point x="180" y="1472"/>
      <point x="114" y="1449"/>
      <point x="67" y="1418" type="curve"/>
    </contour>
  </outline>
</glyph>
<glyph name="uni041A" format="1">
  <advance width="1468"/>
  <unicode hex="041A"/>
  <outline>
    <contour>
      <point x="527" y="1456" type="line"/>
      <point x="204" y="1456" type="line"/>
      <point x="204" y="0" type="line"/>
      <point x="527" y="0" type="line"/>
    </contour>
    <contour>
      <point x="1053" y="0" type="line"/>
      <point x="1446" y="0" type="line"/>
      <point x="902" y="818" type="line"/>
      <point x="654" y="641" type="line"/>
    </contour>
    <contour>
      <point x="1053" y="0" type="line"/>
      <point x="1053" y="230" type="line"/>
      <point x="850" y="200" type="line"/>
      <point x="850" y="0" type="line"/>
    </contour>
    <contour>
      <point x="1446" y="0" type="line"/>
      <point x="1459" y="0" type="line"/>
      <point x="1459" y="200" type="line"/>
      <point x="1266" y="230" type="line"/>
    </contour>
    <contour>
      <point x="204" y="0" type="line"/>
      <point x="204" y="230" type="line"/>
      <point x="51" y="200" type="line"/>
      <point x="51" y="0" type="line"/>
    </contour>
    <contour>
      <point x="527" y="0" type="line"/>
      <point x="670" y="0" type="line"/>
      <point x="670" y="200" type="line"/>
      <point x="527" y="230" type="line"/>
    </contour>
    <contour>
      <point x="527" y="1456" type="line"/>
      <point x="527" y="1226" type="line"/>
      <point x="670" y="1256" type="line"/>
      <point x="670" y="1456" type="line"/>
    </contour>
    <contour>
      <point x="204" y="1456" type="line"/>
      <point x="51" y="1456" type="line"/>
      <point x="51" y="1256" type="line"/>
      <point x="204" y="1226" type="line"/>
    </contour>
    <contour>
      <point x="1438" y="1418" type="line"/>
      <point x="1391" y="1449"/>
      <point x="1326" y="1472"/>
      <point x="1252" y="1472" type="curve" smooth="yes"/>
      <point x="1079" y="1472"/>
      <point x="1012" y="1395"/>
      <point x="903" y="1245" type="curve" smooth="yes"/>
      <point x="648" y="894" type="line"/>
      <point x="442" y="894" type="line"/>
      <point x="479" y="579" type="line"/>
      <point x="777" y="579" type="line"/>
      <point x="1124" y="1040" type="line" smooth="yes"/>
      <point x="1208" y="1152"/>
      <point x="1255" y="1171"/>
      <point x="1312" y="1171" type="curve" smooth="yes"/>
      <point x="1343" y="1171"/>
      <point x="1362" y="1165"/>
      <point x="1382" y="1158" type="curve"/>
    </contour>
  </outline>
</glyph>
<glyph name="uni041B" format="1">
  <advance width="1531"/>
  <unicode hex="041B"/>
  <outline>
    <contour>
      <point x="1103" y="1456" type="line"/>
      <point x="340" y="1456" type="line"/>
      <point x="340" y="1196" type="line"/>
      <point x="1103" y="1196" type="line"/>
    </contour>
    <contour>
      <point x="1329" y="1456" type="line"/>
      <point x="1007" y="1456" type="line"/>
      <point x="1007" y="0" type="line"/>
      <point x="1329" y="0" type="line"/>
    </contour>
    <contour>
      <point x="306" y="1456" type="line"/>
      <point x="306" y="808" type="line" smooth="yes"/>
      <point x="306" y="392"/>
      <point x="271" y="282"/>
      <point x="84" y="260" type="curve"/>
      <point x="45" y="260" type="line"/>
      <point x="45" y="0" type="line"/>
      <point x="124" y="0" type="line" smooth="yes"/>
      <point x="451" y="0"/>
      <point x="629" y="203"/>
      <point x="629" y="808" type="curve" smooth="yes"/>
      <point x="629" y="1456" type="line"/>
    </contour>
    <contour>
      <point x="306" y="1456" type="line"/>
      <point x="153" y="1456" type="line"/>
      <point x="153" y="1256" type="line"/>
      <point x="306" y="1226" type="line"/>
    </contour>
    <contour>
      <point x="1329" y="0" type="line"/>
      <point x="1482" y="0" type="line"/>
      <point x="1482" y="200" type="line"/>
      <point x="1329" y="230" type="line"/>
    </contour>
    <contour>
      <point x="1007" y="0" type="line"/>
      <point x="1007" y="230" type="line"/>
      <point x="854" y="200" type="line"/>
      <point x="854" y="0" type="line"/>
    </contour>
    <contour>
      <point x="1329" y="1456" type="line"/>
      <point x="1329" y="1226" type="line"/>
      <point x="1482" y="1256" type="line"/>
      <point x="1482" y="1456" type="line"/>
    </contour>
  </outline>
</glyph>
<glyph name="uni042A" format="1">
  <advance width="1735"/>
  <unicode hex="042A"/>
  <outline>
    <contour>
      <point x="51" y="1196" type="line"/>
      <point x="732" y="1196" type="line"/>
      <point x="732" y="1456" type="line"/>
      <point x="51" y="1456" type="line"/>
    </contour>
    <contour>
      <point x="51" y="1456" type="line"/>
      <point x="51" y="1063" type="line"/>
      <point x="292" y="1063" type="line"/>
      <point x="321" y="1456" type="line"/>
    </contour>
    <contour>
      <point x="905" y="947" type="line"/>
      <point x="905" y="687" type="line"/>
      <point x="1234" y="687" type="line" smooth="yes"/>
      <point x="1395" y="687"/>
      <point x="1477" y="599"/>
      <point x="1477" y="481" type="curve" smooth="yes"/>
      <point x="1477" y="359"/>
      <point x="1395" y="260"/>
      <point x="1234" y="260" type="curve" smooth="yes"/>
      <point x="1020" y="260" type="line"/>
      <point x="1020" y="1456" type="line"/>
      <point x="697" y="1456" type="line"/>
      <point x="697" y="0" type="line"/>
      <point x="1234" y="0" type="line" smooth="yes"/>
      <point x="1581" y="0"/>
      <point x="1799" y="196"/>
      <point x="1799" y="479" type="curve" smooth="yes"/>
      <point x="1799" y="761"/>
      <point x="1581" y="947"/>
      <point x="1234" y="947" type="curve" smooth="yes"/>
    </contour>
    <contour>
      <point x="1020" y="1456" type="line"/>
      <point x="1020" y="1226" type="line"/>
      <point x="1173" y="1256" type="line"/>
      <point x="1173" y="1456" type="line"/>
    </contour>
    <contour>
      <point x="697" y="1456" type="line"/>
      <point x="544" y="1456" type="line"/>
      <point x="544" y="1256" type="line"/>
      <point x="697" y="1226" type="line"/>
    </contour>
    <contour>
      <point x="697" y="0" type="line"/>
      <point x="697" y="230" type="line"/>
      <point x="544" y="200" type="line"/>
      <point x="544" y="0" type="line"/>
    </contour>
  </outline>
</glyph>
<glyph name="uni0431" format="1">
  <advance width="1174"/>
  <unicode hex="0431"/>
  <outline>
    <contour>
      <point x="760" y="1560" type="line"/>
      <point x="760" y="1485"/>
      <point x="692" y="1462"/>
      <point x="585" y="1446" type="curve" smooth="yes"/>
      <point x="318" y="1396"/>
      <point x="86" y="1175"/>
      <point x="84" y="639" type="curve"/>
      <point x="84" y="502" type="line"/>
      <point x="329" y="502" type="line"/>
      <point x="329" y="639" type="line" smooth="yes"/>
      <point x="319" y="971"/>
      <point x="385" y="1147"/>
      <point x="590" y="1181" type="curve" smooth="yes"/>
      <point x="861" y="1224"/>
      <point x="1019" y="1262"/>
      <point x="1019" y="1560" type="curve"/>
    </contour>
    <contour>
      <point x="623" y="1022" type="curve" smooth="yes"/>
      <point x="303" y="1022"/>
      <point x="84" y="595"/>
      <point x="84" y="511" type="curve" smooth="yes"/>
      <point x="84" y="500" type="line" smooth="yes"/>
      <point x="84" y="206"/>
      <point x="268" y="-21"/>
      <point x="604" y="-21" type="curve" smooth="yes"/>
      <point x="939" y="-21"/>
      <point x="1122" y="196"/>
      <point x="1122" y="490" type="curve" smooth="yes"/>
      <point x="1122" y="511" type="line" smooth="yes"/>
      <point x="1122" y="805"/>
      <point x="946" y="1022"/>
    </contour>
    <contour>
      <point x="602" y="762" type="curve" smooth="yes"/>
      <point x="753" y="762"/>
      <point x="800" y="647"/>
      <point x="800" y="511" type="curve" smooth="yes"/>
      <point x="800" y="490" type="line" smooth="yes"/>
      <point x="800" y="349"/>
      <point x="752" y="239"/>
      <point x="604" y="239" type="curve" smooth="yes"/>
      <point x="453" y="239"/>
      <point x="406" y="359"/>
      <point x="406" y="500" type="curve" smooth="yes"/>
      <point x="406" y="511" type="line" smooth="yes"/>
      <point x="406" y="647"/>
      <point x="454" y="762"/>
    </contour>
  </outline>
</glyph>
<glyph name="uni0437" format="1">
  <advance width="1067"/>
  <unicode hex="0437"/>
  <outline>
    <contour>
      <point x="606" y="516" type="line" smooth="yes"/>
      <point x="836" y="516"/>
      <point x="981" y="638"/>
      <point x="981" y="786" type="curve" smooth="yes"/>
      <point x="981" y="991"/>
      <point x="798" y="1101"/>
      <point x="517" y="1101" type="curve" smooth="yes"/>
      <point x="274" y="1101"/>
      <point x="76" y="978"/>
      <point x="76" y="768" type="curve"/>
      <point x="398" y="768" type="line"/>
      <point x="398" y="832"/>
      <point x="454" y="861"/>
      <point x="537" y="861" type="curve" smooth="yes"/>
      <point x="636" y="861"/>
      <point x="659" y="806"/>
      <point x="659" y="755" type="curve" smooth="yes"/>
      <point x="659" y="694"/>
      <point x="622" y="652"/>
      <point x="531" y="652" type="curve" smooth="yes"/>
      <point x="386" y="652" type="line"/>
      <point x="386" y="516" type="line"/>
    </contour>
    <contour>
      <point x="386" y="588" type="line"/>
      <point x="386" y="456" type="line"/>
      <point x="531" y="456" type="line" smooth="yes"/>
      <point x="628" y="456"/>
      <point x="679" y="421"/>
      <point x="679" y="336" type="curve" smooth="yes"/>
      <point x="679" y="279"/>
      <point x="644" y="220"/>
      <point x="538" y="220" type="curve" smooth="yes"/>
      <point x="429" y="220"/>
      <point x="381" y="265"/>
      <point x="381" y="320" type="curve"/>
      <point x="59" y="320" type="line"/>
      <point x="59" y="84"/>
      <point x="291" y="-20"/>
      <point x="517" y="-20" type="curve" smooth="yes"/>
      <point x="799" y="-20"/>
      <point x="1000" y="101"/>
      <point x="1000" y="306" type="curve" smooth="yes"/>
      <point x="1000" y="487"/>
      <point x="861" y="588"/>
      <point x="606" y="588" type="curve" smooth="yes"/>
    </contour>
  </outline>
</glyph>
<glyph name="uni0446" format="1">
  <advance width="1395"/>
  <unicode hex="0446"/>
  <outline>
    <contour>
      <point x="197" y="0" type="line"/>
      <point x="1160" y="0" type="line"/>
      <point x="1160" y="1082" type="line"/>
      <point x="837" y="1082" type="line"/>
      <point x="837" y="260" type="line"/>
      <point x="519" y="260" type="line"/>
      <point x="519" y="1082" type="line"/>
      <point x="197" y="1082" type="line"/>
    </contour>
    <contour>
      <point x="1333" y="258" type="line"/>
      <point x="896" y="258" type="line"/>
      <point x="896" y="0" type="line"/>
      <point x="1011" y="0" type="line"/>
      <point x="1011" y="-321" type="line"/>
      <point x="1313" y="-321" type="line"/>
    </contour>
    <contour>
      <point x="519" y="1082" type="line"/>
      <point x="519" y="852" type="line"/>
      <point x="642" y="882" type="line"/>
      <point x="642" y="1082" type="line"/>
    </contour>
    <contour>
      <point x="197" y="1082" type="line"/>
      <point x="44" y="1082" type="line"/>
      <point x="44" y="882" type="line"/>
      <point x="197" y="852" type="line"/>
    </contour>
    <contour>
      <point x="1160" y="1082" type="line"/>
      <point x="1160" y="852" type="line"/>
      <point x="1313" y="882" type="line"/>
      <point x="1313" y="1082" type="line"/>
    </contour>
    <contour>
      <point x="837" y="1082" type="line"/>
      <point x="714" y="1082" type="line"/>
      <point x="714" y="882" type="line"/>
      <point x="837" y="852" type="line"/>
    </contour>
    <contour>
      <point x="197" y="230" type="line"/>
      <point x="44" y="200" type="line"/>
      <point x="44" y="0" type="line"/>
      <point x="197" y="0" type="line"/>
    </contour>
  </outline>
</glyph>
<glyph name="uni044F" format="1">
  <advance width="1316"/>
  <unicode hex="044F"/>
  <outline>
    <contour>
      <point x="412" y="551" type="line"/>
      <point x="115" y="0" type="line"/>
      <point x="437" y="0" type="line"/>
      <point x="734" y="551" type="line"/>
    </contour>
    <contour>
      <point x="618" y="1082" type="line" smooth="yes"/>
      <point x="323" y="1082"/>
      <point x="139" y="925"/>
      <point x="139" y="709" type="curve" smooth="yes"/>
      <point x="139" y="506"/>
      <point x="323" y="358"/>
      <point x="618" y="358" type="curve" smooth="yes"/>
      <point x="905" y="358" type="line"/>
      <point x="905" y="575" type="line"/>
      <point x="618" y="575" type="line" smooth="yes"/>
      <point x="513" y="575"/>
      <point x="461" y="639"/>
      <point x="461" y="697" type="curve" smooth="yes"/>
      <point x="461" y="757"/>
      <point x="513" y="824"/>
      <point x="618" y="824" type="curve" smooth="yes"/>
      <point x="780" y="824" type="line"/>
      <point x="780" y="0" type="line"/>
      <point x="1101" y="0" type="line"/>
      <point x="1101" y="1082" type="line"/>
    </contour>
    <contour>
      <point x="1101" y="1082" type="line"/>
      <point x="1101" y="852" type="line"/>
      <point x="1254" y="882" type="line"/>
      <point x="1254" y="1082" type="line"/>
    </contour>
    <contour>
      <point x="1101" y="0" type="line"/>
      <point x="1254" y="0" type="line"/>
      <point x="1254" y="200" type="line"/>
      <point x="1101" y="230" type="line"/>
    </contour>
    <contour>
      <point x="780" y="0" type="line"/>
      <point x="780" y="230" type="line"/>
      <point x="647" y="200" type="line"/>
      <point x="647" y="0" type="line"/>
    </contour>
    <contour>
      <point x="115" y="0" type="line"/>
      <point x="295" y="230" type="line"/>
      <point x="102" y="200" type="line"/>
      <point x="102" y="0" type="line"/>
    </contour>
  </outline>
</glyph>
<glyph name="uni0459" format="1">
  <advance width="1808"/>
  <unicode hex="0459"/>
  <outline>
    <contour>
      <point x="881" y="1082" type="line"/>
      <point x="347" y="1082" type="line"/>
      <point x="347" y="822" type="line"/>
      <point x="881" y="822" type="line"/>
    </contour>
    <contour>
      <point x="258" y="1082" type="line"/>
      <point x="258" y="621" type="line" smooth="yes"/>
      <point x="258" y="377"/>
      <point x="199" y="261"/>
      <point x="87" y="261" type="curve" smooth="yes"/>
      <point x="59" y="261" type="line"/>
      <point x="65" y="0" type="line"/>
      <point x="108" y="0" type="line" smooth="yes"/>
      <point x="448" y="0"/>
      <point x="581" y="209"/>
      <point x="581" y="621" type="curve" smooth="yes"/>
      <point x="581" y="1082" type="line"/>
    </contour>
    <contour>
      <point x="982" y="745" type="line"/>
      <point x="982" y="486" type="line"/>
      <point x="1291" y="486" type="line" smooth="yes"/>
      <point x="1410" y="486"/>
      <point x="1459" y="444"/>
      <point x="1459" y="375" type="curve" smooth="yes"/>
      <point x="1459" y="303"/>
      <point x="1410" y="258"/>
      <point x="1291" y="258" type="curve" smooth="yes"/>
      <point x="1109" y="258" type="line"/>
      <point x="1109" y="1082" type="line"/>
      <point x="786" y="1082" type="line"/>
      <point x="786" y="0" type="line"/>
      <point x="1291" y="0" type="line" smooth="yes"/>
      <point x="1598" y="0"/>
      <point x="1780" y="145"/>
      <point x="1780" y="373" type="curve" smooth="yes"/>
      <point x="1780" y="599"/>
      <point x="1598" y="745"/>
      <point x="1291" y="745" type="curve" smooth="yes"/>
    </contour>
    <contour>
      <point x="786" y="0" type="line"/>
      <point x="786" y="230" type="line"/>
      <point x="633" y="200" type="line"/>
      <point x="633" y="0" type="line"/>
    </contour>
    <contour>
      <point x="1109" y="1082" type="line"/>
      <point x="1109" y="852" type="line"/>
      <point x="1262" y="882" type="line"/>
      <point x="1262" y="1082" type="line"/>
    </contour>
    <contour>
      <point x="258" y="1082" type="line"/>
      <point x="105" y="1082" type="line"/>
      <point x="105" y="882" type="line"/>
      <point x="258" y="852" type="line"/>
    </contour>
  </outline>
</glyph>
<glyph name="uni045B" format="1">
  <advance width="1295"/>
  <unicode hex="045B"/>
  <outline>
    <contour>
      <point x="498" y="1560" type="line"/>
      <point x="176" y="1560" type="line"/>
      <point x="176" y="0" type="line"/>
      <point x="498" y="0" type="line"/>
    </contour>
    <contour>
      <point x="437" y="578" type="line"/>
      <point x="437" y="729"/>
      <point x="496" y="842"/>
      <point x="656" y="842" type="curve" smooth="yes"/>
      <point x="757" y="842"/>
      <point x="816" y="800"/>
      <point x="816" y="624" type="curve" smooth="yes"/>
      <point x="816" y="0" type="line"/>
      <point x="1139" y="0" type="line"/>
      <point x="1139" y="622" type="line" smooth="yes"/>
      <point x="1139" y="964"/>
      <point x="992" y="1102"/>
      <point x="778" y="1102" type="curve" smooth="yes"/>
      <point x="549" y="1102"/>
      <point x="398" y="880"/>
      <point x="398" y="576" type="curve"/>
    </contour>
    <contour>
      <point x="176" y="0" type="line"/>
      <point x="176" y="230" type="line"/>
      <point x="43" y="200" type="line"/>
      <point x="43" y="0" type="line"/>
    </contour>
    <contour>
      <point x="1139" y="0" type="line"/>
      <point x="1272" y="0" type="line"/>
      <point x="1272" y="200" type="line"/>
      <point x="1139" y="230" type="line"/>
    </contour>
    <contour>
      <point x="816" y="0" type="line"/>
      <point x="816" y="230" type="line"/>
      <point x="703" y="200" type="line"/>
      <point x="703" y="0" type="line"/>
    </contour>
    <contour>
      <point x="498" y="0" type="line"/>
      <point x="611" y="0" type="line"/>
      <point x="611" y="200" type="line"/>
      <point x="498" y="230" type="line"/>
    </contour>
    <contour>
      <point x="176" y="1560" type="line"/>
      <point x="23" y="1560" type="line"/>
      <point x="23" y="1360" type="line"/>
      <point x="176" y="1330" type="line"/>
    </contour>
    <contour>
      <point x="703" y="1271" type="line"/>
      <point x="-18" y="1271" type="line"/>
      <point x="-18" y="1120" type="line"/>
      <point x="703" y="1120" type="line"/>
    </contour>
  </outline>
</glyph>
<glyph name="uni045F" format="1">
  <advance width="1424"/>
  <unicode hex="045F"/>
  <outline>
    <contour>
      <point x="555" y="260" type="line"/>
      <point x="555" y="-360" type="line"/>
      <point x="877" y="-360" type="line"/>
      <point x="877" y="260" type="line"/>
    </contour>
    <contour>
      <point x="235" y="1082" type="line"/>
      <point x="235" y="0" type="line"/>
      <point x="1198" y="0" type="line"/>
      <point x="1198" y="1082" type="line"/>
      <point x="875" y="1082" type="line"/>
      <point x="875" y="260" type="line"/>
      <point x="557" y="260" type="line"/>
      <point x="557" y="1082" type="line"/>
    </contour>
    <contour>
      <point x="875" y="1082" type="line"/>
      <point x="762" y="1082" type="line"/>
      <point x="762" y="882" type="line"/>
      <point x="875" y="852" type="line"/>
    </contour>
    <contour>
      <point x="1198" y="1082" type="line"/>
      <point x="1198" y="852" type="line"/>
      <point x="1351" y="882" type="line"/>
      <point x="1351" y="1082" type="line"/>
    </contour>
    <contour>
      <point x="1198" y="0" type="line"/>
      <point x="1351" y="0" type="line"/>
      <point x="1351" y="200" type="line"/>
      <point x="1198" y="230" type="line"/>
    </contour>
    <contour>
      <point x="235" y="0" type="line"/>
      <point x="235" y="230" type="line"/>
      <point x="82" y="200" type="line"/>
      <point x="82" y="0" type="line"/>
    </contour>
    <contour>
      <point x="235" y="1082" type="line"/>
      <point x="82" y="1082" type="line"/>
      <point x="82" y="882" type="line"/>
      <point x="235" y="852" type="line"/>
    </contour>
    <contour>
      <point x="557" y="1082" type="line"/>
      <point x="557" y="852" type="line"/>
      <point x="670" y="882" type="line"/>
      <point x="670" y="1082" type="line"/>
    </contour>
  </outline>
</glyph>
<glyph name="uni0460" format="1">
  <advance width="1924"/>
  <unicode hex="0460"/>
  <outline>
    <contour>
      <point x="828" y="1456" type="line"/>
      <point x="828" y="482" type="line" smooth="yes"/>
      <point x="828" y="312"/>
      <point x="757" y="239"/>
      <point x="637" y="239" type="curve" smooth="yes"/>
      <point x="520" y="239"/>
      <point x="444" y="312"/>
      <point x="444" y="482" type="curve" smooth="yes"/>
      <point x="444" y="1456" type="line"/>
      <point x="121" y="1456" type="line"/>
      <point x="121" y="482" type="line" smooth="yes"/>
      <point x="121" y="155"/>
      <point x="340" y="-21"/>
      <point x="637" y="-21" type="curve" smooth="yes"/>
      <point x="898" y="-21"/>
      <point x="1091" y="155"/>
      <point x="1091" y="482" type="curve" smooth="yes"/>
      <point x="1091" y="1456" type="line"/>
    </contour>
    <contour>
      <point x="1535" y="1456" type="line"/>
      <point x="1535" y="482" type="line" smooth="yes"/>
      <point x="1535" y="312"/>
      <point x="1464" y="239"/>
      <point x="1344" y="239" type="curve" smooth="yes"/>
      <point x="1227" y="239"/>
      <point x="1151" y="312"/>
      <point x="1151" y="482" type="curve" smooth="yes"/>
      <point x="1151" y="1456" type="line"/>
      <point x="888" y="1456" type="line"/>
      <point x="888" y="482" type="line" smooth="yes"/>
      <point x="888" y="155"/>
      <point x="1082" y="-21"/>
      <point x="1344" y="-21" type="curve" smooth="yes"/>
      <point x="1641" y="-21"/>
      <point x="1858" y="155"/>
      <point x="1858" y="482" type="curve" smooth="yes"/>
      <point x="1858" y="1456" type="line"/>
    </contour>
  </outline>
</glyph>
<glyph name="uni0464" format="1">
  <advance width="1947"/>
  <unicode hex="0464"/>
  <outline>
    <contour>
      <point x="1463" y="839" type="line"/>
      <point x="460" y="839" type="line"/>
      <point x="460" y="638" type="line"/>
      <point x="1463" y="638" type="line"/>
    </contour>
    <contour>
      <point x="1876" y="1246" type="line"/>
      <point x="1750" y="1397"/>
      <point x="1562" y="1478"/>
      <point x="1329" y="1478" type="curve" smooth="yes"/>
      <point x="936" y="1478"/>
      <point x="657" y="1186"/>
      <point x="657" y="761" type="curve" smooth="yes"/>
      <point x="657" y="697" type="line" smooth="yes"/>
      <point x="657" y="272"/>
      <point x="936" y="-20"/>
      <point x="1329" y="-20" type="curve" smooth="yes"/>
      <point x="1562" y="-20"/>
      <point x="1750" y="61"/>
      <point x="1876" y="212" type="curve"/>
      <point x="1876" y="515" type="line"/>
      <point x="1634" y="515" type="line"/>
      <point x="1606" y="328" type="line"/>
      <point x="1557" y="271"/>
      <point x="1460" y="240"/>
      <point x="1349" y="240" type="curve" smooth="yes"/>
      <point x="1108" y="240"/>
      <point x="979" y="428"/>
      <point x="979" y="697" type="curve" smooth="yes"/>
      <point x="979" y="763" type="line" smooth="yes"/>
      <point x="979" y="1033"/>
      <point x="1108" y="1218"/>
      <point x="1349" y="1218" type="curve" smooth="yes"/>
      <point x="1469" y="1218"/>
      <point x="1553" y="1187"/>
      <point x="1606" y="1130" type="curve"/>
      <point x="1634" y="943" type="line"/>
      <point x="1876" y="943" type="line"/>
    </contour>
    <contour>
      <point x="531" y="1456" type="line"/>
      <point x="209" y="1456" type="line"/>
      <point x="209" y="0" type="line"/>
      <point x="531" y="0" type="line"/>
    </contour>
    <contour>
      <point x="209" y="0" type="line"/>
      <point x="209" y="230" type="line"/>
      <point x="56" y="200" type="line"/>
      <point x="56" y="0" type="line"/>
    </contour>
    <contour>
      <point x="531" y="0" type="line"/>
      <point x="684" y="0" type="line"/>
      <point x="684" y="200" type="line"/>
      <point x="531" y="230" type="line"/>
    </contour>
    <contour>
      <point x="531" y="1456" type="line"/>
      <point x="531" y="1226" type="line"/>
      <point x="684" y="1256" type="line"/>
      <point x="684" y="1456" type="line"/>
    </contour>
    <contour>
      <point x="209" y="1456" type="line"/>
      <point x="56" y="1456" type="line"/>
      <point x="56" y="1256" type="line"/>
      <point x="209" y="1226" type="line"/>
    </contour>
  </outline>
</glyph>
<glyph name="uni046A" format="1">
  <advance width="1943"/>
  <unicode hex="046A"/>
  <outline>
    <contour>
      <point x="515" y="0" type="line"/>
      <point x="515" y="330" type="line" smooth="yes"/>
      <point x="515" y="488"/>
      <point x="590" y="534"/>
      <point x="744" y="534" type="curve" smooth="yes"/>
      <point x="1230" y="534" type="line" smooth="yes"/>
      <point x="1384" y="534"/>
      <point x="1459" y="488"/>
      <point x="1459" y="330" type="curve" smooth="yes"/>
      <point x="1459" y="0" type="line"/>
      <point x="1781" y="0" type="line"/>
      <point x="1781" y="330" type="line" smooth="yes"/>
      <point x="1781" y="672"/>
      <point x="1577" y="798"/>
      <point x="1230" y="798" type="curve" smooth="yes"/>
      <point x="744" y="798" type="line" smooth="yes"/>
      <point x="397" y="798"/>
      <point x="193" y="672"/>
      <point x="193" y="330" type="curve" smooth="yes"/>
      <point x="193" y="0" type="line"/>
    </contour>
    <contour>
      <point x="1393" y="1456" type="line"/>
      <point x="630" y="1456" type="line"/>
      <point x="630" y="1192" type="line"/>
      <point x="1393" y="1192" type="line"/>
    </contour>
    <contour>
      <point x="934" y="713" type="line"/>
      <point x="972" y="543" type="line"/>
      <point x="1148" y="543" type="line"/>
      <point x="1660" y="1456" type="line"/>
      <point x="1309" y="1456" type="line"/>
    </contour>
    <contour>
      <point x="705" y="1456" type="line"/>
      <point x="354" y="1456" type="line"/>
      <point x="866" y="543" type="line"/>
      <point x="1042" y="543" type="line"/>
      <point x="1084" y="705" type="line"/>
    </contour>
    <contour>
      <point x="1164" y="751" type="line"/>
      <point x="842" y="751" type="line"/>
      <point x="842" y="0" type="line"/>
      <point x="1164" y="0" type="line"/>
    </contour>
    <contour>
      <point x="354" y="1456" type="line"/>
      <point x="291" y="1456" type="line"/>
      <point x="291" y="1256" type="line"/>
      <point x="534" y="1226" type="line"/>
    </contour>
    <contour>
      <point x="193" y="0" type="line"/>
      <point x="193" y="230" type="line"/>
      <point x="60" y="200" type="line"/>
      <point x="60" y="0" type="line"/>
    </contour>
    <contour>
      <point x="1660" y="1456" type="line"/>
      <point x="1480" y="1226" type="line"/>
      <point x="1723" y="1256" type="line"/>
      <point x="1723" y="1456" type="line"/>
    </contour>
    <contour>
      <point x="842" y="0" type="line"/>
      <point x="842" y="230" type="line"/>
      <point x="729" y="200" type="line"/>
      <point x="729" y="0" type="line"/>
    </contour>
    <contour>
      <point x="1781" y="0" type="line"/>
      <point x="1914" y="0" type="line"/>
      <point x="1914" y="200" type="line"/>
      <point x="1781" y="230" type="line"/>
    </contour>
    <contour>
      <point x="1164" y="0" type="line"/>
      <point x="1277" y="0" type="line"/>
      <point x="1277" y="200" type="line"/>
      <point x="1164" y="230" type="line"/>
    </contour>
    <contour>
      <point x="1459" y="0" type="line"/>
      <point x="1459" y="230" type="line"/>
      <point x="1346" y="200" type="line"/>
      <point x="1346" y="0" type="line"/>
    </contour>
    <contour>
      <point x="515" y="0" type="line"/>
      <point x="628" y="0" type="line"/>
      <point x="628" y="200" type="line"/>
      <point x="515" y="230" type="line"/>
    </contour>
  </outline>
</glyph>
<glyph name="uni046C" format="1">
  <advance width="2587"/>
  <unicode hex="046C"/>
  <outline>
    <contour>
      <point x="1434" y="799" type="line"/>
      <point x="446" y="799" type="line"/>
      <point x="446" y="535" type="line"/>
      <point x="1434" y="535" type="line"/>
    </contour>
    <contour>
      <point x="510" y="1456" type="line"/>
      <point x="188" y="1456" type="line"/>
      <point x="188" y="0" type="line"/>
      <point x="510" y="0" type="line"/>
    </contour>
    <contour>
      <point x="188" y="0" type="line"/>
      <point x="188" y="230" type="line"/>
      <point x="35" y="200" type="line"/>
      <point x="35" y="0" type="line"/>
    </contour>
    <contour>
      <point x="510" y="0" type="line"/>
      <point x="663" y="0" type="line"/>
      <point x="663" y="200" type="line"/>
      <point x="510" y="230" type="line"/>
    </contour>
    <contour>
      <point x="510" y="1456" type="line"/>
      <point x="510" y="1226" type="line"/>
      <point x="663" y="1256" type="line"/>
      <point x="663" y="1456" type="line"/>
    </contour>
    <contour>
      <point x="188" y="1456" type="line"/>
      <point x="35" y="1456" type="line"/>
      <point x="35" y="1256" type="line"/>
      <point x="188" y="1226" type="line"/>
    </contour>
    <contour>
      <point x="1157" y="0" type="line"/>
      <point x="1157" y="330" type="line" smooth="yes"/>
      <point x="1157" y="488"/>
      <point x="1232" y="534"/>
      <point x="1386" y="534" type="curve" smooth="yes"/>
      <point x="1872" y="534" type="line" smooth="yes"/>
      <point x="2026" y="534"/>
      <point x="2101" y="488"/>
      <point x="2101" y="330" type="curve" smooth="yes"/>
      <point x="2101" y="0" type="line"/>
      <point x="2423" y="0" type="line"/>
      <point x="2423" y="330" type="line" smooth="yes"/>
      <point x="2423" y="672"/>
      <point x="2219" y="798"/>
      <point x="1872" y="798" type="curve" smooth="yes"/>
      <point x="1386" y="798" type="line" smooth="yes"/>
      <point x="1039" y="798"/>
      <point x="835" y="672"/>
      <point x="835" y="330" type="curve" smooth="yes"/>
      <point x="835" y="0" type="line"/>
    </contour>
    <contour>
      <point x="2035" y="1456" type="line"/>
      <point x="1272" y="1456" type="line"/>
      <point x="1272" y="1192" type="line"/>
      <point x="2035" y="1192" type="line"/>
    </contour>
    <contour>
      <point x="1576" y="713" type="line"/>
      <point x="1614" y="543" type="line"/>
      <point x="1790" y="543" type="line"/>
      <point x="2302" y="1456" type="line"/>
      <point x="1951" y="1456" type="line"/>
    </contour>
    <contour>
      <point x="1347" y="1456" type="line"/>
      <point x="996" y="1456" type="line"/>
      <point x="1508" y="543" type="line"/>
      <point x="1684" y="543" type="line"/>
      <point x="1726" y="705" type="line"/>
    </contour>
    <contour>
      <point x="1806" y="751" type="line"/>
      <point x="1484" y="751" type="line"/>
      <point x="1484" y="0" type="line"/>
      <point x="1806" y="0" type="line"/>
    </contour>
    <contour>
      <point x="996" y="1456" type="line"/>
      <point x="933" y="1456" type="line"/>
      <point x="933" y="1256" type="line"/>
      <point x="1176" y="1226" type="line"/>
    </contour>
    <contour>
      <point x="835" y="0" type="line"/>
      <point x="835" y="230" type="line"/>
      <point x="702" y="200" type="line"/>
      <point x="702" y="0" type="line"/>
    </contour>
    <contour>
      <point x="2302" y="1456" type="line"/>
      <point x="2122" y="1226" type="line"/>
      <point x="2365" y="1256" type="line"/>
      <point x="2365" y="1456" type="line"/>
    </contour>
    <contour>
      <point x="1484" y="0" type="line"/>
      <point x="1484" y="230" type="line"/>
      <point x="1371" y="200" type="line"/>
      <point x="1371" y="0" type="line"/>
    </contour>
    <contour>
      <point x="2423" y="0" type="line"/>
      <point x="2556" y="0" type="line"/>
      <point x="2556" y="200" type="line"/>
      <point x="2423" y="230" type="line"/>
    </contour>
    <contour>
      <point x="1806" y="0" type="line"/>
      <point x="1919" y="0" type="line"/>
      <point x="1919" y="200" type="line"/>
      <point x="1806" y="230" type="line"/>
    </contour>
    <contour>
      <point x="2101" y="0" type="line"/>
      <point x="2101" y="230" type="line"/>
      <point x="1988" y="200" type="line"/>
      <point x="1988" y="0" type="line"/>
    </contour>
    <contour>
      <point x="1157" y="0" type="line"/>
      <point x="1270" y="0" type="line"/>
      <point x="1270" y="200" type="line"/>
      <point x="1157" y="230" type="line"/>
    </contour>
  </outline>
</glyph>
<glyph name="uni046E" format="1">
  <advance width="1156"/>
  <unicode hex="046E"/>
  <outline>
    <contour>
      <point x="1047" y="1082" type="curve" smooth="yes"/>
      <point x="1047" y="1349"/>
      <point x="845" y="1467"/>
      <point x="532" y="1466" type="curve" smooth="yes"/>
      <point x="332" y="1466"/>
      <point x="162" y="1399"/>
      <point x="55" y="1274" type="curve"/>
      <point x="55" y="1001" type="line"/>
      <point x="287" y="1001" type="line"/>
      <point x="315" y="1158" type="line"/>
      <point x="356" y="1189"/>
      <point x="439" y="1206"/>
      <point x="532" y="1206" type="curve"/>
      <point x="671" y="1196"/>
      <point x="724" y="1135"/>
      <point x="724" y="1043" type="curve" smooth="yes"/>
      <point x="724" y="952"/>
      <point x="669" y="875"/>
      <point x="528" y="875" type="curve" smooth="yes"/>
      <point x="385" y="875" type="line"/>
      <point x="385" y="692" type="line"/>
      <point x="533" y="692" type="line" smooth="yes"/>
      <point x="841" y="692"/>
      <point x="1047" y="813"/>
    </contour>
    <contour>
      <point x="385" y="781" type="line"/>
      <point x="385" y="604" type="line"/>
      <point x="518" y="604" type="line" smooth="yes"/>
      <point x="687" y="604"/>
      <point x="777" y="537"/>
      <point x="777" y="404" type="curve" smooth="yes"/>
      <point x="777" y="314"/>
      <point x="698" y="250"/>
      <point x="563" y="250" type="curve" smooth="yes"/>
      <point x="492" y="250" type="line" smooth="yes"/>
      <point x="271" y="250"/>
      <point x="130" y="149"/>
      <point x="130" y="-58" type="curve" smooth="yes"/>
      <point x="132" y="-255"/>
      <point x="235" y="-404"/>
      <point x="478" y="-448" type="curve"/>
      <point x="560" y="-255" type="line"/>
      <point x="509" y="-234"/>
      <point x="421" y="-193"/>
      <point x="421" y="-110" type="curve" smooth="yes"/>
      <point x="421" y="-58"/>
      <point x="450" y="-21"/>
      <point x="524" y="-21" type="curve" smooth="yes"/>
      <point x="584" y="-21" type="line" smooth="yes"/>
      <point x="896" y="-21"/>
      <point x="1100" y="135"/>
      <point x="1100" y="408" type="curve" smooth="yes"/>
      <point x="1100" y="651"/>
      <point x="889" y="781"/>
      <point x="522" y="781" type="curve" smooth="yes"/>
    </contour>
    <contour>
      <point x="449" y="1919" type="line"/>
      <point x="173" y="1919" type="line"/>
      <point x="173" y="1905" type="line"/>
      <point x="463" y="1643" type="line"/>
      <point x="689" y="1643" type="line"/>
      <point x="977" y="1903" type="line"/>
      <point x="977" y="1919" type="line"/>
      <point x="703" y="1919" type="line"/>
      <point x="576" y="1783" type="line"/>
    </contour>
  </outline>
</glyph>
<glyph name="uni0474" format="1">
  <advance width="1418"/>
  <unicode hex="0474"/>
  <outline>
    <contour>
      <point x="762" y="391" type="line"/>
      <point x="683" y="0" type="line"/>
      <point x="919" y="0" type="line"/>
      <point x="1236" y="1095" type="line" smooth="yes"/>
      <point x="1251" y="1154"/>
      <point x="1295" y="1205"/>
      <point x="1350" y="1205" type="curve" smooth="yes"/>
      <point x="1383" y="1205" type="line"/>
      <point x="1386" y="1474" type="line"/>
      <point x="1349" y="1475" type="line" smooth="yes"/>
      <point x="1140" y="1475"/>
      <point x="1030" y="1337"/>
      <point x="960" y="1109" type="curve" smooth="yes"/>
    </contour>
    <contour>
      <point x="436" y="1456" type="line"/>
      <point x="97" y="1456" type="line"/>
      <point x="577" y="0" type="line"/>
      <point x="813" y="0" type="line"/>
      <point x="732" y="395" type="line"/>
    </contour>
    <contour>
      <point x="97" y="1456" type="line"/>
      <point x="34" y="1456" type="line"/>
      <point x="34" y="1256" type="line"/>
      <point x="277" y="1226" type="line"/>
    </contour>
    <contour>
      <point x="436" y="1456" type="line"/>
      <point x="436" y="1226" type="line"/>
      <point x="589" y="1256" type="line"/>
      <point x="589" y="1456" type="line"/>
    </contour>
  </outline>
</glyph>
<glyph name="uni0480" format="1">
  <advance width="1240"/>
  <unicode hex="0480"/>
  <outline>
    <contour>
      <point x="662" y="239" type="line"/>
      <point x="498" y="239"/>
      <point x="421" y="379"/>
      <point x="421" y="576" type="curve" smooth="yes"/>
      <point x="421" y="882" type="line" smooth="yes"/>
      <point x="421" y="1080"/>
      <point x="498" y="1217"/>
      <point x="662" y="1217" type="curve" smooth="yes"/>
      <point x="825" y="1217"/>
      <point x="884" y="1147"/>
      <point x="884" y="967" type="curve"/>
      <point x="1206" y="967" type="line"/>
      <point x="1206" y="1307"/>
      <point x="1008" y="1477"/>
      <point x="662" y="1477" type="curve" smooth="yes"/>
      <point x="317" y="1477"/>
      <point x="99" y="1233"/>
      <point x="99" y="880" type="curve" smooth="yes"/>
      <point x="99" y="576" type="line" smooth="yes"/>
      <point x="99" y="223"/>
      <point x="317" y="-21"/>
      <point x="662" y="-21" type="curve"/>
    </contour>
    <contour>
      <point x="874" y="239" type="line"/>
      <point x="552" y="239" type="line"/>
      <point x="552" y="-356" type="line"/>
      <point x="874" y="-356" type="line"/>
    </contour>
  </outline>
</glyph>
<glyph name="uni0481" format="1">
  <advance width="1067"/>
  <unicode hex="0481"/>
  <outline>
    <contour>
      <point x="592" y="239" type="line"/>
      <point x="441" y="239"/>
      <point x="404" y="369"/>
      <point x="404" y="529" type="curve" smooth="yes"/>
      <point x="404" y="552" type="line" smooth="yes"/>
      <point x="404" y="708"/>
      <point x="442" y="842"/>
      <point x="590" y="842" type="curve" smooth="yes"/>
      <point x="692" y="842"/>
      <point x="738" y="765"/>
      <point x="738" y="668" type="curve"/>
      <point x="1040" y="668" type="line"/>
      <point x="1040" y="943"/>
      <point x="859" y="1102"/>
      <point x="590" y="1102" type="curve" smooth="yes"/>
      <point x="255" y="1102"/>
      <point x="82" y="865"/>
      <point x="82" y="552" type="curve" smooth="yes"/>
      <point x="82" y="529" type="line" smooth="yes"/>
      <point x="82" y="216"/>
      <point x="255" y="-21"/>
      <point x="592" y="-21" type="curve"/>
    </contour>
    <contour>
      <point x="808" y="239" type="line"/>
      <point x="486" y="239" type="line"/>
      <point x="486" y="-358" type="line"/>
      <point x="808" y="-358" type="line"/>
    </contour>
  </outline>
</glyph>
<glyph name="uni0483" format="1">
  <advance width="971"/>
  <unicode hex="0483"/>
  <outline>
    <contour>
      <point x="855" y="1312" type="line"/>
      <point x="855" y="1532" type="line"/>
      <point x="678" y="1533" type="line"/>
      <point x="679" y="1425" type="line"/>
      <point x="133" y="1425" type="line"/>
      <point x="132" y="1187" type="line"/>
      <point x="309" y="1186" type="line"/>
      <point x="309" y="1312" type="line"/>
    </contour>
  </outline>
</glyph>
<glyph name="uni0491" format="1">
  <advance width="1092"/>
  <unicode hex="0491"/>
  <outline>
    <contour>
      <point x="1024" y="1319" type="line"/>
      <point x="792" y="1319" type="line"/>
      <point x="742" y="822" type="line"/>
      <point x="1024" y="822" type="line"/>
    </contour>
    <contour>
      <point x="964" y="1082" type="line"/>
      <point x="209" y="1082" type="line"/>
      <point x="209" y="0" type="line"/>
      <point x="531" y="0" type="line"/>
      <point x="531" y="822" type="line"/>
      <point x="964" y="822" type="line"/>
    </contour>
    <contour>
      <point x="209" y="230" type="line"/>
      <point x="56" y="200" type="line"/>
      <point x="56" y="0" type="line"/>
      <point x="209" y="0" type="line"/>
    </contour>
    <contour>
      <point x="209" y="1082" type="line"/>
      <point x="56" y="1082" type="line"/>
      <point x="56" y="882" type="line"/>
      <point x="209" y="852" type="line"/>
    </contour>
    <contour>
      <point x="684" y="200" type="line"/>
      <point x="531" y="230" type="line"/>
      <point x="531" y="0" type="line"/>
      <point x="684" y="0" type="line"/>
    </contour>
  </outline>
</glyph>
<glyph name="uni0494" format="1">
  <advance width="1350"/>
  <unicode hex="0494"/>
  <outline>
    <contour>
      <point x="1181" y="1456" type="line"/>
      <point x="214" y="1456" type="line"/>
      <point x="214" y="0" type="line"/>
      <point x="537" y="0" type="line"/>
      <point x="537" y="1196" type="line"/>
      <point x="1181" y="1196" type="line"/>
    </contour>
    <contour>
      <point x="214" y="0" type="line"/>
      <point x="214" y="230" type="line"/>
      <point x="61" y="200" type="line"/>
      <point x="61" y="0" type="line"/>
    </contour>
    <contour>
      <point x="537" y="0" type="line"/>
      <point x="690" y="0" type="line"/>
      <point x="690" y="200" type="line"/>
      <point x="537" y="230" type="line"/>
    </contour>
    <contour>
      <point x="1181" y="1456" type="line"/>
      <point x="911" y="1456" type="line"/>
      <point x="940" y="1063" type="line"/>
      <point x="1181" y="1063" type="line"/>
    </contour>
    <contour>
      <point x="214" y="1456" type="line"/>
      <point x="61" y="1456" type="line"/>
      <point x="61" y="1256" type="line"/>
      <point x="214" y="1226" type="line"/>
    </contour>
    <contour>
      <point x="403" y="578" type="line"/>
      <point x="714" y="578" type="line" smooth="yes"/>
      <point x="891" y="578"/>
      <point x="997" y="469"/>
      <point x="996" y="227" type="curve" smooth="yes"/>
      <point x="995" y="123"/>
      <point x="980" y="-114"/>
      <point x="750" y="-114" type="curve"/>
      <point x="750" y="-359" type="line"/>
      <point x="1187" y="-359"/>
      <point x="1318" y="-16"/>
      <point x="1318" y="247" type="curve" smooth="yes"/>
      <point x="1318" y="655"/>
      <point x="1069" y="838"/>
      <point x="714" y="838" type="curve" smooth="yes"/>
      <point x="403" y="838" type="line"/>
    </contour>
  </outline>
</glyph>
<glyph name="uni04A8" format="1">
  <advance width="1627"/>
  <unicode hex="04A8"/>
  <outline>
    <contour>
      <point x="1568" y="237" type="line"/>
      <point x="1174" y="237"/>
      <point x="955" y="458"/>
      <point x="955" y="739" type="curve" smooth="yes"/>
      <point x="955" y="930" type="line" smooth="yes"/>
      <point x="955" y="1143"/>
      <point x="1002" y="1207"/>
      <point x="1085" y="1207" type="curve" smooth="yes"/>
      <point x="1181" y="1207"/>
      <point x="1235" y="1151"/>
      <point x="1235" y="910" type="curve" smooth="yes"/>
      <point x="1235" y="718" type="line" smooth="yes"/>
      <point x="1235" y="453"/>
      <point x="1069" y="250"/>
      <point x="801" y="250" type="curve" smooth="yes"/>
      <point x="565" y="250"/>
      <point x="427" y="421"/>
      <point x="427" y="657" type="curve" smooth="yes"/>
      <point x="427" y="881" type="line" smooth="yes"/>
      <point x="427" y="1066"/>
      <point x="499" y="1206"/>
      <point x="620" y="1206" type="curve"/>
      <point x="620" y="1477" type="line"/>
      <point x="299" y="1477"/>
      <point x="84" y="1217"/>
      <point x="84" y="879" type="curve" smooth="yes"/>
      <point x="84" y="657" type="line" smooth="yes"/>
      <point x="84" y="275"/>
      <point x="371" y="-21"/>
      <point x="801" y="-21" type="curve" smooth="yes"/>
      <point x="1254" y="-21"/>
      <point x="1558" y="302"/>
      <point x="1558" y="718" type="curve" smooth="yes"/>
      <point x="1558" y="867" type="line" smooth="yes"/>
      <point x="1558" y="1225"/>
      <point x="1368" y="1477"/>
      <point x="1085" y="1477" type="curve" smooth="yes"/>
      <point x="826" y="1477"/>
      <point x="653" y="1239"/>
      <point x="653" y="929" type="curve" smooth="yes"/>
      <point x="653" y="741" type="line" smooth="yes"/>
      <point x="653" y="298"/>
      <point x="1020" y="-11"/>
      <point x="1568" y="-11" type="curve"/>
    </contour>
  </outline>
</glyph>
<glyph name="uni04A9" format="1">
  <advance width="1370"/>
  <unicode hex="04A9"/>
  <outline>
    <contour>
      <point x="1308" y="134" type="line"/>
      <point x="979" y="134"/>
      <point x="798" y="296"/>
      <point x="798" y="497" type="curve" smooth="yes"/>
      <point x="798" y="675" type="line" smooth="yes"/>
      <point x="798" y="761"/>
      <point x="833" y="833"/>
      <point x="887" y="833" type="curve" smooth="yes"/>
      <point x="941" y="833"/>
      <point x="976" y="756"/>
      <point x="976" y="658" type="curve" smooth="yes"/>
      <point x="976" y="492" type="line" smooth="yes"/>
      <point x="976" y="352"/>
      <point x="864" y="250"/>
      <point x="684" y="250" type="curve" smooth="yes"/>
      <point x="528" y="250"/>
      <point x="432" y="361"/>
      <point x="432" y="514" type="curve" smooth="yes"/>
      <point x="432" y="629" type="line" smooth="yes"/>
      <point x="432" y="747"/>
      <point x="475" y="820"/>
      <point x="544" y="834" type="curve"/>
      <point x="544" y="1102" type="line"/>
      <point x="272" y="1102"/>
      <point x="89" y="898"/>
      <point x="89" y="627" type="curve" smooth="yes"/>
      <point x="89" y="514" type="line" smooth="yes"/>
      <point x="89" y="210"/>
      <point x="328" y="-21"/>
      <point x="684" y="-21" type="curve" smooth="yes"/>
      <point x="1052" y="-21"/>
      <point x="1298" y="191"/>
      <point x="1298" y="471" type="curve" smooth="yes"/>
      <point x="1298" y="635" type="line" smooth="yes"/>
      <point x="1298" y="898"/>
      <point x="1150" y="1101"/>
      <point x="928" y="1101" type="curve" smooth="yes"/>
      <point x="718" y="1101"/>
      <point x="578" y="920"/>
      <point x="578" y="689" type="curve" smooth="yes"/>
      <point x="578" y="515" type="line" smooth="yes"/>
      <point x="578" y="206"/>
      <point x="801" y="-32"/>
      <point x="1308" y="-32" type="curve"/>
    </contour>
  </outline>
</glyph>
<glyph name="uni04B4" format="1">
  <advance width="1828"/>
  <unicode hex="04B4"/>
  <outline>
    <contour>
      <point x="1145" y="1456" type="line"/>
      <point x="51" y="1456" type="line"/>
      <point x="51" y="1195" type="line"/>
      <point x="1145" y="1195" type="line"/>
    </contour>
    <contour>
      <point x="1145" y="1456" type="line"/>
      <point x="875" y="1456" type="line"/>
      <point x="904" y="1063" type="line"/>
      <point x="1145" y="1063" type="line"/>
    </contour>
    <contour>
      <point x="11" y="1456" type="line"/>
      <point x="11" y="1063" type="line"/>
      <point x="252" y="1063" type="line"/>
      <point x="281" y="1456" type="line"/>
    </contour>
    <contour>
      <point x="1874" y="258" type="line"/>
      <point x="1437" y="258" type="line"/>
      <point x="1437" y="0" type="line"/>
      <point x="1552" y="0" type="line"/>
      <point x="1552" y="-351" type="line"/>
      <point x="1854" y="-351" type="line"/>
    </contour>
    <contour>
      <point x="463" y="0" type="line"/>
      <point x="1665" y="0" type="line"/>
      <point x="1665" y="1456" type="line"/>
      <point x="1342" y="1456" type="line"/>
      <point x="1342" y="260" type="line"/>
      <point x="785" y="260" type="line"/>
      <point x="785" y="1456" type="line"/>
      <point x="463" y="1456" type="line"/>
    </contour>
    <contour>
      <point x="463" y="1456" type="line"/>
      <point x="310" y="1456" type="line"/>
      <point x="310" y="1256" type="line"/>
      <point x="463" y="1226" type="line"/>
    </contour>
    <contour>
      <point x="785" y="1456" type="line"/>
      <point x="785" y="1226" type="line"/>
      <point x="938" y="1256" type="line"/>
      <point x="938" y="1456" type="line"/>
    </contour>
    <contour>
      <point x="1342" y="1456" type="line"/>
      <point x="1189" y="1456" type="line"/>
      <point x="1189" y="1256" type="line"/>
      <point x="1342" y="1226" type="line"/>
    </contour>
    <contour>
      <point x="1665" y="1456" type="line"/>
      <point x="1665" y="1226" type="line"/>
      <point x="1818" y="1256" type="line"/>
      <point x="1818" y="1456" type="line"/>
    </contour>
    <contour>
      <point x="463" y="0" type="line"/>
      <point x="463" y="230" type="line"/>
      <point x="310" y="200" type="line"/>
      <point x="310" y="0" type="line"/>
    </contour>
  </outline>
</glyph>
<glyph name="uni04B5" format="1">
  <advance width="1756"/>
  <unicode hex="04B5"/>
  <outline>
    <contour>
      <point x="887" y="1082" type="line"/>
      <point x="15" y="1082" type="line"/>
      <point x="15" y="821" type="line"/>
      <point x="887" y="821" type="line"/>
    </contour>
    <contour>
      <point x="1027" y="1082" type="line"/>
      <point x="797" y="1082" type="line"/>
      <point x="826" y="689" type="line"/>
      <point x="1027" y="689" type="line"/>
    </contour>
    <contour>
      <point x="15" y="1082" type="line"/>
      <point x="15" y="689" type="line"/>
      <point x="256" y="689" type="line"/>
      <point x="285" y="1082" type="line"/>
    </contour>
    <contour>
      <point x="374" y="0" type="line"/>
      <point x="1457" y="0" type="line"/>
      <point x="1457" y="1082" type="line"/>
      <point x="1134" y="1082" type="line"/>
      <point x="1134" y="260" type="line"/>
      <point x="696" y="260" type="line"/>
      <point x="696" y="1082" type="line"/>
      <point x="374" y="1082" type="line"/>
    </contour>
    <contour>
      <point x="1630" y="258" type="line"/>
      <point x="1193" y="258" type="line"/>
      <point x="1193" y="0" type="line"/>
      <point x="1308" y="0" type="line"/>
      <point x="1308" y="-321" type="line"/>
      <point x="1610" y="-321" type="line"/>
    </contour>
    <contour>
      <point x="1457" y="1082" type="line"/>
      <point x="1457" y="852" type="line"/>
      <point x="1610" y="882" type="line"/>
      <point x="1610" y="1082" type="line"/>
    </contour>
    <contour>
      <point x="374" y="230" type="line"/>
      <point x="221" y="200" type="line"/>
      <point x="221" y="0" type="line"/>
      <point x="374" y="0" type="line"/>
    </contour>
  </outline>
</glyph>
<glyph name="uni04BA" format="1">
  <advance width="1580"/>
  <unicode hex="04BA"/>
  <outline>
    <contour>
      <point x="1374" y="0" type="line"/>
      <point x="1374" y="445" type="line" smooth="yes"/>
      <point x="1374" y="783"/>
      <point x="1144" y="936"/>
      <point x="789" y="936" type="curve" smooth="yes"/>
      <point x="715" y="936"/>
      <point x="533" y="920"/>
      <point x="461" y="896" type="curve"/>
      <point x="461" y="636" type="line"/>
      <point x="531" y="661"/>
      <point x="711" y="676"/>
      <point x="789" y="676" type="curve" smooth="yes"/>
      <point x="965" y="676"/>
      <point x="1052" y="625"/>
      <point x="1052" y="445" type="curve" smooth="yes"/>
      <point x="1052" y="0" type="line"/>
    </contour>
    <contour>
      <point x="527" y="0" type="line"/>
      <point x="527" y="1456" type="line"/>
      <point x="204" y="1456" type="line"/>
      <point x="204" y="0" type="line"/>
    </contour>
    <contour>
      <point x="204" y="0" type="line"/>
      <point x="204" y="230" type="line"/>
      <point x="51" y="200" type="line"/>
      <point x="51" y="0" type="line"/>
    </contour>
    <contour>
      <point x="204" y="1456" type="line"/>
      <point x="51" y="1456" type="line"/>
      <point x="51" y="1256" type="line"/>
      <point x="204" y="1226" type="line"/>
    </contour>
    <contour>
      <point x="527" y="1456" type="line"/>
      <point x="527" y="1226" type="line"/>
      <point x="680" y="1256" type="line"/>
      <point x="680" y="1456" type="line"/>
    </contour>
    <contour>
      <point x="527" y="0" type="line"/>
      <point x="680" y="0" type="line"/>
      <point x="680" y="200" type="line"/>
      <point x="527" y="230" type="line"/>
    </contour>
    <contour>
      <point x="1052" y="0" type="line"/>
      <point x="1052" y="230" type="line"/>
      <point x="899" y="200" type="line"/>
      <point x="899" y="0" type="line"/>
    </contour>
    <contour>
      <point x="1374" y="0" type="line"/>
      <point x="1527" y="0" type="line"/>
      <point x="1527" y="200" type="line"/>
      <point x="1374" y="230" type="line"/>
    </contour>
  </outline>
</glyph>
<glyph name="uni04C3" format="1">
  <advance width="1471"/>
  <unicode hex="04C3"/>
  <outline>
    <contour>
      <point x="544" y="1456" type="line"/>
      <point x="221" y="1456" type="line"/>
      <point x="221" y="0" type="line"/>
      <point x="544" y="0" type="line"/>
    </contour>
    <contour>
      <point x="1364" y="1456" type="line"/>
      <point x="960" y="1456" type="line"/>
      <point x="638" y="880" type="line"/>
      <point x="438" y="880" type="line"/>
      <point x="478" y="578" type="line"/>
      <point x="782" y="578" type="line"/>
    </contour>
    <contour>
      <point x="493" y="575" type="line"/>
      <point x="804" y="575" type="line" smooth="yes"/>
      <point x="981" y="575"/>
      <point x="1087" y="466"/>
      <point x="1086" y="224" type="curve" smooth="yes"/>
      <point x="1085" y="120"/>
      <point x="1070" y="-117"/>
      <point x="840" y="-117" type="curve"/>
      <point x="840" y="-362" type="line"/>
      <point x="1277" y="-362"/>
      <point x="1408" y="-19"/>
      <point x="1408" y="244" type="curve" smooth="yes"/>
      <point x="1408" y="652"/>
      <point x="1159" y="835"/>
      <point x="804" y="835" type="curve" smooth="yes"/>
      <point x="493" y="835" type="line"/>
    </contour>
    <contour>
      <point x="1364" y="1456" type="line"/>
      <point x="1184" y="1226" type="line"/>
      <point x="1387" y="1256" type="line"/>
      <point x="1387" y="1456" type="line"/>
    </contour>
    <contour>
      <point x="221" y="0" type="line"/>
      <point x="221" y="230" type="line"/>
      <point x="68" y="200" type="line"/>
      <point x="68" y="0" type="line"/>
    </contour>
    <contour>
      <point x="544" y="0" type="line"/>
      <point x="697" y="0" type="line"/>
      <point x="697" y="200" type="line"/>
      <point x="544" y="230" type="line"/>
    </contour>
    <contour>
      <point x="544" y="1456" type="line"/>
      <point x="544" y="1226" type="line"/>
      <point x="697" y="1256" type="line"/>
      <point x="697" y="1456" type="line"/>
    </contour>
    <contour>
      <point x="221" y="1456" type="line"/>
      <point x="68" y="1456" type="line"/>
      <point x="68" y="1256" type="line"/>
      <point x="221" y="1226" type="line"/>
    </contour>
  </outline>
</glyph>
<glyph name="uni04C4" format="1">
  <advance width="1213"/>
  <unicode hex="04C4"/>
  <outline>
    <contour>
      <point x="498" y="1082" type="line"/>
      <point x="176" y="1082" type="line"/>
      <point x="176" y="0" type="line"/>
      <point x="498" y="0" type="line"/>
    </contour>
    <contour>
      <point x="1160" y="1082" type="line"/>
      <point x="789" y="1082" type="line"/>
      <point x="587" y="693" type="line"/>
      <point x="413" y="693" type="line"/>
      <point x="450" y="378" type="line"/>
      <point x="738" y="378" type="line"/>
    </contour>
    <contour>
      <point x="277" y="379" type="line"/>
      <point x="588" y="379" type="line" smooth="yes"/>
      <point x="765" y="379"/>
      <point x="871" y="306"/>
      <point x="870" y="148" type="curve" smooth="yes"/>
      <point x="869" y="20"/>
      <point x="792" y="-50"/>
      <point x="680" y="-112" type="curve"/>
      <point x="826" y="-319" type="line"/>
      <point x="1080" y="-217"/>
      <point x="1197" y="-17"/>
      <point x="1192" y="148" type="curve" smooth="yes"/>
      <point x="1192" y="486"/>
      <point x="943" y="639"/>
      <point x="588" y="639" type="curve" smooth="yes"/>
      <point x="277" y="639" type="line"/>
    </contour>
    <contour>
      <point x="1160" y="1082" type="line"/>
      <point x="980" y="852" type="line"/>
      <point x="1173" y="882" type="line"/>
      <point x="1173" y="1082" type="line"/>
    </contour>
    <contour>
      <point x="176" y="0" type="line"/>
      <point x="176" y="230" type="line"/>
      <point x="23" y="200" type="line"/>
      <point x="23" y="0" type="line"/>
    </contour>
    <contour>
      <point x="498" y="0" type="line"/>
      <point x="651" y="0" type="line"/>
      <point x="651" y="200" type="line"/>
      <point x="498" y="230" type="line"/>
    </contour>
    <contour>
      <point x="498" y="1082" type="line"/>
      <point x="498" y="852" type="line"/>
      <point x="641" y="882" type="line"/>
      <point x="641" y="1082" type="line"/>
    </contour>
    <contour>
      <point x="176" y="1082" type="line"/>
      <point x="23" y="1082" type="line"/>
      <point x="23" y="882" type="line"/>
      <point x="176" y="852" type="line"/>
    </contour>
  </outline>
</glyph>
<glyph name="uni04FA" format="1">
  <advance width="1306"/>
  <unicode hex="04FA"/>
  <outline>
    <contour>
      <point x="1274" y="1456" type="line"/>
      <point x="307" y="1456" type="line"/>
      <point x="307" y="0" type="line"/>
      <point x="630" y="0" type="line"/>
      <point x="630" y="1196" type="line"/>
      <point x="1274" y="1196" type="line"/>
    </contour>
    <contour>
      <point x="307" y="0" type="line"/>
      <point x="307" y="230" type="line"/>
      <point x="154" y="200" type="line"/>
      <point x="154" y="0" type="line"/>
    </contour>
    <contour>
      <point x="630" y="0" type="line"/>
      <point x="783" y="0" type="line"/>
      <point x="783" y="200" type="line"/>
      <point x="630" y="230" type="line"/>
    </contour>
    <contour>
      <point x="1274" y="1456" type="line"/>
      <point x="1004" y="1456" type="line"/>
      <point x="1033" y="1063" type="line"/>
      <point x="1274" y="1063" type="line"/>
    </contour>
    <contour>
      <point x="307" y="1456" type="line"/>
      <point x="154" y="1456" type="line"/>
      <point x="154" y="1256" type="line"/>
      <point x="307" y="1226" type="line"/>
    </contour>
    <contour>
      <point x="857" y="822" type="line"/>
      <point x="136" y="822" type="line"/>
      <point x="136" y="671" type="line"/>
      <point x="857" y="671" type="line"/>
    </contour>
    <contour>
      <point x="460" y="117" type="line"/>
      <point x="460" y="-55" type="line" smooth="yes"/>
      <point x="460" y="-123"/>
      <point x="432" y="-157"/>
      <point x="382" y="-157" type="curve" smooth="yes"/>
      <point x="339" y="-157"/>
      <point x="315" y="-153"/>
      <point x="282" y="-145" type="curve"/>
      <point x="268" y="-400" type="line"/>
      <point x="323" y="-413"/>
      <point x="368" y="-417"/>
      <point x="423" y="-417" type="curve" smooth="yes"/>
      <point x="648" y="-417"/>
      <point x="783" y="-289"/>
      <point x="783" y="-55" type="curve" smooth="yes"/>
      <point x="783" y="117" type="line"/>
    </contour>
  </outline>
</glyph>
<glyph name="uni0508" format="1">
  <advance width="1967"/>
  <unicode hex="0508"/>
  <outline>
    <contour>
      <point x="1067" y="1456" type="line"/>
      <point x="437" y="1456" type="line"/>
      <point x="437" y="1192" type="line"/>
      <point x="1067" y="1192" type="line"/>
    </contour>
    <contour>
      <point x="302" y="1456" type="line"/>
      <point x="302" y="768" type="line" smooth="yes"/>
      <point x="302" y="410"/>
      <point x="239" y="264"/>
      <point x="84" y="264" type="curve" smooth="yes"/>
      <point x="43" y="264" type="line"/>
      <point x="43" y="0" type="line"/>
      <point x="96" y="0" type="line" smooth="yes"/>
      <point x="484" y="0"/>
      <point x="625" y="250"/>
      <point x="625" y="768" type="curve" smooth="yes"/>
      <point x="625" y="1456" type="line"/>
    </contour>
    <contour>
      <point x="977" y="387" type="line"/>
      <point x="992" y="96"/>
      <point x="1147" y="-25"/>
      <point x="1403" y="-21" type="curve" smooth="yes"/>
      <point x="1670" y="-21"/>
      <point x="1904" y="158"/>
      <point x="1909" y="529" type="curve" smooth="yes"/>
      <point x="1912" y="666"/>
      <point x="1877" y="802"/>
      <point x="1842" y="932" type="curve"/>
      <point x="1526" y="932" type="line"/>
      <point x="1566" y="799"/>
      <point x="1589" y="662"/>
      <point x="1587" y="529" type="curve" smooth="yes"/>
      <point x="1582" y="354"/>
      <point x="1519" y="245"/>
      <point x="1403" y="243" type="curve" smooth="yes"/>
      <point x="1338" y="243"/>
      <point x="1298" y="304"/>
      <point x="1299" y="387" type="curve" smooth="yes"/>
      <point x="1299" y="1456" type="line"/>
      <point x="977" y="1456" type="line"/>
    </contour>
    <contour>
      <point x="1299" y="1456" type="line"/>
      <point x="1299" y="1226" type="line"/>
      <point x="1452" y="1256" type="line"/>
      <point x="1452" y="1456" type="line"/>
    </contour>
    <contour>
      <point x="1526" y="932" type="line"/>
      <point x="1463" y="932" type="line"/>
      <point x="1463" y="732" type="line"/>
      <point x="1706" y="702" type="line"/>
    </contour>
    <contour>
      <point x="302" y="1456" type="line"/>
      <point x="149" y="1456" type="line"/>
      <point x="149" y="1256" type="line"/>
      <point x="302" y="1226" type="line"/>
    </contour>
  </outline>
</glyph>
<glyph name="uni0510" format="1">
  <advance width="1284"/>
  <unicode hex="0510"/>
  <outline>
    <contour>
      <point x="612" y="786" type="line" smooth="yes"/>
      <point x="273" y="786"/>
      <point x="76" y="651"/>
      <point x="76" y="408" type="curve" smooth="yes"/>
      <point x="76" y="135"/>
      <point x="329" y="-21"/>
      <point x="682" y="-21" type="curve" smooth="yes"/>
      <point x="957" y="-21"/>
      <point x="1251" y="106"/>
      <point x="1251" y="404" type="curve"/>
      <point x="929" y="404" type="line"/>
      <point x="929" y="311"/>
      <point x="827" y="239"/>
      <point x="682" y="239" type="curve" smooth="yes"/>
      <point x="501" y="239"/>
      <point x="398" y="317"/>
      <point x="398" y="415" type="curve" smooth="yes"/>
      <point x="398" y="562"/>
      <point x="491" y="618"/>
      <point x="665" y="618" type="curve" smooth="yes"/>
      <point x="867" y="618" type="line"/>
      <point x="867" y="786" type="line"/>
    </contour>
    <contour>
      <point x="867" y="697" type="line"/>
      <point x="867" y="869" type="line"/>
      <point x="665" y="869" type="line" smooth="yes"/>
      <point x="492" y="869"/>
      <point x="421" y="940"/>
      <point x="421" y="1054" type="curve" smooth="yes"/>
      <point x="421" y="1141"/>
      <point x="502" y="1217"/>
      <point x="682" y="1217" type="curve" smooth="yes"/>
      <point x="808" y="1217"/>
      <point x="908" y="1159"/>
      <point x="908" y="1060" type="curve"/>
      <point x="1231" y="1060" type="line"/>
      <point x="1231" y="1320"/>
      <point x="978" y="1477"/>
      <point x="682" y="1477" type="curve" smooth="yes"/>
      <point x="329" y="1477"/>
      <point x="98" y="1333"/>
      <point x="98" y="1061" type="curve" smooth="yes"/>
      <point x="98" y="861"/>
      <point x="304" y="697"/>
      <point x="612" y="697" type="curve" smooth="yes"/>
    </contour>
  </outline>
</glyph>
<glyph name="emdash" format="1">
  <advance width="1589"/>
  <unicode hex="2014"/>
  <outline>
    <contour>
      <point x="1501" y="842" type="line"/>
      <point x="166" y="842" type="line"/>
      <point x="166" y="578" type="line"/>
      <point x="1501" y="578" type="line"/>
    </contour>
  </outline>
</glyph>
<glyph name="dagger" format="1">
  <advance width="1088"/>
  <unicode hex="2020"/>
  <outline>
    <contour>
      <point x="698" y="1456" type="line"/>
      <point x="376" y="1456" type="line"/>
      <point x="376" y="0" type="line"/>
      <point x="698" y="0" type="line"/>
    </contour>
    <contour>
      <point x="1034" y="1082" type="line"/>
      <point x="45" y="1082" type="line"/>
      <point x="45" y="812" type="line"/>
      <point x="1034" y="812" type="line"/>
    </contour>
  </outline>
</glyph>
<glyph name="daggerdbl" format="1">
  <advance width="1135"/>
  <unicode hex="2021"/>
  <outline>
    <contour>
      <point x="722" y="1456" type="line"/>
      <point x="399" y="1456" type="line"/>
      <point x="399" y="-416" type="line"/>
      <point x="722" y="-416" type="line"/>
    </contour>
    <contour>
      <point x="1058" y="1082" type="line"/>
      <point x="69" y="1082" type="line"/>
      <point x="69" y="822" type="line"/>
      <point x="1058" y="822" type="line"/>
    </contour>
    <contour>
      <point x="1058" y="260" type="line"/>
      <point x="69" y="260" type="line"/>
      <point x="69" y="0" type="line"/>
      <point x="1058" y="0" type="line"/>
    </contour>
  </outline>
</glyph>
<glyph name="bullet" format="1">
  <advance width="707"/>
  <unicode hex="2022"/>
  <outline>
    <contour>
      <point x="115" y="706" type="line" smooth="yes"/>
      <point x="115" y="566"/>
      <point x="212" y="468"/>
      <point x="364" y="468" type="curve" smooth="yes"/>
      <point x="518" y="468"/>
      <point x="612" y="566"/>
      <point x="612" y="706" type="curve" smooth="yes"/>
      <point x="612" y="813" type="line" smooth="yes"/>
      <point x="612" y="954"/>
      <point x="518" y="1054"/>
      <point x="362" y="1054" type="curve" smooth="yes"/>
      <point x="212" y="1054"/>
      <point x="115" y="954"/>
      <point x="115" y="813" type="curve" smooth="yes"/>
    </contour>
  </outline>
</glyph>
<glyph name="uni2113" format="1">
  <advance width="1011"/>
  <unicode hex="2113"/>
  <outline>
    <contour>
      <point x="795" y="291" type="line"/>
      <point x="634" y="291"/>
      <point x="583" y="373"/>
      <point x="583" y="514" type="curve" smooth="yes"/>
      <point x="583" y="1057" type="line" smooth="yes"/>
      <point x="583" y="1159"/>
      <point x="612" y="1206"/>
      <point x="652" y="1206" type="curve" smooth="yes"/>
      <point x="689" y="1206"/>
      <point x="721" y="1166"/>
      <point x="721" y="1119" type="curve" smooth="yes"/>
      <point x="721" y="1075" type="line" smooth="yes"/>
      <point x="721" y="857"/>
      <point x="518" y="605"/>
      <point x="40" y="605" type="curve"/>
      <point x="40" y="418" type="line"/>
      <point x="656" y="418"/>
      <point x="1003" y="809"/>
      <point x="1003" y="1077" type="curve" smooth="yes"/>
      <point x="1003" y="1119" type="line" smooth="yes"/>
      <point x="1003" y="1341"/>
      <point x="852" y="1477"/>
      <point x="642" y="1477" type="curve" smooth="yes"/>
      <point x="395" y="1477"/>
      <point x="240" y="1299"/>
      <point x="240" y="994" type="curve" smooth="yes"/>
      <point x="240" y="431" type="line" smooth="yes"/>
      <point x="240" y="158"/>
      <point x="416" y="-21"/>
      <point x="795" y="-21" type="curve"/>
    </contour>
  </outline>
</glyph>
<glyph name="uni2116" format="1">
  <advance width="2303"/>
  <unicode hex="2116"/>
  <outline>
    <contour>
      <point x="2184" y="567" type="line"/>
      <point x="1595" y="567" type="line"/>
      <point x="1595" y="420" type="line"/>
      <point x="2184" y="420" type="line"/>
    </contour>
    <contour>
      <point x="1547" y="1020" type="line" smooth="yes"/>
      <point x="1547" y="825"/>
      <point x="1681" y="686"/>
      <point x="1895" y="686" type="curve" smooth="yes"/>
      <point x="2108" y="686"/>
      <point x="2240" y="825"/>
      <point x="2240" y="1020" type="curve" smooth="yes"/>
      <point x="2240" y="1137" type="line" smooth="yes"/>
      <point x="2240" y="1332"/>
      <point x="2108" y="1472"/>
      <point x="1893" y="1472" type="curve" smooth="yes"/>
      <point x="1681" y="1472"/>
      <point x="1547" y="1332"/>
      <point x="1547" y="1137" type="curve" smooth="yes"/>
    </contour>
    <contour>
      <point x="1722" y="1137" type="line" smooth="yes"/>
      <point x="1722" y="1243"/>
      <point x="1778" y="1324"/>
      <point x="1893" y="1324" type="curve" smooth="yes"/>
      <point x="2009" y="1324"/>
      <point x="2065" y="1243"/>
      <point x="2065" y="1137" type="curve" smooth="yes"/>
      <point x="2065" y="1020" type="line" smooth="yes"/>
      <point x="2065" y="912"/>
      <point x="2009" y="832"/>
      <point x="1895" y="832" type="curve" smooth="yes"/>
      <point x="1778" y="832"/>
      <point x="1722" y="912"/>
      <point x="1722" y="1020" type="curve" smooth="yes"/>
    </contour>
    <contour>
      <point x="1251" y="151" type="line"/>
      <point x="476" y="1456" type="line"/>
      <point x="259" y="1305" type="line"/>
      <point x="1033" y="0" type="line"/>
    </contour>
    <contour>
      <point x="476" y="1456" type="line"/>
      <point x="153" y="1456" type="line"/>
      <point x="153" y="0" type="line"/>
      <point x="476" y="0" type="line"/>
    </contour>
    <contour>
      <point x="1355" y="1456" type="line"/>
      <point x="1033" y="1456" type="line"/>
      <point x="1033" y="0" type="line"/>
      <point x="1355" y="0" type="line"/>
    </contour>
    <contour>
      <point x="1355" y="1456" type="line"/>
      <point x="1355" y="1226" type="line"/>
      <point x="1508" y="1256" type="line"/>
      <point x="1508" y="1456" type="line"/>
    </contour>
    <contour>
      <point x="1033" y="1456" type="line"/>
      <point x="880" y="1456" type="line"/>
      <point x="880" y="1256" type="line"/>
      <point x="1033" y="1226" type="line"/>
    </contour>
    <contour>
      <point x="476" y="0" type="line"/>
      <point x="629" y="0" type="line"/>
      <point x="629" y="200" type="line"/>
      <point x="476" y="230" type="line"/>
    </contour>
    <contour>
      <point x="153" y="0" type="line"/>
      <point x="153" y="230" type="line"/>
      <point x="0" y="200" type="line"/>
      <point x="0" y="0" type="line"/>
    </contour>
    <contour>
      <point x="153" y="1456" type="line"/>
      <point x="0" y="1456" type="line"/>
      <point x="0" y="1256" type="line"/>
      <point x="153" y="1226" type="line"/>
    </contour>
  </outline>
</glyph>
<glyph name="Omega" format="1">
  <advance width="1341"/>
  <unicode hex="2126"/>
  <outline>
    <contour>
      <point x="909" y="808" type="line" smooth="yes"/>
      <point x="909" y="472"/>
      <point x="832" y="320"/>
      <point x="724" y="268" type="curve"/>
      <point x="724" y="160" type="line"/>
      <point x="985" y="191"/>
      <point x="1272" y="454"/>
      <point x="1272" y="808" type="curve" smooth="yes"/>
      <point x="1272" y="847" type="line" smooth="yes"/>
      <point x="1272" y="1215"/>
      <point x="1027" y="1477"/>
      <point x="670" y="1477" type="curve" smooth="yes"/>
      <point x="314" y="1477"/>
      <point x="71" y="1215"/>
      <point x="71" y="847" type="curve" smooth="yes"/>
      <point x="71" y="808" type="line" smooth="yes"/>
      <point x="71" y="454"/>
      <point x="360" y="189"/>
      <point x="624" y="160" type="curve"/>
      <point x="624" y="268" type="line"/>
      <point x="512" y="319"/>
      <point x="434" y="469"/>
      <point x="434" y="808" type="curve" smooth="yes"/>
      <point x="434" y="849" type="line" smooth="yes"/>
      <point x="434" y="1089"/>
      <point x="524" y="1213"/>
      <point x="670" y="1213" type="curve" smooth="yes"/>
      <point x="820" y="1213"/>
      <point x="909" y="1089"/>
      <point x="909" y="849" type="curve" smooth="yes"/>
    </contour>
    <contour>
      <point x="724" y="0" type="line"/>
      <point x="1232" y="0" type="line"/>
      <point x="1232" y="264" type="line"/>
      <point x="724" y="264" type="line"/>
    </contour>
    <contour>
      <point x="118" y="0" type="line"/>
      <point x="624" y="0" type="line"/>
      <point x="624" y="264" type="line"/>
      <point x="118" y="264" type="line"/>
    </contour>
  </outline>
</glyph>
<glyph name="product" format="1">
  <advance width="1500"/>
  <unicode hex="220F"/>
  <outline>
    <contour>
      <point x="1294" y="1456" type="line"/>
      <point x="196" y="1456" type="line"/>
      <point x="196" y="-270" type="line"/>
      <point x="437" y="-270" type="line"/>
      <point x="437" y="1203" type="line"/>
      <point x="1053" y="1203" type="line"/>
      <point x="1053" y="-270" type="line"/>
      <point x="1294" y="-270" type="line"/>
    </contour>
    <contour>
      <point x="1294" y="1456" type="line"/>
      <point x="1294" y="1226" type="line"/>
      <point x="1447" y="1256" type="line"/>
      <point x="1447" y="1456" type="line"/>
    </contour>
    <contour>
      <point x="196" y="1456" type="line"/>
      <point x="43" y="1456" type="line"/>
      <point x="43" y="1256" type="line"/>
      <point x="196" y="1226" type="line"/>
    </contour>
  </outline>
</glyph>
<glyph name="summation" format="1">
  <advance width="1274"/>
  <unicode hex="2211"/>
  <outline>
    <contour>
      <point x="1238" y="-10" type="line"/>
      <point x="160" y="-10" type="line"/>
      <point x="160" y="-270" type="line"/>
      <point x="1238" y="-270" type="line"/>
    </contour>
    <contour>
      <point x="1219" y="1456" type="line"/>
      <point x="201" y="1456" type="line"/>
      <point x="201" y="1196" type="line"/>
      <point x="1219" y="1196" type="line"/>
    </contour>
    <contour>
      <point x="933" y="621" type="line"/>
      <point x="299" y="1456" type="line"/>
      <point x="40" y="1456" type="line"/>
      <point x="40" y="1306" type="line"/>
      <point x="595" y="603" type="line"/>
      <point x="40" y="-119" type="line"/>
      <point x="40" y="-270" type="line"/>
      <point x="299" y="-270" type="line"/>
      <point x="933" y="584" type="line"/>
    </contour>
    <contour>
      <point x="1238" y="-270" type="line"/>
      <point x="1238" y="123" type="line"/>
      <point x="998" y="123" type="line"/>
      <point x="968" y="-270" type="line"/>
    </contour>
    <contour>
      <point x="1219" y="1456" type="line"/>
      <point x="949" y="1456" type="line"/>
      <point x="978" y="1063" type="line"/>
      <point x="1219" y="1063" type="line"/>
    </contour>
  </outline>
</glyph>
<glyph name="commaaccent" format="1">
  <advance width="451"/>
  <unicode hex="F6C3"/>
  <outline>
    <contour>
      <point x="337" y="285" type="line"/>
      <point x="116" y="285" type="line"/>
      <point x="116" y="164" type="line" smooth="yes"/>
      <point x="116" y="43"/>
      <point x="84" y="-38"/>
      <point x="40" y="-109" type="curve"/>
      <point x="194" y="-189" type="line"/>
      <point x="270" y="-105"/>
      <point x="337" y="49"/>
      <point x="337" y="183" type="curve" smooth="yes"/>
    </contour>
  </outline>
</glyph>
<glyph name="uniFFFC" format="1">
  <advance width="2182"/>
  <unicode hex="FFFC"/>
  <outline>
    <contour>
      <point x="234" y="1169" type="line"/>
      <point x="234" y="1338" type="line"/>
      <point x="430" y="1338" type="line"/>
      <point x="430" y="1454" type="line"/>
      <point x="121" y="1454" type="line"/>
      <point x="121" y="1169" type="line"/>
    </contour>
    <contour>
      <point x="1949" y="1338" type="line"/>
      <point x="1949" y="1169" type="line"/>
      <point x="2060" y="1169" type="line"/>
      <point x="2060" y="1454" type="line"/>
      <point x="1750" y="1454" type="line"/>
      <point x="1750" y="1338" type="line"/>
    </contour>
    <contour>
      <point x="430" y="-398" type="line"/>
      <point x="430" y="-285" type="line"/>
      <point x="234" y="-285" type="line"/>
      <point x="234" y="-83" type="line"/>
      <point x="121" y="-83" type="line"/>
      <point x="121" y="-398" type="line"/>
    </contour>
    <contour>
      <point x="2060" y="-398" type="line"/>
      <point x="2060" y="-83" type="line"/>
      <point x="1949" y="-83" type="line"/>
      <point x="1949" y="-285" type="line"/>
      <point x="1750" y="-285" type="line"/>
      <point x="1750" y="-398" type="line"/>
    </contour>
    <contour>
      <point x="1629" y="-398" type="line"/>
      <point x="1629" y="-285" type="line"/>
      <point x="1351" y="-285" type="line"/>
      <point x="1351" y="-398" type="line"/>
    </contour>
    <contour>
      <point x="829" y="-398" type="line"/>
      <point x="829" y="-285" type="line"/>
      <point x="553" y="-285" type="line"/>
      <point x="553" y="-398" type="line"/>
    </contour>
    <contour>
      <point x="829" y="1338" type="line"/>
      <point x="829" y="1454" type="line"/>
      <point x="553" y="1454" type="line"/>
      <point x="553" y="1338" type="line"/>
    </contour>
    <contour>
      <point x="2060" y="290" type="line"/>
      <point x="1949" y="290" type="line"/>
      <point x="1949" y="41" type="line"/>
      <point x="2060" y="41" type="line"/>
    </contour>
    <contour>
      <point x="2060" y="1044" type="line"/>
      <point x="1949" y="1044" type="line"/>
      <point x="1949" y="794" type="line"/>
      <point x="2060" y="794" type="line"/>
    </contour>
    <contour>
      <point x="1229" y="-398" type="line"/>
      <point x="1229" y="-285" type="line"/>
      <point x="952" y="-285" type="line"/>
      <point x="952" y="-398" type="line"/>
    </contour>
    <contour>
      <point x="234" y="290" type="line"/>
      <point x="121" y="290" type="line"/>
      <point x="121" y="41" type="line"/>
      <point x="234" y="41" type="line"/>
    </contour>
    <contour>
      <point x="1229" y="1338" type="line"/>
      <point x="1229" y="1454" type="line"/>
      <point x="952" y="1454" type="line"/>
      <point x="952" y="1338" type="line"/>
    </contour>
    <contour>
      <point x="1629" y="1338" type="line"/>
      <point x="1629" y="1454" type="line"/>
      <point x="1351" y="1454" type="line"/>
      <point x="1351" y="1338" type="line"/>
    </contour>
    <contour>
      <point x="234" y="668" type="line"/>
      <point x="121" y="668" type="line"/>
      <point x="121" y="416" type="line"/>
      <point x="234" y="416" type="line"/>
    </contour>
    <contour>
      <point x="234" y="1044" type="line"/>
      <point x="121" y="1044" type="line"/>
      <point x="121" y="794" type="line"/>
      <point x="234" y="794" type="line"/>
    </contour>
    <contour>
      <point x="2060" y="668" type="line"/>
      <point x="1949" y="668" type="line"/>
      <point x="1949" y="416" type="line"/>
      <point x="2060" y="416" type="line"/>
    </contour>
    <contour>
      <point x="1717" y="425" type="line" smooth="yes"/>
      <point x="1717" y="367"/>
      <point x="1676" y="327"/>
      <point x="1622" y="327" type="curve" smooth="yes"/>
      <point x="1558" y="327"/>
      <point x="1518" y="356"/>
      <point x="1518" y="418" type="curve"/>
      <point x="1425" y="418" type="line"/>
      <point x="1425" y="307"/>
      <point x="1505" y="254"/>
      <point x="1622" y="254" type="curve" smooth="yes"/>
      <point x="1729" y="254"/>
      <point x="1809" y="319"/>
      <point x="1809" y="425" type="curve" smooth="yes"/>
      <point x="1809" y="803" type="line"/>
      <point x="1717" y="803" type="line"/>
    </contour>
    <contour>
      <point x="1143" y="496" type="line" smooth="yes"/>
      <point x="1161" y="496"/>
      <point x="1153" y="496"/>
      <point x="1169" y="501" type="curve"/>
      <point x="1171" y="502"/>
      <point x="1174" y="521"/>
      <point x="1176" y="521" type="curve"/>
      <point x="1270" y="529"/>
      <point x="1322" y="583"/>
      <point x="1322" y="651" type="curve" smooth="yes"/>
      <point x="1322" y="754"/>
      <point x="1241" y="801"/>
      <point x="1110" y="801" type="curve" smooth="yes"/>
      <point x="922" y="801" type="line"/>
      <point x="922" y="252" type="line"/>
      <point x="1017" y="252" type="line"/>
      <point x="1017" y="717" type="line"/>
      <point x="1110" y="717" type="line" smooth="yes"/>
      <point x="1189" y="717"/>
      <point x="1228" y="700"/>
      <point x="1228" y="646" type="curve" smooth="yes"/>
      <point x="1228" y="594"/>
      <point x="1189" y="566"/>
      <point x="1110" y="566" type="curve" smooth="yes"/>
      <point x="992" y="566" type="line"/>
      <point x="993" y="496" type="line"/>
    </contour>
    <contour>
      <point x="1143" y="252" type="line" smooth="yes"/>
      <point x="1265" y="252"/>
      <point x="1340" y="305"/>
      <point x="1340" y="407" type="curve" smooth="yes"/>
      <point x="1340" y="474"/>
      <point x="1294" y="532"/>
      <point x="1209" y="540" type="curve"/>
      <point x="1209" y="540"/>
      <point x="1202" y="558"/>
      <point x="1202" y="560" type="curve"/>
      <point x="1186" y="566"/>
      <point x="1194" y="566"/>
      <point x="1176" y="566" type="curve" smooth="yes"/>
      <point x="1025" y="566" type="line"/>
      <point x="1024" y="496" type="line"/>
      <point x="1143" y="496" type="line" smooth="yes"/>
      <point x="1212" y="496"/>
      <point x="1246" y="462"/>
      <point x="1246" y="410" type="curve" smooth="yes"/>
      <point x="1246" y="358"/>
      <point x="1212" y="327"/>
      <point x="1143" y="327" type="curve" smooth="yes"/>
      <point x="1006" y="327" type="line"/>
      <point x="958" y="252" type="line"/>
    </contour>
    <contour>
      <point x="855" y="580" type="line" smooth="yes"/>
      <point x="855" y="709"/>
      <point x="761" y="799"/>
      <point x="624" y="799" type="curve" smooth="yes"/>
      <point x="488" y="799"/>
      <point x="394" y="709"/>
      <point x="394" y="580" type="curve" smooth="yes"/>
      <point x="394" y="468" type="line" smooth="yes"/>
      <point x="394" y="338"/>
      <point x="488" y="249"/>
      <point x="626" y="249" type="curve" smooth="yes"/>
      <point x="762" y="249"/>
      <point x="855" y="338"/>
      <point x="855" y="468" type="curve" smooth="yes"/>
    </contour>
    <contour>
      <point x="763" y="468" type="line" smooth="yes"/>
      <point x="763" y="376"/>
      <point x="711" y="321"/>
      <point x="626" y="321" type="curve" smooth="yes"/>
      <point x="539" y="321"/>
      <point x="486" y="376"/>
      <point x="486" y="468" type="curve" smooth="yes"/>
      <point x="486" y="580" type="line" smooth="yes"/>
      <point x="486" y="671"/>
      <point x="539" y="727"/>
      <point x="624" y="727" type="curve" smooth="yes"/>
      <point x="710" y="727"/>
      <point x="763" y="671"/>
      <point x="763" y="580" type="curve" smooth="yes"/>
    </contour>
  </outline>
</glyph>
<glyph name="C.ss04" format="1">
  <advance width="1279"/>
  <outline>
    <contour>
      <point x="926" y="511" type="line"/>
      <point x="916" y="330"/>
      <point x="859" y="239"/>
      <point x="683" y="239" type="curve" smooth="yes"/>
      <point x="507" y="239"/>
      <point x="403" y="379"/>
      <point x="403" y="576" type="curve" smooth="yes"/>
      <point x="403" y="882" type="line" smooth="yes"/>
      <point x="403" y="1080"/>
      <point x="500" y="1217"/>
      <point x="663" y="1217" type="curve" smooth="yes"/>
      <point x="856" y="1217"/>
      <point x="918" y="1117"/>
      <point x="928" y="937" type="curve"/>
      <point x="1250" y="937" type="line"/>
      <point x="1220" y="1277"/>
      <point x="1035" y="1477"/>
      <point x="663" y="1477" type="curve" smooth="yes"/>
      <point x="318" y="1477"/>
      <point x="81" y="1233"/>
      <point x="81" y="880" type="curve" smooth="yes"/>
      <point x="81" y="576" type="line" smooth="yes"/>
      <point x="81" y="223"/>
      <point x="326" y="-21"/>
      <point x="683" y="-21" type="curve" smooth="yes"/>
      <point x="1043" y="-21"/>
      <point x="1228" y="169"/>
      <point x="1248" y="511" type="curve"/>
    </contour>
  </outline>
</glyph>
<glyph name="F.smcp" format="1">
  <advance width="1181"/>
  <outline>
    <contour>
      <point x="555" y="1165" type="line"/>
      <point x="233" y="1165" type="line"/>
      <point x="233" y="0" type="line"/>
      <point x="555" y="0" type="line"/>
    </contour>
    <contour>
      <point x="1038" y="672" type="line"/>
      <point x="461" y="672" type="line"/>
      <point x="461" y="433" type="line"/>
      <point x="1038" y="433" type="line"/>
    </contour>
    <contour>
      <point x="1125" y="1165" type="line"/>
      <point x="461" y="1165" type="line"/>
      <point x="461" y="907" type="line"/>
      <point x="1125" y="907" type="line"/>
    </contour>
    <contour>
      <point x="1125" y="1165" type="line"/>
      <point x="855" y="1165" type="line"/>
      <point x="884" y="772" type="line"/>
      <point x="1125" y="772" type="line"/>
    </contour>
    <contour>
      <point x="233" y="0" type="line"/>
      <point x="233" y="230" type="line"/>
      <point x="80" y="200" type="line"/>
      <point x="80" y="0" type="line"/>
    </contour>
    <contour>
      <point x="555" y="0" type="line"/>
      <point x="708" y="0" type="line"/>
      <point x="708" y="200" type="line"/>
      <point x="555" y="230" type="line"/>
    </contour>
    <contour>
      <point x="233" y="1165" type="line"/>
      <point x="80" y="1165" type="line"/>
      <point x="80" y="965" type="line"/>
      <point x="233" y="935" type="line"/>
    </contour>
  </outline>
</glyph>
<glyph name="G.smcp" format="1">
  <advance width="1236"/>
  <outline>
    <contour>
      <point x="1159" y="632" type="line"/>
      <point x="630" y="632" type="line"/>
      <point x="630" y="420" type="line"/>
      <point x="836" y="420" type="line"/>
      <point x="836" y="274" type="line"/>
      <point x="803" y="254"/>
      <point x="759" y="241"/>
      <point x="639" y="241" type="curve" smooth="yes"/>
      <point x="495" y="241"/>
      <point x="417" y="333"/>
      <point x="417" y="461" type="curve" smooth="yes"/>
      <point x="417" y="705" type="line" smooth="yes"/>
      <point x="417" y="834"/>
      <point x="492" y="924"/>
      <point x="622" y="924" type="curve" smooth="yes"/>
      <point x="738" y="924"/>
      <point x="790" y="888"/>
      <point x="810" y="792" type="curve"/>
      <point x="1132" y="792" type="line"/>
      <point x="1102" y="1060"/>
      <point x="921" y="1181"/>
      <point x="622" y="1181" type="curve" smooth="yes"/>
      <point x="315" y="1181"/>
      <point x="95" y="987"/>
      <point x="95" y="704" type="curve" smooth="yes"/>
      <point x="95" y="461" type="line" smooth="yes"/>
      <point x="95" y="178"/>
      <point x="319" y="-17"/>
      <point x="639" y="-17" type="curve" smooth="yes"/>
      <point x="935" y="-17"/>
      <point x="1080" y="78"/>
      <point x="1159" y="163" type="curve"/>
    </contour>
  </outline>
</glyph>
<glyph name="H.smcp" format="1">
  <advance width="1529"/>
  <outline>
    <contour>
      <point x="1101" y="702" type="line"/>
      <point x="441" y="702" type="line"/>
      <point x="441" y="443" type="line"/>
      <point x="1101" y="443" type="line"/>
    </contour>
    <contour>
      <point x="555" y="1165" type="line"/>
      <point x="233" y="1165" type="line"/>
      <point x="233" y="0" type="line"/>
      <point x="555" y="0" type="line"/>
    </contour>
    <contour>
      <point x="1313" y="1165" type="line"/>
      <point x="990" y="1165" type="line"/>
      <point x="990" y="0" type="line"/>
      <point x="1313" y="0" type="line"/>
    </contour>
    <contour>
      <point x="1313" y="1165" type="line"/>
      <point x="1313" y="935" type="line"/>
      <point x="1466" y="965" type="line"/>
      <point x="1466" y="1165" type="line"/>
    </contour>
    <contour>
      <point x="990" y="1165" type="line"/>
      <point x="837" y="1165" type="line"/>
      <point x="837" y="965" type="line"/>
      <point x="990" y="935" type="line"/>
    </contour>
    <contour>
      <point x="990" y="0" type="line"/>
      <point x="990" y="230" type="line"/>
      <point x="837" y="200" type="line"/>
      <point x="837" y="0" type="line"/>
    </contour>
    <contour>
      <point x="1313" y="0" type="line"/>
      <point x="1466" y="0" type="line"/>
      <point x="1466" y="200" type="line"/>
      <point x="1313" y="230" type="line"/>
    </contour>
    <contour>
      <point x="555" y="0" type="line"/>
      <point x="708" y="0" type="line"/>
      <point x="708" y="200" type="line"/>
      <point x="555" y="230" type="line"/>
    </contour>
    <contour>
      <point x="233" y="0" type="line"/>
      <point x="233" y="230" type="line"/>
      <point x="80" y="200" type="line"/>
      <point x="80" y="0" type="line"/>
    </contour>
    <contour>
      <point x="233" y="1165" type="line"/>
      <point x="80" y="1165" type="line"/>
      <point x="80" y="965" type="line"/>
      <point x="233" y="935" type="line"/>
    </contour>
    <contour>
      <point x="555" y="1165" type="line"/>
      <point x="555" y="935" type="line"/>
      <point x="708" y="965" type="line"/>
      <point x="708" y="1165" type="line"/>
    </contour>
  </outline>
</glyph>
<glyph name="J.smcp" format="1">
  <advance width="1130"/>
  <outline>
    <contour>
      <point x="638" y="399" type="line" smooth="yes"/>
      <point x="638" y="298"/>
      <point x="581" y="238"/>
      <point x="504" y="238" type="curve" smooth="yes"/>
      <point x="431" y="238"/>
      <point x="355" y="279"/>
      <point x="355" y="383" type="curve"/>
      <point x="32" y="383" type="line"/>
      <point x="32" y="116"/>
      <point x="224" y="-21"/>
      <point x="504" y="-21" type="curve" smooth="yes"/>
      <point x="770" y="-21"/>
      <point x="961" y="144"/>
      <point x="961" y="399" type="curve" smooth="yes"/>
      <point x="961" y="1165" type="line"/>
      <point x="638" y="1165" type="line"/>
    </contour>
    <contour>
      <point x="961" y="1165" type="line"/>
      <point x="961" y="935" type="line"/>
      <point x="1114" y="965" type="line"/>
      <point x="1114" y="1165" type="line"/>
    </contour>
    <contour>
      <point x="638" y="1165" type="line"/>
      <point x="485" y="1165" type="line"/>
      <point x="485" y="965" type="line"/>
      <point x="638" y="935" type="line"/>
    </contour>
  </outline>
</glyph>
<glyph name="M.smcp" format="1">
  <advance width="1765"/>
  <outline>
    <contour>
      <point x="883" y="372" type="line"/>
      <point x="649" y="1165" type="line"/>
      <point x="395" y="1165" type="line"/>
      <point x="776" y="0" type="line"/>
      <point x="991" y="0" type="line"/>
      <point x="1373" y="1165" type="line"/>
      <point x="1120" y="1165" type="line"/>
    </contour>
    <contour>
      <point x="555" y="1165" type="line"/>
      <point x="233" y="1165" type="line"/>
      <point x="233" y="0" type="line"/>
      <point x="555" y="0" type="line"/>
    </contour>
    <contour>
      <point x="1222" y="0" type="line"/>
      <point x="1544" y="0" type="line"/>
      <point x="1544" y="1165" type="line"/>
      <point x="1222" y="1165" type="line"/>
    </contour>
    <contour>
      <point x="1222" y="0" type="line"/>
      <point x="1222" y="230" type="line"/>
      <point x="1119" y="200" type="line"/>
      <point x="1119" y="0" type="line"/>
    </contour>
    <contour>
      <point x="1544" y="0" type="line"/>
      <point x="1697" y="0" type="line"/>
      <point x="1697" y="200" type="line"/>
      <point x="1544" y="230" type="line"/>
    </contour>
    <contour>
      <point x="1544" y="1165" type="line"/>
      <point x="1544" y="935" type="line"/>
      <point x="1697" y="965" type="line"/>
      <point x="1697" y="1165" type="line"/>
    </contour>
    <contour>
      <point x="555" y="0" type="line"/>
      <point x="658" y="0" type="line"/>
      <point x="658" y="200" type="line"/>
      <point x="555" y="230" type="line"/>
    </contour>
    <contour>
      <point x="233" y="0" type="line"/>
      <point x="233" y="230" type="line"/>
      <point x="80" y="200" type="line"/>
      <point x="80" y="0" type="line"/>
    </contour>
    <contour>
      <point x="233" y="1165" type="line"/>
      <point x="80" y="1165" type="line"/>
      <point x="80" y="965" type="line"/>
      <point x="233" y="935" type="line"/>
    </contour>
  </outline>
</glyph>
<glyph name="O.smcp" format="1">
  <advance width="1232"/>
  <outline>
    <contour>
      <point x="1156" y="704" type="line" smooth="yes"/>
      <point x="1156" y="987"/>
      <point x="939" y="1181"/>
      <point x="629" y="1181" type="curve" smooth="yes"/>
      <point x="319" y="1181"/>
      <point x="103" y="987"/>
      <point x="103" y="704" type="curve" smooth="yes"/>
      <point x="103" y="461" type="line" smooth="yes"/>
      <point x="103" y="178"/>
      <point x="321" y="-21"/>
      <point x="630" y="-21" type="curve" smooth="yes"/>
      <point x="941" y="-21"/>
      <point x="1156" y="178"/>
      <point x="1156" y="461" type="curve" smooth="yes"/>
    </contour>
    <contour>
      <point x="834" y="461" type="line" smooth="yes"/>
      <point x="834" y="350"/>
      <point x="762" y="238"/>
      <point x="630" y="238" type="curve" smooth="yes"/>
      <point x="495" y="238"/>
      <point x="425" y="350"/>
      <point x="425" y="461" type="curve" smooth="yes"/>
      <point x="425" y="705" type="line" smooth="yes"/>
      <point x="425" y="817"/>
      <point x="494" y="924"/>
      <point x="629" y="924" type="curve" smooth="yes"/>
      <point x="760" y="924"/>
      <point x="834" y="817"/>
      <point x="834" y="705" type="curve" smooth="yes"/>
    </contour>
  </outline>
</glyph>
<glyph name="Q.smcp" format="1">
  <advance width="1232"/>
  <outline>
    <contour>
      <point x="843" y="224" type="line"/>
      <point x="639" y="70" type="line"/>
      <point x="1006" y="-210" type="line"/>
      <point x="1209" y="-58" type="line"/>
    </contour>
    <contour>
      <point x="1143" y="704" type="line" smooth="yes"/>
      <point x="1143" y="987"/>
      <point x="926" y="1181"/>
      <point x="616" y="1181" type="curve" smooth="yes"/>
      <point x="306" y="1181"/>
      <point x="90" y="987"/>
      <point x="90" y="704" type="curve" smooth="yes"/>
      <point x="90" y="461" type="line" smooth="yes"/>
      <point x="90" y="178"/>
      <point x="308" y="-21"/>
      <point x="617" y="-21" type="curve" smooth="yes"/>
      <point x="928" y="-21"/>
      <point x="1143" y="178"/>
      <point x="1143" y="461" type="curve" smooth="yes"/>
    </contour>
    <contour>
      <point x="821" y="461" type="line" smooth="yes"/>
      <point x="821" y="350"/>
      <point x="749" y="238"/>
      <point x="617" y="238" type="curve" smooth="yes"/>
      <point x="482" y="238"/>
      <point x="412" y="350"/>
      <point x="412" y="461" type="curve" smooth="yes"/>
      <point x="412" y="705" type="line" smooth="yes"/>
      <point x="412" y="817"/>
      <point x="481" y="924"/>
      <point x="616" y="924" type="curve" smooth="yes"/>
      <point x="747" y="924"/>
      <point x="821" y="817"/>
      <point x="821" y="705" type="curve" smooth="yes"/>
    </contour>
  </outline>
</glyph>
<glyph name="S.smcp" format="1">
  <advance width="1134"/>
  <outline>
    <contour>
      <point x="741" y="332" type="curve" smooth="yes"/>
      <point x="741" y="281"/>
      <point x="702" y="237"/>
      <point x="572" y="237" type="curve" smooth="yes"/>
      <point x="456" y="237"/>
      <point x="384" y="265"/>
      <point x="379" y="365" type="curve"/>
      <point x="57" y="365" type="line"/>
      <point x="57" y="147"/>
      <point x="238" y="-21"/>
      <point x="572" y="-21" type="curve" smooth="yes"/>
      <point x="869" y="-21"/>
      <point x="1062" y="132"/>
      <point x="1062" y="337" type="curve" smooth="yes"/>
      <point x="1062" y="563"/>
      <point x="903" y="653"/>
      <point x="635" y="698" type="curve" smooth="yes"/>
      <point x="450" y="731"/>
      <point x="425" y="774"/>
      <point x="425" y="833" type="curve" smooth="yes"/>
      <point x="425" y="881"/>
      <point x="459" y="925"/>
      <point x="568" y="925" type="curve" smooth="yes"/>
      <point x="688" y="925"/>
      <point x="721" y="881"/>
      <point x="721" y="804" type="curve"/>
      <point x="1043" y="804" type="line"/>
      <point x="1043" y="1031"/>
      <point x="868" y="1182"/>
      <point x="568" y="1182" type="curve" smooth="yes"/>
      <point x="276" y="1182"/>
      <point x="105" y="1017"/>
      <point x="105" y="831" type="curve" smooth="yes"/>
      <point x="105" y="600"/>
      <point x="249" y="512"/>
      <point x="542" y="463" type="curve" smooth="yes"/>
      <point x="702" y="434"/>
      <point x="741" y="389"/>
    </contour>
  </outline>
</glyph>
<glyph name="T.smcp" format="1">
  <advance width="1272"/>
  <outline>
    <contour>
      <point x="790" y="1165" type="line"/>
      <point x="467" y="1165" type="line"/>
      <point x="467" y="0" type="line"/>
      <point x="790" y="0" type="line"/>
    </contour>
    <contour>
      <point x="1133" y="1165" type="line"/>
      <point x="129" y="1165" type="line"/>
      <point x="129" y="907" type="line"/>
      <point x="1133" y="907" type="line"/>
    </contour>
    <contour>
      <point x="467" y="0" type="line"/>
      <point x="467" y="230" type="line"/>
      <point x="314" y="200" type="line"/>
      <point x="314" y="0" type="line"/>
    </contour>
    <contour>
      <point x="790" y="0" type="line"/>
      <point x="943" y="0" type="line"/>
      <point x="943" y="200" type="line"/>
      <point x="790" y="230" type="line"/>
    </contour>
    <contour>
      <point x="49" y="1165" type="line"/>
      <point x="49" y="772" type="line"/>
      <point x="290" y="772" type="line"/>
      <point x="319" y="1165" type="line"/>
    </contour>
    <contour>
      <point x="1213" y="1165" type="line"/>
      <point x="943" y="1165" type="line"/>
      <point x="972" y="772" type="line"/>
      <point x="1213" y="772" type="line"/>
    </contour>
  </outline>
</glyph>
<glyph name="U.smcp" format="1">
  <advance width="1338"/>
  <outline>
    <contour>
      <point x="876" y="1165" type="line"/>
      <point x="876" y="422" type="line" smooth="yes"/>
      <point x="876" y="298"/>
      <point x="814" y="238"/>
      <point x="673" y="238" type="curve" smooth="yes"/>
      <point x="536" y="238"/>
      <point x="467" y="298"/>
      <point x="467" y="422" type="curve" smooth="yes"/>
      <point x="467" y="1165" type="line"/>
      <point x="145" y="1165" type="line"/>
      <point x="145" y="422" type="line" smooth="yes"/>
      <point x="145" y="142"/>
      <point x="357" y="-21"/>
      <point x="673" y="-21" type="curve" smooth="yes"/>
      <point x="990" y="-21"/>
      <point x="1200" y="142"/>
      <point x="1200" y="422" type="curve" smooth="yes"/>
      <point x="1200" y="1165" type="line"/>
    </contour>
    <contour>
      <point x="467" y="1165" type="line"/>
      <point x="467" y="935" type="line"/>
      <point x="620" y="965" type="line"/>
      <point x="620" y="1165" type="line"/>
    </contour>
    <contour>
      <point x="145" y="1165" type="line"/>
      <point x="32" y="1165" type="line"/>
      <point x="32" y="965" type="line"/>
      <point x="145" y="935" type="line"/>
    </contour>
    <contour>
      <point x="876" y="1165" type="line"/>
      <point x="723" y="1165" type="line"/>
      <point x="723" y="965" type="line"/>
      <point x="876" y="935" type="line"/>
    </contour>
    <contour>
      <point x="1200" y="1165" type="line"/>
      <point x="1200" y="935" type="line"/>
      <point x="1313" y="965" type="line"/>
      <point x="1313" y="1165" type="line"/>
    </contour>
  </outline>
</glyph>
<glyph name="V.smcp" format="1">
  <advance width="1306"/>
  <outline>
    <contour>
      <point x="665" y="310" type="line"/>
      <point x="608" y="0" type="line"/>
      <point x="841" y="0" type="line"/>
      <point x="1245" y="1165" type="line"/>
      <point x="909" y="1165" type="line"/>
    </contour>
    <contour>
      <point x="415" y="1165" type="line"/>
      <point x="78" y="1165" type="line"/>
      <point x="482" y="0" type="line"/>
      <point x="717" y="0" type="line"/>
      <point x="655" y="316" type="line"/>
    </contour>
    <contour>
      <point x="909" y="1165" type="line"/>
      <point x="756" y="1165" type="line"/>
      <point x="756" y="965" type="line"/>
      <point x="909" y="935" type="line"/>
    </contour>
    <contour>
      <point x="1245" y="1165" type="line"/>
      <point x="1065" y="935" type="line"/>
      <point x="1288" y="965" type="line"/>
      <point x="1288" y="1165" type="line"/>
    </contour>
    <contour>
      <point x="78" y="1165" type="line"/>
      <point x="35" y="1165" type="line"/>
      <point x="35" y="965" type="line"/>
      <point x="258" y="935" type="line"/>
    </contour>
    <contour>
      <point x="415" y="1165" type="line"/>
      <point x="415" y="935" type="line"/>
      <point x="568" y="965" type="line"/>
      <point x="568" y="1165" type="line"/>
    </contour>
  </outline>
</glyph>
<glyph name="Y.smcp" format="1">
  <advance width="1218"/>
  <outline>
    <contour>
      <point x="545" y="544" type="line"/>
      <point x="577" y="371" type="line"/>
      <point x="746" y="371" type="line"/>
      <point x="1156" y="1165" type="line"/>
      <point x="809" y="1165" type="line"/>
    </contour>
    <contour>
      <point x="405" y="1165" type="line"/>
      <point x="58" y="1165" type="line"/>
      <point x="468" y="371" type="line"/>
      <point x="636" y="371" type="line"/>
      <point x="673" y="538" type="line"/>
    </contour>
    <contour>
      <point x="765" y="538" type="line"/>
      <point x="443" y="538" type="line"/>
      <point x="443" y="0" type="line"/>
      <point x="765" y="0" type="line"/>
    </contour>
    <contour>
      <point x="443" y="0" type="line"/>
      <point x="443" y="230" type="line"/>
      <point x="290" y="200" type="line"/>
      <point x="290" y="0" type="line"/>
    </contour>
    <contour>
      <point x="765" y="0" type="line"/>
      <point x="918" y="0" type="line"/>
      <point x="918" y="200" type="line"/>
      <point x="765" y="230" type="line"/>
    </contour>
    <contour>
      <point x="58" y="1165" type="line"/>
      <point x="25" y="1165" type="line"/>
      <point x="25" y="965" type="line"/>
      <point x="238" y="935" type="line"/>
    </contour>
    <contour>
      <point x="405" y="1165" type="line"/>
      <point x="405" y="935" type="line"/>
      <point x="558" y="965" type="line"/>
      <point x="558" y="1165" type="line"/>
    </contour>
    <contour>
      <point x="809" y="1165" type="line"/>
      <point x="656" y="1165" type="line"/>
      <point x="656" y="965" type="line"/>
      <point x="809" y="935" type="line"/>
    </contour>
    <contour>
      <point x="1156" y="1165" type="line"/>
      <point x="976" y="935" type="line"/>
      <point x="1189" y="965" type="line"/>
      <point x="1189" y="1165" type="line"/>
    </contour>
  </outline>
</glyph>
<glyph name="alpha.alt" format="1">
  <advance width="1208"/>
  <outline>
    <contour>
      <point x="82" y="518" type="line" smooth="yes"/>
      <point x="82" y="203"/>
      <point x="237" y="-21"/>
      <point x="523" y="-21" type="curve" smooth="yes"/>
      <point x="798" y="-21"/>
      <point x="904" y="217"/>
      <point x="949" y="510" type="curve"/>
      <point x="949" y="535" type="line"/>
      <point x="904" y="848"/>
      <point x="798" y="1102"/>
      <point x="525" y="1102" type="curve" smooth="yes"/>
      <point x="237" y="1102"/>
      <point x="82" y="868"/>
      <point x="82" y="539" type="curve" smooth="yes"/>
    </contour>
    <contour>
      <point x="405" y="539" type="line" smooth="yes"/>
      <point x="405" y="707"/>
      <point x="453" y="842"/>
      <point x="586" y="842" type="curve" smooth="yes"/>
      <point x="719" y="842"/>
      <point x="769" y="711"/>
      <point x="769" y="562" type="curve" smooth="yes"/>
      <point x="769" y="483" type="line" smooth="yes"/>
      <point x="769" y="356"/>
      <point x="719" y="239"/>
      <point x="584" y="239" type="curve" smooth="yes"/>
      <point x="448" y="239"/>
      <point x="405" y="356"/>
      <point x="405" y="518" type="curve" smooth="yes"/>
    </contour>
    <contour>
      <point x="771" y="540" type="line"/>
      <point x="1018" y="540" type="line"/>
      <point x="1126" y="1082" type="line"/>
      <point x="847" y="1082" type="line"/>
    </contour>
    <contour>
      <point x="854" y="0" type="line"/>
      <point x="1133" y="0" type="line"/>
      <point x="1018" y="540" type="line"/>
      <point x="771" y="540" type="line"/>
    </contour>
  </outline>
</glyph>
<glyph name="breveacutecomb" format="1">
  <advance width="879"/>
  <outline>
    <contour>
      <point x="615" y="1456" type="line"/>
      <point x="615" y="1398"/>
      <point x="573" y="1344"/>
      <point x="456" y="1344" type="curve" smooth="yes"/>
      <point x="338" y="1344"/>
      <point x="296" y="1398"/>
      <point x="296" y="1456" type="curve"/>
      <point x="94" y="1456" type="line"/>
      <point x="94" y="1313"/>
      <point x="234" y="1214"/>
      <point x="456" y="1214" type="curve" smooth="yes"/>
      <point x="678" y="1214"/>
      <point x="818" y="1313"/>
      <point x="818" y="1456" type="curve"/>
    </contour>
    <contour>
      <point x="369" y="1451" type="line"/>
      <point x="536" y="1451" type="line"/>
      <point x="715" y="1635" type="line"/>
      <point x="497" y="1635" type="line"/>
    </contour>
  </outline>
</glyph>
<glyph name="brevetildecomb" format="1">
  <advance width="877"/>
  <outline>
    <contour>
      <point x="615" y="1456" type="line"/>
      <point x="615" y="1400"/>
      <point x="573" y="1351"/>
      <point x="456" y="1351" type="curve" smooth="yes"/>
      <point x="338" y="1351"/>
      <point x="296" y="1400"/>
      <point x="296" y="1456" type="curve"/>
      <point x="94" y="1456" type="line"/>
      <point x="94" y="1312"/>
      <point x="234" y="1212"/>
      <point x="456" y="1212" type="curve" smooth="yes"/>
      <point x="678" y="1212"/>
      <point x="818" y="1312"/>
      <point x="818" y="1456" type="curve"/>
    </contour>
    <contour>
      <point x="615" y="1770" type="line"/>
      <point x="615" y="1722"/>
      <point x="587" y="1685"/>
      <point x="553" y="1685" type="curve" smooth="yes"/>
      <point x="471" y="1685"/>
      <point x="401" y="1749"/>
      <point x="315" y="1749" type="curve" smooth="yes"/>
      <point x="219" y="1749"/>
      <point x="153" y="1663"/>
      <point x="153" y="1568" type="curve"/>
      <point x="285" y="1530" type="line"/>
      <point x="285" y="1578"/>
      <point x="312" y="1615"/>
      <point x="347" y="1615" type="curve" smooth="yes"/>
      <point x="432" y="1615"/>
      <point x="480" y="1550"/>
      <point x="585" y="1550" type="curve" smooth="yes"/>
      <point x="680" y="1550"/>
      <point x="748" y="1635"/>
      <point x="748" y="1731" type="curve"/>
    </contour>
  </outline>
</glyph>
<glyph name="circumflexhookcomb" format="1">
  <advance width="1063"/>
  <outline>
    <contour>
      <point x="525" y="1481" type="line"/>
      <point x="361" y="1481" type="line"/>
      <point x="79" y="1263" type="line"/>
      <point x="297" y="1263" type="line"/>
      <point x="443" y="1379" type="line"/>
      <point x="589" y="1263" type="line"/>
      <point x="806" y="1263" type="line"/>
    </contour>
    <contour>
      <point x="877" y="1386" type="line"/>
      <point x="877" y="1438" type="line"/>
      <point x="939" y="1447"/>
      <point x="1002" y="1482"/>
      <point x="1002" y="1557" type="curve" smooth="yes"/>
      <point x="1002" y="1660"/>
      <point x="899" y="1721"/>
      <point x="701" y="1721" type="curve"/>
      <point x="694" y="1601" type="line"/>
      <point x="762" y="1601"/>
      <point x="810" y="1589"/>
      <point x="810" y="1544" type="curve" smooth="yes"/>
      <point x="810" y="1512"/>
      <point x="776" y="1496"/>
      <point x="694" y="1492" type="curve"/>
      <point x="712" y="1386" type="line"/>
    </contour>
  </outline>
</glyph>
<glyph name="commaaccentrotate" format="1">
  <advance width="516"/>
  <outline>
    <contour>
      <point x="129" y="1074" type="line"/>
      <point x="380" y="1074" type="line"/>
      <point x="380" y="1254" type="line"/>
      <point x="421" y="1529" type="line"/>
      <point x="241" y="1529" type="line"/>
      <point x="129" y="1264" type="line"/>
    </contour>
  </outline>
</glyph>
<glyph name="eight.smcp" format="1">
  <advance width="1118"/>
  <outline>
    <contour>
      <point x="1061" y="328" type="curve" smooth="yes"/>
      <point x="1061" y="521"/>
      <point x="845" y="647"/>
      <point x="578" y="647" type="curve" smooth="yes"/>
      <point x="307" y="647"/>
      <point x="80" y="521"/>
      <point x="80" y="328" type="curve" smooth="yes"/>
      <point x="80" y="105"/>
      <point x="307" y="-17"/>
      <point x="579" y="-17" type="curve" smooth="yes"/>
      <point x="846" y="-17"/>
      <point x="1061" y="105"/>
    </contour>
    <contour>
      <point x="738" y="356" type="curve" smooth="yes"/>
      <point x="738" y="286"/>
      <point x="667" y="241"/>
      <point x="579" y="241" type="curve" smooth="yes"/>
      <point x="484" y="241"/>
      <point x="403" y="286"/>
      <point x="403" y="356" type="curve" smooth="yes"/>
      <point x="403" y="428"/>
      <point x="484" y="474"/>
      <point x="578" y="474" type="curve" smooth="yes"/>
      <point x="666" y="474"/>
      <point x="738" y="428"/>
    </contour>
    <contour>
      <point x="1026" y="860" type="curve" smooth="yes"/>
      <point x="1026" y="1073"/>
      <point x="826" y="1181"/>
      <point x="578" y="1181" type="curve" smooth="yes"/>
      <point x="325" y="1181"/>
      <point x="115" y="1073"/>
      <point x="115" y="860" type="curve" smooth="yes"/>
      <point x="115" y="677"/>
      <point x="325" y="557"/>
      <point x="579" y="557" type="curve" smooth="yes"/>
      <point x="828" y="557"/>
      <point x="1026" y="677"/>
    </contour>
    <contour>
      <point x="704" y="832" type="curve" smooth="yes"/>
      <point x="704" y="773"/>
      <point x="649" y="733"/>
      <point x="579" y="733" type="curve" smooth="yes"/>
      <point x="504" y="733"/>
      <point x="437" y="773"/>
      <point x="437" y="832" type="curve" smooth="yes"/>
      <point x="437" y="891"/>
      <point x="504" y="924"/>
      <point x="578" y="924" type="curve" smooth="yes"/>
      <point x="647" y="924"/>
      <point x="704" y="893"/>
    </contour>
  </outline>
</glyph>
<glyph name="eight.sup" format="1">
  <advance width="884"/>
  <outline>
    <contour>
      <point x="795" y="226" type="curve" smooth="yes"/>
      <point x="795" y="358"/>
      <point x="640" y="445"/>
      <point x="449" y="445" type="curve" smooth="yes"/>
      <point x="253" y="445"/>
      <point x="91" y="358"/>
      <point x="91" y="226" type="curve" smooth="yes"/>
      <point x="91" y="72"/>
      <point x="253" y="-11"/>
      <point x="450" y="-11" type="curve" smooth="yes"/>
      <point x="642" y="-11"/>
      <point x="795" y="72"/>
    </contour>
    <contour>
      <point x="572" y="241" type="curve" smooth="yes"/>
      <point x="572" y="188"/>
      <point x="517" y="156"/>
      <point x="450" y="156" type="curve" smooth="yes"/>
      <point x="375" y="156"/>
      <point x="313" y="188"/>
      <point x="313" y="241" type="curve" smooth="yes"/>
      <point x="313" y="296"/>
      <point x="375" y="332"/>
      <point x="449" y="332" type="curve" smooth="yes"/>
      <point x="516" y="332"/>
      <point x="572" y="296"/>
    </contour>
    <contour>
      <point x="769" y="592" type="curve" smooth="yes"/>
      <point x="769" y="738"/>
      <point x="626" y="812"/>
      <point x="449" y="812" type="curve" smooth="yes"/>
      <point x="267" y="812"/>
      <point x="115" y="738"/>
      <point x="115" y="592" type="curve" smooth="yes"/>
      <point x="115" y="466"/>
      <point x="267" y="384"/>
      <point x="450" y="384" type="curve" smooth="yes"/>
      <point x="627" y="384"/>
      <point x="769" y="466"/>
    </contour>
    <contour>
      <point x="547" y="575" type="curve" smooth="yes"/>
      <point x="547" y="528"/>
      <point x="503" y="498"/>
      <point x="450" y="498" type="curve" smooth="yes"/>
      <point x="390" y="498"/>
      <point x="339" y="528"/>
      <point x="339" y="575" type="curve" smooth="yes"/>
      <point x="339" y="622"/>
      <point x="390" y="646"/>
      <point x="449" y="646" type="curve" smooth="yes"/>
      <point x="502" y="646"/>
      <point x="547" y="621"/>
    </contour>
  </outline>
</glyph>
<glyph name="five.lnum" format="1">
  <advance width="1117"/>
  <outline>
    <contour>
      <point x="391" y="623" type="line"/>
      <point x="412" y="676"/>
      <point x="462" y="725"/>
      <point x="566" y="725" type="curve" smooth="yes"/>
      <point x="700" y="725"/>
      <point x="754" y="618"/>
      <point x="754" y="467" type="curve" smooth="yes"/>
      <point x="754" y="355"/>
      <point x="713" y="239"/>
      <point x="575" y="239" type="curve" smooth="yes"/>
      <point x="467" y="239"/>
      <point x="391" y="307"/>
      <point x="391" y="424" type="curve"/>
      <point x="69" y="403" type="line"/>
      <point x="69" y="135"/>
      <point x="318" y="-21"/>
      <point x="575" y="-21" type="curve" smooth="yes"/>
      <point x="917" y="-21"/>
      <point x="1076" y="218"/>
      <point x="1076" y="469" type="curve" smooth="yes"/>
      <point x="1076" y="781"/>
      <point x="920" y="964"/>
      <point x="633" y="958" type="curve" smooth="yes"/>
      <point x="539" y="956"/>
      <point x="461" y="929"/>
      <point x="412" y="891" type="curve"/>
      <point x="450" y="1194" type="line"/>
      <point x="1027" y="1194" type="line"/>
      <point x="1027" y="1456" type="line"/>
      <point x="187" y="1456" type="line"/>
      <point x="103" y="640" type="line"/>
    </contour>
  </outline>
</glyph>
<glyph name="five.smcp" format="1">
  <advance width="1092"/>
  <outline>
    <contour>
      <point x="404" y="491" type="line"/>
      <point x="420" y="508"/>
      <point x="468" y="541"/>
      <point x="554" y="541" type="curve" smooth="yes"/>
      <point x="655" y="541"/>
      <point x="715" y="482"/>
      <point x="715" y="394" type="curve" smooth="yes"/>
      <point x="715" y="305"/>
      <point x="667" y="241"/>
      <point x="558" y="241" type="curve" smooth="yes"/>
      <point x="456" y="241"/>
      <point x="386" y="278"/>
      <point x="386" y="341" type="curve"/>
      <point x="64" y="324" type="line"/>
      <point x="64" y="85"/>
      <point x="303" y="-17"/>
      <point x="558" y="-17" type="curve" smooth="yes"/>
      <point x="896" y="-17"/>
      <point x="1037" y="148"/>
      <point x="1037" y="371" type="curve" smooth="yes"/>
      <point x="1037" y="608"/>
      <point x="890" y="753"/>
      <point x="647" y="749" type="curve" smooth="yes"/>
      <point x="552" y="748"/>
      <point x="490" y="726"/>
      <point x="446" y="705" type="curve"/>
      <point x="469" y="915" type="line"/>
      <point x="959" y="915" type="line"/>
      <point x="959" y="1165" type="line"/>
      <point x="182" y="1165" type="line"/>
      <point x="111" y="504" type="line"/>
    </contour>
    <contour>
      <point x="959" y="915" type="line"/>
      <point x="1005" y="1241" type="line"/>
      <point x="765" y="1241" type="line"/>
      <point x="689" y="915" type="line"/>
    </contour>
  </outline>
</glyph>
<glyph name="nine.lnum" format="1">
  <advance width="1157"/>
  <outline>
    <contour>
      <point x="502" y="239" type="curve" smooth="yes"/>
      <point x="392" y="239"/>
      <point x="314" y="256"/>
      <point x="229" y="283" type="curve"/>
      <point x="194" y="42" type="line"/>
      <point x="289" y="4"/>
      <point x="402" y="-21"/>
      <point x="502" y="-21" type="curve" smooth="yes"/>
      <point x="821" y="-21"/>
      <point x="1066" y="193"/>
      <point x="1066" y="535" type="curve" smooth="yes"/>
      <point x="1066" y="881" type="line" smooth="yes"/>
      <point x="1066" y="1263"/>
      <point x="848" y="1477"/>
      <point x="562" y="1477" type="curve" smooth="yes"/>
      <point x="265" y="1477"/>
      <point x="61" y="1251"/>
      <point x="61" y="967" type="curve" smooth="yes"/>
      <point x="61" y="671"/>
      <point x="221" y="475"/>
      <point x="489" y="475" type="curve" smooth="yes"/>
      <point x="681" y="475"/>
      <point x="842" y="635"/>
      <point x="842" y="924" type="curve"/>
      <point x="785" y="901" type="line"/>
      <point x="785" y="818"/>
      <point x="705" y="718"/>
      <point x="554" y="718" type="curve" smooth="yes"/>
      <point x="439" y="718"/>
      <point x="383" y="825"/>
      <point x="383" y="967" type="curve" smooth="yes"/>
      <point x="383" y="1093"/>
      <point x="449" y="1217"/>
      <point x="562" y="1217" type="curve" smooth="yes"/>
      <point x="666" y="1217"/>
      <point x="744" y="1124"/>
      <point x="744" y="923" type="curve" smooth="yes"/>
      <point x="744" y="512" type="line" smooth="yes"/>
      <point x="744" y="337"/>
      <point x="639" y="239"/>
    </contour>
  </outline>
</glyph>
<glyph name="nine.sup" format="1">
  <advance width="859"/>
  <outline>
    <contour>
      <point x="401" y="156" type="curve" smooth="yes"/>
      <point x="327" y="156"/>
      <point x="275" y="165"/>
      <point x="219" y="187" type="curve"/>
      <point x="181" y="23" type="line"/>
      <point x="249" y="2"/>
      <point x="329" y="-11"/>
      <point x="401" y="-11" type="curve" smooth="yes"/>
      <point x="603" y="-11"/>
      <point x="760" y="111"/>
      <point x="760" y="290" type="curve" smooth="yes"/>
      <point x="760" y="488" type="line" smooth="yes"/>
      <point x="760" y="680"/>
      <point x="607" y="812"/>
      <point x="409" y="812" type="curve" smooth="yes"/>
      <point x="216" y="812"/>
      <point x="83" y="694"/>
      <point x="83" y="543" type="curve" smooth="yes"/>
      <point x="83" y="378"/>
      <point x="197" y="267"/>
      <point x="385" y="267" type="curve" smooth="yes"/>
      <point x="499" y="267"/>
      <point x="619" y="354"/>
      <point x="619" y="508" type="curve"/>
      <point x="554" y="506" type="line"/>
      <point x="554" y="466"/>
      <point x="516" y="419"/>
      <point x="424" y="419" type="curve" smooth="yes"/>
      <point x="345" y="419"/>
      <point x="306" y="471"/>
      <point x="306" y="531" type="curve" smooth="yes"/>
      <point x="306" y="593"/>
      <point x="345" y="646"/>
      <point x="413" y="646" type="curve" smooth="yes"/>
      <point x="484" y="646"/>
      <point x="538" y="580"/>
      <point x="538" y="488" type="curve" smooth="yes"/>
      <point x="538" y="289" type="line" smooth="yes"/>
      <point x="538" y="210"/>
      <point x="477" y="156"/>
    </contour>
  </outline>
</glyph>
<glyph name="one.lnum" format="1">
  <advance width="805"/>
  <outline>
    <contour>
      <point x="631" y="1457" type="line"/>
      <point x="43" y="1405" type="line"/>
      <point x="43" y="1167" type="line"/>
      <point x="309" y="1167" type="line"/>
      <point x="309" y="0" type="line"/>
      <point x="631" y="0" type="line"/>
    </contour>
    <contour>
      <point x="309" y="0" type="line"/>
      <point x="309" y="230" type="line"/>
      <point x="156" y="200" type="line"/>
      <point x="156" y="0" type="line"/>
    </contour>
    <contour>
      <point x="631" y="0" type="line"/>
      <point x="784" y="0" type="line"/>
      <point x="784" y="200" type="line"/>
      <point x="631" y="230" type="line"/>
    </contour>
  </outline>
</glyph>
<glyph name="seven.smcp" format="1">
  <advance width="943"/>
  <outline>
    <contour>
      <point x="598" y="907" type="line"/>
      <point x="498" y="814"/>
      <point x="266" y="554"/>
      <point x="266" y="185" type="curve" smooth="yes"/>
      <point x="266" y="0" type="line"/>
      <point x="588" y="0" type="line"/>
      <point x="588" y="185" type="line" smooth="yes"/>
      <point x="588" y="552"/>
      <point x="735" y="708"/>
      <point x="891" y="907" type="curve"/>
    </contour>
    <contour>
      <point x="891" y="1165" type="line"/>
      <point x="65" y="1165" type="line"/>
      <point x="65" y="907" type="line"/>
      <point x="891" y="907" type="line"/>
    </contour>
    <contour>
      <point x="65" y="1165" type="line"/>
      <point x="65" y="772" type="line"/>
      <point x="306" y="772" type="line"/>
      <point x="335" y="1165" type="line"/>
    </contour>
  </outline>
</glyph>
<glyph name="seven.sup" format="1">
  <advance width="712"/>
  <outline>
    <contour>
      <point x="455" y="634" type="line"/>
      <point x="381" y="569"/>
      <point x="212" y="387"/>
      <point x="212" y="127" type="curve" smooth="yes"/>
      <point x="212" y="0" type="line"/>
      <point x="434" y="0" type="line"/>
      <point x="434" y="127" type="line" smooth="yes"/>
      <point x="434" y="386"/>
      <point x="544" y="494"/>
      <point x="661" y="634" type="curve"/>
    </contour>
    <contour>
      <point x="661" y="801" type="line"/>
      <point x="60" y="801" type="line"/>
      <point x="60" y="634" type="line"/>
      <point x="661" y="634" type="line"/>
    </contour>
  </outline>
</glyph>
